<?xml version="1.0" encoding="UTF-8" standalone="no"?>
<!-- Created with Inkscape (http://www.inkscape.org/) -->

<svg
   xmlns:dc="http://purl.org/dc/elements/1.1/"
   xmlns:cc="http://creativecommons.org/ns#"
   xmlns:rdf="http://www.w3.org/1999/02/22-rdf-syntax-ns#"
   xmlns:svg="http://www.w3.org/2000/svg"
   xmlns="http://www.w3.org/2000/svg"
   xmlns:sodipodi="http://sodipodi.sourceforge.net/DTD/sodipodi-0.dtd"
   xmlns:inkscape="http://www.inkscape.org/namespaces/inkscape"
   width="800px"
   height="600px"
   id="svg35948"
   version="1.1"
   inkscape:version="0.48.2 r9819"
   sodipodi:docname="slide15.svg">
  <defs
     id="defs35950">
    <filter
       id="filter35983"
       inkscape:label="Drop shadow"
       width="1.5"
       height="1.5"
       x="-.25"
       y="-.25">
      <feGaussianBlur
         id="feGaussianBlur35985"
         in="SourceAlpha"
         stdDeviation="2.2"
         result="blur" />
      <feColorMatrix
         id="feColorMatrix35987"
         result="bluralpha"
         type="matrix"
         values="1 0 0 0 0 0 1 0 0 0 0 0 1 0 0 0 0 0 0.5 0 " />
      <feOffset
         id="feOffset35989"
         in="bluralpha"
         dx="3.4"
         dy="4"
         result="offsetBlur" />
      <feMerge
         id="feMerge35991">
        <feMergeNode
           id="feMergeNode35993"
           in="offsetBlur" />
        <feMergeNode
           id="feMergeNode35995"
           in="SourceGraphic" />
      </feMerge>
    </filter>
    <filter
       id="filter36438"
       inkscape:label="Drop shadow"
       width="1.5"
       height="1.5"
       x="-.25"
       y="-.25">
      <feGaussianBlur
         id="feGaussianBlur36440"
         in="SourceAlpha"
         stdDeviation="2.2"
         result="blur" />
      <feColorMatrix
         id="feColorMatrix36442"
         result="bluralpha"
         type="matrix"
         values="1 0 0 0 0 0 1 0 0 0 0 0 1 0 0 0 0 0 0.5 0 " />
      <feOffset
         id="feOffset36444"
         in="bluralpha"
         dx="3.4"
         dy="4"
         result="offsetBlur" />
      <feMerge
         id="feMerge36446">
        <feMergeNode
           id="feMergeNode36448"
           in="offsetBlur" />
        <feMergeNode
           id="feMergeNode36450"
           in="SourceGraphic" />
      </feMerge>
    </filter>
    <filter
       id="filter37173"
       inkscape:label="Drop shadow"
       width="1.5"
       height="1.5"
       x="-.25"
       y="-.25">
      <feGaussianBlur
         id="feGaussianBlur37175"
         in="SourceAlpha"
         stdDeviation="2.2"
         result="blur" />
      <feColorMatrix
         id="feColorMatrix37177"
         result="bluralpha"
         type="matrix"
         values="1 0 0 0 0 0 1 0 0 0 0 0 1 0 0 0 0 0 0.5 0 " />
      <feOffset
         id="feOffset37179"
         in="bluralpha"
         dx="3.4"
         dy="4"
         result="offsetBlur" />
      <feMerge
         id="feMerge37181">
        <feMergeNode
           id="feMergeNode37183"
           in="offsetBlur" />
        <feMergeNode
           id="feMergeNode37185"
           in="SourceGraphic" />
      </feMerge>
    </filter>
    <filter
       id="filter37573"
       inkscape:label="Drop shadow"
       width="1.5"
       height="1.5"
       x="-.25"
       y="-.25">
      <feGaussianBlur
         id="feGaussianBlur37575"
         in="SourceAlpha"
         stdDeviation="2.2"
         result="blur" />
      <feColorMatrix
         id="feColorMatrix37577"
         result="bluralpha"
         type="matrix"
         values="1 0 0 0 0 0 1 0 0 0 0 0 1 0 0 0 0 0 0.5 0 " />
      <feOffset
         id="feOffset37579"
         in="bluralpha"
         dx="3.4"
         dy="4"
         result="offsetBlur" />
      <feMerge
         id="feMerge37581">
        <feMergeNode
           id="feMergeNode37583"
           in="offsetBlur" />
        <feMergeNode
           id="feMergeNode37585"
           in="SourceGraphic" />
      </feMerge>
    </filter>
    <filter
       id="filter39185"
       inkscape:label="Drop shadow"
       width="1.5"
       height="1.5"
       x="-.25"
       y="-.25">
      <feGaussianBlur
         id="feGaussianBlur39187"
         in="SourceAlpha"
         stdDeviation="2.2"
         result="blur" />
      <feColorMatrix
         id="feColorMatrix39189"
         result="bluralpha"
         type="matrix"
         values="1 0 0 0 0 0 1 0 0 0 0 0 1 0 0 0 0 0 0.5 0 " />
      <feOffset
         id="feOffset39191"
         in="bluralpha"
         dx="3.4"
         dy="4"
         result="offsetBlur" />
      <feMerge
         id="feMerge39193">
        <feMergeNode
           id="feMergeNode39195"
           in="offsetBlur" />
        <feMergeNode
           id="feMergeNode39197"
           in="SourceGraphic" />
      </feMerge>
    </filter>
  </defs>
  <sodipodi:namedview
     id="base"
     pagecolor="#ef9302"
     bordercolor="#666666"
     borderopacity="1.0"
     inkscape:pageopacity="1"
     inkscape:pageshadow="2"
     inkscape:zoom="0.84852814"
     inkscape:cx="420.08244"
     inkscape:cy="318.44054"
     inkscape:current-layer="layer1"
     inkscape:document-units="px"
     showgrid="false"
     inkscape:window-width="1280"
     inkscape:window-height="1004"
     inkscape:window-x="1278"
     inkscape:window-y="-3"
     inkscape:window-maximized="1" />
  <metadata
     id="metadata35953">
    <rdf:RDF>
      <cc:Work
         rdf:about="">
        <dc:format>image/svg+xml</dc:format>
        <dc:type
           rdf:resource="http://purl.org/dc/dcmitype/StillImage" />
        <dc:title />
      </cc:Work>
    </rdf:RDF>
  </metadata>
  <g
     id="layer1"
     inkscape:label="Layer 1"
     inkscape:groupmode="layer">
    <g
       style="font-size:18px;font-style:normal;font-variant:normal;font-weight:normal;font-stretch:normal;line-height:125%;letter-spacing:0px;word-spacing:0px;fill:#000000;fill-opacity:1;stroke:none;filter:url(#filter37573);font-family:Ubuntu;-inkscape-font-specification:Ubuntu"
       id="text37557">
      <path
         d="m 222.84106,263.65373 c -1e-5,-8.54394 1.24799,-16.07993 3.744,-22.608 2.59198,-6.52792 6.04798,-11.95191 10.368,-16.272 4.41597,-4.4159 9.50397,-7.7279 15.264,-9.936 5.85596,-2.20789 12.04795,-3.31189 18.576,-3.312 6.43194,1.1e-4 12.47993,1.10411 18.144,3.312 5.75992,2.2081 10.79991,5.5201 15.12,9.936 4.31991,4.32009 7.7279,9.74408 10.224,16.272 2.5919,6.52807 3.8879,14.06406 3.888,22.608 -10e-5,7.48805 -0.9601,14.16004 -2.88,20.016 -1.9201,5.85603 -4.6081,10.94402 -8.064,15.264 -3.36009,4.22402 -7.34409,7.68001 -11.952,10.368 -4.51208,2.59201 -9.36007,4.368 -14.544,5.328 0.0959,2.208 1.05593,4.128 2.88,5.76 1.91993,1.728 4.31993,3.16799 7.2,4.32 2.87992,1.15199 6.09592,2.11199 9.648,2.88 3.55191,0.76799 7.10391,1.34399 10.656,1.728 l -3.312,10.944 c -4.99209,-0.67202 -9.79208,-1.58402 -14.4,-2.736 -4.51207,-1.05602 -8.64007,-2.49602 -12.384,-4.32 -3.64806,-1.82401 -6.72006,-4.17601 -9.216,-7.056 -2.49606,-2.78401 -4.17605,-6.288 -5.04,-10.512 -6.04805,-0.384 -11.76004,-1.776 -17.136,-4.176 -5.37603,-2.49599 -10.03203,-5.90399 -13.968,-10.224 -3.93602,-4.41598 -7.05601,-9.74397 -9.36,-15.984 -2.30401,-6.23996 -3.45601,-13.43995 -3.456,-21.6 m 14.688,0 c -2e-5,6.04805 0.76798,11.56804 2.304,16.56 1.53597,4.89603 3.69597,9.07203 6.48,12.528 2.87996,3.45602 6.33596,6.14402 10.368,8.064 4.12795,1.82402 8.73595,2.73601 13.824,2.736 5.08794,1e-5 9.64793,-0.91198 13.68,-2.736 4.03193,-1.91998 7.43992,-4.60798 10.224,-8.064 2.87992,-3.45597 5.08791,-7.63197 6.624,-12.528 1.53591,-4.99196 2.30391,-10.51195 2.304,-16.56 -9e-5,-6.04794 -0.76809,-11.51993 -2.304,-16.416 -1.53609,-4.99192 -3.74408,-9.21592 -6.624,-12.672 -2.78408,-3.45591 -6.19207,-6.09591 -10.224,-7.92 -4.03207,-1.91991 -8.59206,-2.87991 -13.68,-2.88 -5.08805,9e-5 -9.69605,0.96009 -13.824,2.88 -4.03204,1.82409 -7.48804,4.46409 -10.368,7.92 -2.78403,3.45608 -4.94403,7.68008 -6.48,12.672 -1.53602,4.89607 -2.30402,10.36806 -2.304,16.416"
         style="font-size:144px"
         id="path6460" />
      <path
         d="m 366.23806,287.12573 c -1e-5,-3.74397 0.57599,-7.05596 1.728,-9.936 1.15199,-2.97596 2.68799,-5.61595 4.608,-7.92 2.01598,-2.39995 4.31998,-4.46395 6.912,-6.192 2.59198,-1.82394 5.27997,-3.40794 8.064,-4.752 -7.10402,-7.10393 -10.65602,-14.44793 -10.656,-22.032 -2e-5,-3.83991 0.62398,-7.29591 1.872,-10.368 1.34398,-3.0719 3.11998,-5.6639 5.328,-7.776 2.30397,-2.1119 4.99197,-3.7439 8.064,-4.896 3.16796,-1.15189 6.62396,-1.72789 10.368,-1.728 3.83995,1.1e-4 7.24795,0.57611 10.224,1.728 3.07194,1.1521 5.61594,2.6881 7.632,4.608 2.11194,1.9201 3.69593,4.2241 4.752,6.912 1.05593,2.68809 1.58393,5.52009 1.584,8.496 -7e-5,3.36008 -0.57607,6.38408 -1.728,9.072 -1.05606,2.68807 -2.54406,5.13607 -4.464,7.344 -1.82406,2.20807 -3.93606,4.22406 -6.336,6.048 -2.40005,1.82406 -4.94405,3.45606 -7.632,4.896 l 23.328,23.76 c 3.26393,-6.04796 5.37592,-12.76795 6.336,-20.16 l 11.088,1.44 c -0.38409,3.93605 -1.39209,8.25604 -3.024,12.96 -1.53608,4.60804 -3.74408,9.21603 -6.624,13.824 3.35992,3.64802 6.43191,7.24802 9.216,10.8 2.87991,3.55201 5.23191,7.00801 7.056,10.368 l -14.112,0 c -1.15208,-1.91999 -2.59208,-3.88799 -4.32,-5.904 -1.63207,-2.01599 -3.36007,-4.03199 -5.184,-6.048 -3.93607,3.93601 -8.49606,7.15201 -13.68,9.648 -5.18405,2.4 -11.13605,3.6 -17.856,3.6 -6.24003,0 -11.42403,-0.864 -15.552,-2.592 -4.12802,-1.82399 -7.48802,-4.07999 -10.08,-6.768 -2.49601,-2.78398 -4.27201,-5.80798 -5.328,-9.072 -1.05601,-3.26397 -1.58401,-6.38397 -1.584,-9.36 m 13.392,-0.288 c -2e-5,1.72803 0.33598,3.60003 1.008,5.616 0.67198,2.01602 1.77598,3.88802 3.312,5.616 1.53597,1.63202 3.50397,3.02402 5.904,4.176 2.49597,1.05601 5.56796,1.58401 9.216,1.584 4.70396,1e-5 9.02395,-0.86398 12.96,-2.592 4.03194,-1.72798 7.58394,-4.17598 10.656,-7.344 l -28.08,-28.368 c -1.72803,0.86405 -3.50403,1.87205 -5.328,3.024 -1.72803,1.15205 -3.31203,2.59205 -4.752,4.32 -1.44002,1.63204 -2.64002,3.60004 -3.6,5.904 -0.86402,2.30404 -1.29602,4.99203 -1.296,8.064 m 34.992,-53.136 c -6e-5,-3.26391 -1.10405,-5.99991 -3.312,-8.208 -2.11205,-2.3039 -5.04005,-3.4559 -8.784,-3.456 -4.22404,1e-4 -7.48804,1.29609 -9.792,3.888 -2.20803,2.49609 -3.31203,5.61609 -3.312,9.36 -3e-5,6.24008 3.26397,12.33607 9.792,18.288 2.11196,-1.05593 4.07996,-2.20793 5.904,-3.456 1.91995,-1.24793 3.55195,-2.68793 4.896,-4.32 1.43995,-1.63193 2.54395,-3.40792 3.312,-5.328 0.86394,-2.01592 1.29594,-4.27192 1.296,-6.768"
         style="font-size:144px"
         id="path6462" />
      <path
         d="m 567.76381,313.62173 c -1.63208,-4.31999 -3.16808,-8.54399 -4.608,-12.672 -1.44007,-4.22398 -2.92807,-8.49597 -4.464,-12.816 l -45.216,0 -9.072,25.488 -14.544,0 c 3.83999,-10.55998 7.43999,-20.30398 10.8,-29.232 3.35998,-9.02396 6.62398,-17.56795 9.792,-25.632 3.26397,-8.06393 6.47997,-15.74392 9.648,-23.04 3.16796,-7.39191 6.47996,-14.6879 9.936,-21.888 l 12.816,0 c 3.45594,7.2001 6.76794,14.49609 9.936,21.888 3.16793,7.29608 6.33593,14.97607 9.504,23.04 3.26392,8.06405 6.57592,16.60804 9.936,25.632 3.35991,8.92802 6.95991,18.67202 10.8,29.232 l -15.264,0 m -13.104,-37.008 c -3.07206,-8.35195 -6.14406,-16.41594 -9.216,-24.192 -2.97605,-7.87193 -6.09605,-15.40792 -9.36,-22.608 -3.36004,7.20008 -6.57604,14.73607 -9.648,22.608 -2.97604,7.77606 -5.95203,15.84005 -8.928,24.192 l 37.152,0"
         style="font-size:144px"
         id="path6464" />
    </g>
    <text
       xml:space="preserve"
       style="font-size:18px;font-style:normal;font-variant:normal;font-weight:normal;font-stretch:normal;line-height:125%;letter-spacing:0px;word-spacing:0px;fill:#000000;fill-opacity:1;stroke:none;font-family:Ubuntu;-inkscape-font-specification:Ubuntu"
       x="75.424721"
       y="242.91109"
       id="text37587"
       sodipodi:linespacing="125%"><tspan
         sodipodi:role="line"
         id="tspan37589" /></text>
    <text
       xml:space="preserve"
       style="font-size:18px;font-style:normal;font-variant:normal;font-weight:normal;font-stretch:normal;line-height:125%;letter-spacing:0px;word-spacing:0px;fill:#000000;fill-opacity:1;stroke:none;font-family:Ubuntu;-inkscape-font-specification:Ubuntu"
       x="108.42304"
       y="239.37553"
       id="text39168"
       sodipodi:linespacing="125%"><tspan
         sodipodi:role="line"
         x="108.42304"
         y="239.37553"
         id="tspan39174" /></text>
  </g>
</svg>
