<?xml version="1.0" encoding="UTF-8" standalone="no"?>
<!-- Created with Inkscape (http://www.inkscape.org/) -->

<svg
   xmlns:dc="http://purl.org/dc/elements/1.1/"
   xmlns:cc="http://creativecommons.org/ns#"
   xmlns:rdf="http://www.w3.org/1999/02/22-rdf-syntax-ns#"
   xmlns:svg="http://www.w3.org/2000/svg"
   xmlns="http://www.w3.org/2000/svg"
   xmlns:xlink="http://www.w3.org/1999/xlink"
   xmlns:sodipodi="http://sodipodi.sourceforge.net/DTD/sodipodi-0.dtd"
   xmlns:inkscape="http://www.inkscape.org/namespaces/inkscape"
   width="800px"
   height="600px"
   id="svg2985"
   version="1.1"
   inkscape:version="0.48.2 r9819"
   sodipodi:docname="slide1.svg">
  <defs
     id="defs2987">
    <filter
       id="filter4024"
       inkscape:label="Drop shadow"
       width="1.5"
       height="1.5"
       x="-.25"
       y="-.25">
      <feGaussianBlur
         id="feGaussianBlur4026"
         in="SourceAlpha"
         stdDeviation="2"
         result="blur" />
      <feColorMatrix
         id="feColorMatrix4028"
         result="bluralpha"
         type="matrix"
         values="1 0 0 0 0 0 1 0 0 0 0 0 1 0 0 0 0 0 0.5 0 " />
      <feOffset
         id="feOffset4030"
         in="bluralpha"
         dx="4"
         dy="4"
         result="offsetBlur" />
      <feMerge
         id="feMerge4032">
        <feMergeNode
           id="feMergeNode4034"
           in="offsetBlur" />
        <feMergeNode
           id="feMergeNode4036"
           in="SourceGraphic" />
      </feMerge>
    </filter>
    <filter
       id="filter4038"
       inkscape:label="Drop shadow"
       width="1.5"
       height="1.5"
       x="-.25"
       y="-.25">
      <feGaussianBlur
         id="feGaussianBlur4040"
         in="SourceAlpha"
         stdDeviation="2"
         result="blur" />
      <feColorMatrix
         id="feColorMatrix4042"
         result="bluralpha"
         type="matrix"
         values="1 0 0 0 0 0 1 0 0 0 0 0 1 0 0 0 0 0 0.5 0 " />
      <feOffset
         id="feOffset4044"
         in="bluralpha"
         dx="4"
         dy="4"
         result="offsetBlur" />
      <feMerge
         id="feMerge4046">
        <feMergeNode
           id="feMergeNode4048"
           in="offsetBlur" />
        <feMergeNode
           id="feMergeNode4050"
           in="SourceGraphic" />
      </feMerge>
    </filter>
    <filter
       id="filterK"
       height="2.0"
       width="2.0"
       x="-0.5"
       y="-0.5">
      <feGaussianBlur
         stdDeviation="5.0"
         id="feGaussianBlur4147" />
    </filter>
    <clipPath
       id="clipPathd">
      <path
         id="path2586"
         d="M 519.375,8.375 L 519.375,75.375 C 511.0626,67.666325 500.46308,63.031246 488.90625,63.03125 C 462.23293,63.031248 440.59375,87.64964 440.59375,118 C 440.59374,148.35035 462.23293,172.96876 488.90625,172.96875 C 500.46308,172.96875 511.06259,168.33367 519.375,160.625 L 519.375,170.15625 L 549.84375,170.15625 L 549.84375,8.375 L 519.375,8.375 z M 566.84375,8.375 L 566.84375,170.15625 L 597.34375,170.15625 L 597.34375,8.375 L 566.84375,8.375 z M 267.90625,62.4375 C 237.57007,62.437502 212.9375,87.55776 212.9375,118.5625 C 212.93751,149.56725 237.57006,174.71875 267.90625,174.71875 C 298.24243,174.71876 322.84375,149.56725 322.84375,118.5625 C 322.84374,87.557759 298.24242,62.4375 267.90625,62.4375 z M 381.625,62.4375 C 351.28883,62.437502 326.65625,87.55776 326.65625,118.5625 C 326.65623,149.56725 351.28881,174.71875 381.625,174.71875 C 411.96119,174.71876 436.5625,149.56725 436.5625,118.5625 C 436.5625,87.557759 411.96117,62.4375 381.625,62.4375 z M 661.84375,62.4375 C 630.5369,62.437502 605.09375,88.21738 605.09375,120.03125 C 605.09375,151.84513 630.5369,177.65625 661.84375,177.65625 C 686.36034,177.65626 707.2511,161.83229 715.15625,139.6875 L 683.5,139.6875 C 678.81627,149.13629 670.87716,155.375 661.84375,155.375 C 649.756,155.375 639.54353,144.22185 636.5625,129.125 L 717.4763,128.5474 C 717.7781,126.13977 718.53125,122.52197 718.53125,120.03125 C 718.53123,88.217379 693.15058,62.4375 661.84375,62.4375 z M 94.875,64.15625 C 64.45091,64.49593 53.84799,78.71241 51.6875,98.65625 L 52.1875,98.65625 L 52.1875,170.15625 L 82.65625,170.15625 L 82.65625,98.65625 L 83.8125,98.65625 C 87.42654,91.67994 92.84159,87.25 98.875,87.25 C 104.78875,87.25 110.09998,91.511773 113.71875,98.25 L 113.71875,170.15625 L 144.21875,170.15625 L 144.21875,98.65625 L 144.6875,98.65625 C 148.30911,91.679939 153.71659,87.25 159.75,87.25 C 165.78341,87.250001 171.19846,91.67994 174.8125,98.65625 L 175.875,98.65625 L 175.875,170.15625 L 206.34375,170.15625 L 206.34375,98.65625 L 206.9375,98.65625 C 204.77701,78.712412 194.17409,64.495926 163.75,64.15625 C 162.45229,64.141761 161.12068,64.150863 159.75,64.1875 C 148.13737,64.187501 137.52006,69.142274 129.3125,77.34375 C 121.10494,69.142273 110.48762,64.1875 98.875,64.1875 C 97.50432,64.15086 96.17271,64.14176 94.875,64.15625 z M 495.5625,84.1875 C 506.93717,84.187497 516.51158,94.557631 519.375,108.625 L 519.375,126.15625 C 516.51156,140.22362 506.93714,150.5625 495.5625,150.5625 C 481.93,150.56249 470.875,135.68738 470.875,117.375 C 470.875,99.062623 481.92998,84.1875 495.5625,84.1875 z M 661.84375,84.71875 C 673.30982,84.718752 683.02806,94.717 686.53125,108.625 L 637.09375,108.625 C 640.61313,94.717002 650.37767,84.71875 661.84375,84.71875 z M 267.90625,85.84375 C 280.62036,85.843748 290.9375,100.49993 290.9375,118.5625 C 290.9375,136.62508 280.62036,151.3125 267.90625,151.3125 C 255.19213,151.31249 244.84375,136.62508 244.84375,118.5625 C 244.84375,100.49994 255.19214,85.84375 267.90625,85.84375 z M 381.625,85.84375 C 394.33912,85.843748 404.65625,100.49993 404.65625,118.5625 C 404.65623,136.62508 394.33911,151.3125 381.625,151.3125 C 368.91089,151.31249 358.59375,136.62508 358.59375,118.5625 C 358.59375,100.49994 368.91089,85.84375 381.625,85.84375 z"
         style="opacity:1;fill:#fb9c02;fill-opacity:1;stroke:none;stroke-width:5.29165649000000030;stroke-linejoin:round;stroke-miterlimit:4;stroke-dasharray:none;stroke-opacity:1"
         transform="translate(-0.1900293,428.7894)"
         sodipodi:nodetypes="ccssscccccccccccsssccsssccssccsccsccccccccscccccsccccccscccccccssccccccsssccsssc" />
    </clipPath>
    <filter
       y="-0.5"
       x="-0.5"
       width="2.0"
       height="2.0"
       id="filter">
      <feGaussianBlur
         id="feGaussianBlur4083"
         stdDeviation="5.0" />
    </filter>
    <clipPath
       id="clipPath">
      <path
         style="opacity:1;fill:#fb9c02;fill-opacity:1;stroke:none;stroke-width:5.29165649000000030;stroke-linejoin:round;stroke-miterlimit:4;stroke-dasharray:none;stroke-opacity:1"
         d="M 519.375 8.375 L 519.375 75.375 C 511.0626 67.666325 500.46308 63.031246 488.90625 63.03125 C 462.23293 63.031248 440.59375 87.64964 440.59375 118 C 440.59374 148.35035 462.23293 172.96876 488.90625 172.96875 C 500.46308 172.96875 511.06259 168.33367 519.375 160.625 L 519.375 170.15625 L 549.84375 170.15625 L 549.84375 8.375 L 519.375 8.375 z M 566.84375 8.375 L 566.84375 170.15625 L 597.34375 170.15625 L 597.34375 8.375 L 566.84375 8.375 z M 267.90625 62.4375 C 237.57007 62.437502 212.9375 87.55776 212.9375 118.5625 C 212.93751 149.56725 237.57006 174.71875 267.90625 174.71875 C 298.24243 174.71876 322.84375 149.56725 322.84375 118.5625 C 322.84374 87.557759 298.24242 62.4375 267.90625 62.4375 z M 381.625 62.4375 C 351.28883 62.437502 326.65625 87.55776 326.65625 118.5625 C 326.65623 149.56725 351.28881 174.71875 381.625 174.71875 C 411.96119 174.71876 436.5625 149.56725 436.5625 118.5625 C 436.5625 87.557759 411.96117 62.4375 381.625 62.4375 z M 661.84375 62.4375 C 630.5369 62.437502 605.09375 88.21738 605.09375 120.03125 C 605.09375 151.84513 630.5369 177.65625 661.84375 177.65625 C 686.36034 177.65626 707.2511 161.83229 715.15625 139.6875 L 683.5 139.6875 C 678.81627 149.13629 670.87716 155.375 661.84375 155.375 C 649.756 155.375 639.54353 144.22185 636.5625 129.125 L 674.125 129.125 L 674.125 127.375 L 718.0625 127.375 C 718.3643 124.96737 718.53125 122.52197 718.53125 120.03125 C 718.53123 88.217379 693.15058 62.4375 661.84375 62.4375 z M 94.875 64.15625 C 64.45091 64.49593 53.84799 78.71241 51.6875 98.65625 L 52.1875 98.65625 L 52.1875 170.15625 L 82.65625 170.15625 L 82.65625 98.65625 L 83.8125 98.65625 C 87.42654 91.67994 92.84159 87.25 98.875 87.25 C 104.78875 87.25 110.09998 91.511773 113.71875 98.25 L 113.71875 170.15625 L 144.21875 170.15625 L 144.21875 98.65625 L 144.6875 98.65625 C 148.30911 91.679939 153.71659 87.25 159.75 87.25 C 165.78341 87.250001 171.19846 91.67994 174.8125 98.65625 L 175.875 98.65625 L 175.875 170.15625 L 206.34375 170.15625 L 206.34375 98.65625 L 206.9375 98.65625 C 204.77701 78.712412 194.17409 64.495926 163.75 64.15625 C 162.45229 64.141761 161.12068 64.150863 159.75 64.1875 C 148.13737 64.187501 137.52006 69.142274 129.3125 77.34375 C 121.10494 69.142273 110.48762 64.1875 98.875 64.1875 C 97.50432 64.15086 96.17271 64.14176 94.875 64.15625 z M 495.5625 84.1875 C 506.93717 84.187497 516.51158 94.557631 519.375 108.625 L 519.375 126.15625 C 516.51156 140.22362 506.93714 150.5625 495.5625 150.5625 C 481.93 150.56249 470.875 135.68738 470.875 117.375 C 470.875 99.062623 481.92998 84.1875 495.5625 84.1875 z M 661.84375 84.71875 C 673.30982 84.718752 683.02806 94.717 686.53125 108.625 L 637.09375 108.625 C 640.61313 94.717002 650.37767 84.71875 661.84375 84.71875 z M 267.90625 85.84375 C 280.62036 85.843748 290.9375 100.49993 290.9375 118.5625 C 290.9375 136.62508 280.62036 151.3125 267.90625 151.3125 C 255.19213 151.31249 244.84375 136.62508 244.84375 118.5625 C 244.84375 100.49994 255.19214 85.84375 267.90625 85.84375 z M 381.625 85.84375 C 394.33912 85.843748 404.65625 100.49993 404.65625 118.5625 C 404.65623 136.62508 394.33911 151.3125 381.625 151.3125 C 368.91089 151.31249 358.59375 136.62508 358.59375 118.5625 C 358.59375 100.49994 368.91089 85.84375 381.625 85.84375 z "
         transform="translate(-0.1900293,428.7894)"
         id="path3991" />
    </clipPath>
    <filter
       id="filter3416"
       inkscape:collect="always">
      <feGaussianBlur
         id="feGaussianBlur3418"
         stdDeviation="4.180625"
         inkscape:collect="always" />
    </filter>
    <inkscape:perspective
       sodipodi:type="inkscape:persp3d"
       inkscape:vp_x="0 : 526.18109 : 1"
       inkscape:vp_y="0 : 1000 : 0"
       inkscape:vp_z="744.09448 : 526.18109 : 1"
       inkscape:persp3d-origin="372.04724 : 350.78739 : 1"
       id="perspective2390" />
    <clipPath
       clipPathUnits="userSpaceOnUse"
       id="clipPath2472">
      <path
         d="M 130.32,642 L 462.24,642 L 462.24,653.04 L 130.32,653.04 L 130.32,642 z"
         id="path2474" />
    </clipPath>
    <inkscape:perspective
       id="perspective10"
       inkscape:persp3d-origin="372.04724 : 350.78739 : 1"
       inkscape:vp_z="744.09448 : 526.18109 : 1"
       inkscape:vp_y="0 : 1000 : 0"
       inkscape:vp_x="0 : 526.18109 : 1"
       sodipodi:type="inkscape:persp3d" />
    <linearGradient
       id="linearGradient3187">
      <stop
         id="stop3189"
         offset="0"
         style="stop-color:#606060;stop-opacity:1;" />
      <stop
         id="stop3191"
         offset="1"
         style="stop-color:#404040;stop-opacity:1;" />
    </linearGradient>
    <linearGradient
       id="linearGradient3195">
      <stop
         id="stop3197"
         offset="0"
         style="stop-color:#404040;stop-opacity:1;" />
      <stop
         id="stop3199"
         offset="1"
         style="stop-color:#1a1a1a;stop-opacity:1;" />
    </linearGradient>
    <linearGradient
       id="linearGradient3203">
      <stop
         id="stop3205"
         offset="0"
         style="stop-color:#333333;stop-opacity:1;" />
      <stop
         id="stop3207"
         offset="1"
         style="stop-color:#606060;stop-opacity:1;" />
    </linearGradient>
    <radialGradient
       inkscape:collect="always"
       xlink:href="#linearGradient3187"
       id="radialGradient4211"
       gradientUnits="userSpaceOnUse"
       gradientTransform="matrix(0.5223717,-0.00855412,0.0035725,0.2181606,56.434505,145.93997)"
       cx="71.30822"
       cy="535.04962"
       fx="71.30822"
       fy="535.04962"
       r="63.818954" />
    <linearGradient
       inkscape:collect="always"
       xlink:href="#linearGradient3203"
       id="linearGradient4214"
       gradientUnits="userSpaceOnUse"
       x1="64.697289"
       y1="502.40942"
       x2="72.317894"
       y2="519.99542"
       gradientTransform="translate(24.085062,-231.14219)" />
    <linearGradient
       inkscape:collect="always"
       xlink:href="#linearGradient3195"
       id="linearGradient4217"
       gradientUnits="userSpaceOnUse"
       x1="94.776047"
       y1="511.9057"
       x2="103.21809"
       y2="502.52649"
       gradientTransform="translate(24.085062,-231.14219)" />
  </defs>
  <sodipodi:namedview
     id="base"
     pagecolor="#ef9302"
     bordercolor="#666666"
     borderopacity="1.0"
     inkscape:pageopacity="1"
     inkscape:pageshadow="2"
     inkscape:zoom="0.84852814"
     inkscape:cx="431.53415"
     inkscape:cy="363.38289"
     inkscape:current-layer="layer1"
     inkscape:document-units="px"
     showgrid="false"
     inkscape:window-width="1280"
     inkscape:window-height="1004"
     inkscape:window-x="1278"
     inkscape:window-y="-3"
     inkscape:window-maximized="1" />
  <metadata
     id="metadata2990">
    <rdf:RDF>
      <cc:Work
         rdf:about="">
        <dc:format>image/svg+xml</dc:format>
        <dc:type
           rdf:resource="http://purl.org/dc/dcmitype/StillImage" />
        <dc:title></dc:title>
      </cc:Work>
    </rdf:RDF>
  </metadata>
  <g
     id="layer1"
     inkscape:label="Layer 1"
     inkscape:groupmode="layer">
    <g
       style="font-size:32px;font-style:normal;font-variant:normal;font-weight:normal;font-stretch:normal;line-height:125%;letter-spacing:0px;word-spacing:0px;fill:#000000;fill-opacity:1;stroke:none;filter:url(#filter4024);font-family:Ubuntu;-inkscape-font-specification:Ubuntu"
       id="text3035">
      <path
         d="m 197.26264,166.20933 c -3.40802,0 -6.33602,-0.48 -8.784,-1.44 -2.44802,-1.008 -4.48801,-2.39999 -6.12,-4.176 -1.58401,-1.77599 -2.76001,-3.86399 -3.528,-6.264 -0.76801,-2.39998 -1.15201,-5.03998 -1.152,-7.92 l 0,-31.176 9.144,0 0,30.312 c -2e-5,2.25602 0.23998,4.20002 0.72,5.832 0.52798,1.58402 1.24798,2.88001 2.16,3.888 0.95998,1.00801 2.06398,1.75201 3.312,2.232 1.29598,0.48001 2.73597,0.72001 4.32,0.72 1.58397,1e-5 3.02397,-0.23999 4.32,-0.72 1.29597,-0.47999 2.39997,-1.22399 3.312,-2.232 0.95996,-1.00799 1.67996,-2.30398 2.16,-3.888 0.52796,-1.63198 0.79196,-3.57598 0.792,-5.832 l 0,-30.312 9.144,0 0,31.176 c -5e-5,2.88002 -0.40805,5.52002 -1.224,7.92 -0.76805,2.40001 -1.96804,4.48801 -3.6,6.264 -1.58404,1.77601 -3.62404,3.168 -6.12,4.176 -2.49603,0.96 -5.44803,1.44 -8.856,1.44"
         style="font-size:72px;font-weight:500;fill:#000000;-inkscape-font-specification:Ubuntu Medium"
         id="path43071" />
      <path
         d="m 253.21564,146.48133 c -3e-5,-3.88797 -0.88803,-6.91197 -2.664,-9.072 -1.72803,-2.15997 -4.53603,-3.23997 -8.424,-3.24 -0.81602,3e-5 -1.68002,0.048 -2.592,0.144 -0.86402,0.048 -1.72802,0.19203 -2.592,0.432 l 0,21.528 c 0.76798,0.52801 1.77598,1.03201 3.024,1.512 1.29598,0.43201 2.66398,0.64801 4.104,0.648 3.16797,10e-6 5.47197,-1.07999 6.912,-3.24 1.48797,-2.15998 2.23197,-5.06398 2.232,-8.712 m 8.928,-0.144 c -4e-5,2.88002 -0.38404,5.52002 -1.152,7.92 -0.72004,2.40001 -1.77604,4.46401 -3.168,6.192 -1.39204,1.72801 -3.14403,3.07201 -5.256,4.032 -2.06403,0.96 -4.41603,1.44 -7.056,1.44 -1.77602,0 -3.40802,-0.216 -4.896,-0.648 -1.48802,-0.432 -2.71202,-0.912 -3.672,-1.44 l 0,14.616 -8.712,0 0,-49.752 c 1.77599,-0.47996 3.95999,-0.93596 6.552,-1.368 2.59198,-0.43196 5.32798,-0.64796 8.208,-0.648 2.97597,4e-5 5.63997,0.45604 7.992,1.368 2.35197,0.91204 4.34396,2.23204 5.976,3.96 1.67996,1.68003 2.95196,3.74403 3.816,6.192 0.91196,2.40003 1.36796,5.11203 1.368,8.136"
         style="font-size:72px;font-weight:500;fill:#000000;-inkscape-font-specification:Ubuntu Medium"
         id="path43073" />
      <path
         d="m 277.96226,145.32933 c -1e-5,3.69602 0.79199,6.40802 2.376,8.136 1.63199,1.68001 3.71998,2.52001 6.264,2.52 1.39198,1e-5 2.68798,-0.19199 3.888,-0.576 1.24798,-0.38399 2.25598,-0.83999 3.024,-1.368 l 0,-19.512 c -0.62402,-0.14397 -1.39202,-0.26397 -2.304,-0.36 -0.91202,-0.14397 -2.06402,-0.21597 -3.456,-0.216 -3.16802,3e-5 -5.59201,1.05603 -7.272,3.168 -1.68001,2.06403 -2.52001,4.80003 -2.52,8.208 m 24.264,15.984 c -3e-5,6 -1.53603,10.392 -4.608,13.176 -3.02403,2.78399 -7.68002,4.17599 -13.968,4.176 -2.30401,-1e-5 -4.56001,-0.19201 -6.768,-0.576 -2.16001,-0.38401 -4.128,-0.88801 -5.904,-1.512 l 1.584,-7.416 c 1.48799,0.624 3.16799,1.128 5.04,1.512 1.91999,0.384 3.98399,0.576 6.192,0.576 3.50398,0 5.99998,-0.72 7.488,-2.16 1.48798,-1.44 2.23197,-3.576 2.232,-6.408 l 0,-1.44 c -0.86402,0.43201 -2.01602,0.86401 -3.456,1.296 -1.39202,0.43201 -3.00002,0.64801 -4.824,0.648 -2.40001,1e-5 -4.60801,-0.38399 -6.624,-1.152 -1.96801,-0.76799 -3.67201,-1.89599 -5.112,-3.384 -1.392,-1.48799 -2.496,-3.33599 -3.312,-5.544 -0.768,-2.25598 -1.152,-4.84798 -1.152,-7.776 0,-2.73597 0.408,-5.25597 1.224,-7.56 0.864,-2.30397 2.088,-4.27196 3.672,-5.904 1.63199,-1.63196 3.59999,-2.90396 5.904,-3.816 2.30399,-0.91196 4.91998,-1.36796 7.848,-1.368 2.83198,4e-5 5.51997,0.21604 8.064,0.648 2.54397,0.43204 4.70397,0.88804 6.48,1.368 l 0,32.616"
         style="font-size:72px;font-weight:500;fill:#000000;-inkscape-font-specification:Ubuntu Medium"
         id="path43075" />
      <path
         d="m 334.76576,135.32133 c -0.72002,-0.23997 -1.72802,-0.47997 -3.024,-0.72 -1.24802,-0.28797 -2.71202,-0.43197 -4.392,-0.432 -0.96002,3e-5 -1.99202,0.096 -3.096,0.288 -1.05601,0.19203 -1.80001,0.36003 -2.232,0.504 l 0,30.168 -8.712,0 0,-35.856 c 1.68,-0.62396 3.76799,-1.19996 6.264,-1.728 2.54399,-0.57596 5.35199,-0.86396 8.424,-0.864 0.57598,4e-5 1.24798,0.048 2.016,0.144 0.76798,0.048 1.53598,0.14404 2.304,0.288 0.76798,0.096 1.51198,0.24004 2.232,0.432 0.71997,0.14404 1.29597,0.28804 1.728,0.432 l -1.512,7.344"
         style="font-size:72px;font-weight:500;fill:#000000;-inkscape-font-specification:Ubuntu Medium"
         id="path43077" />
      <path
         d="m 355.52651,159.00933 c 2.68798,1e-5 4.72798,-0.14399 6.12,-0.432 l 0,-9.648 c -0.48002,-0.14398 -1.17602,-0.28798 -2.088,-0.432 -0.91202,-0.14398 -1.92002,-0.21598 -3.024,-0.216 -0.96002,2e-5 -1.94402,0.072 -2.952,0.216 -0.96001,0.14402 -1.84801,0.40802 -2.664,0.792 -0.76801,0.38402 -1.39201,0.93602 -1.872,1.656 -0.48001,0.67202 -0.72001,1.53602 -0.72,2.592 -10e-6,2.06401 0.64799,3.50401 1.944,4.32 1.29599,0.76801 3.04799,1.15201 5.256,1.152 m -0.72,-32.472 c 2.87998,4e-5 5.30398,0.36004 7.272,1.08 1.96798,0.72004 3.52797,1.72804 4.68,3.024 1.19997,1.29604 2.03997,2.88004 2.52,4.752 0.52797,1.82403 0.79197,3.84003 0.792,6.048 l 0,22.824 c -1.34403,0.288 -3.38403,0.624 -6.12,1.008 -2.68802,0.432 -5.73602,0.648 -9.144,0.648 -2.25601,0 -4.32001,-0.216 -6.192,-0.648 -1.87201,-0.432 -3.48001,-1.128 -4.824,-2.088 -1.296,-0.95999 -2.328,-2.20799 -3.096,-3.744 -0.72,-1.53599 -1.08,-3.43199 -1.08,-5.688 0,-2.15998 0.408,-3.98398 1.224,-5.472 0.864,-1.48798 2.016,-2.68798 3.456,-3.6 1.43999,-0.95998 3.09599,-1.63197 4.968,-2.016 1.91999,-0.43197 3.91199,-0.64797 5.976,-0.648 0.95998,3e-5 1.96798,0.072 3.024,0.216 1.05598,0.096 2.18398,0.28803 3.384,0.576 l 0,-1.44 c -2e-5,-1.00797 -0.12002,-1.96797 -0.36,-2.88 -0.24002,-0.91197 -0.67202,-1.70397 -1.296,-2.376 -0.57602,-0.71997 -1.36802,-1.27197 -2.376,-1.656 -0.96002,-0.38397 -2.18402,-0.57597 -3.672,-0.576 -2.01601,3e-5 -3.86401,0.14403 -5.544,0.432 -1.68001,0.28803 -3.04801,0.62403 -4.104,1.008 l -1.08,-7.056 c 1.10399,-0.38396 2.71199,-0.76796 4.824,-1.152 2.11199,-0.38396 4.36799,-0.57596 6.768,-0.576"
         style="font-size:72px;font-weight:500;fill:#000000;-inkscape-font-specification:Ubuntu Medium"
         id="path43079" />
      <path
         d="m 387.50914,146.19333 c -2e-5,3.84002 0.91198,6.86402 2.736,9.072 1.82398,2.16001 4.34398,3.24001 7.56,3.24 1.39197,1e-5 2.56797,-0.048 3.528,-0.144 1.00797,-0.14399 1.82397,-0.28799 2.448,-0.432 l 0,-21.6 c -0.76803,-0.52797 -1.80003,-1.00797 -3.096,-1.44 -1.24803,-0.47997 -2.59203,-0.71997 -4.032,-0.72 -3.16802,3e-5 -5.49602,1.08003 -6.984,3.24 -1.44002,2.16003 -2.16002,5.08803 -2.16,8.784 m 24.984,17.784 c -1.72804,0.528 -3.91204,1.008 -6.552,1.44 -2.59203,0.432 -5.32803,0.648 -8.208,0.648 -2.97602,0 -5.64002,-0.456 -7.992,-1.368 -2.35201,-0.912 -4.36801,-2.20799 -6.048,-3.888 -1.63201,-1.72799 -2.90401,-3.79199 -3.816,-6.192 -0.86401,-2.44798 -1.29601,-5.18398 -1.296,-8.208 -1e-5,-2.97597 0.35999,-5.66397 1.08,-8.064 0.76799,-2.44797 1.87199,-4.53597 3.312,-6.264 1.43999,-1.72796 3.19199,-3.04796 5.256,-3.96 2.06398,-0.95996 4.43998,-1.43996 7.128,-1.44 1.82398,4e-5 3.43197,0.21604 4.824,0.648 1.39197,0.43204 2.59197,0.91204 3.6,1.44 l 0,-18.072 8.712,-1.44 0,54.72"
         style="font-size:72px;font-weight:500;fill:#000000;-inkscape-font-specification:Ubuntu Medium"
         id="path43081" />
      <path
         d="m 432.34376,165.12933 -8.712,0 0,-37.656 8.712,0 0,37.656 m 0.936,-48.672 c -1e-5,1.63205 -0.52801,2.92805 -1.584,3.888 -1.05601,0.96005 -2.30401,1.44005 -3.744,1.44 -1.48801,5e-5 -2.76,-0.47995 -3.816,-1.44 -1.056,-0.95995 -1.584,-2.25595 -1.584,-3.888 0,-1.67995 0.528,-2.99994 1.584,-3.96 1.056,-0.95994 2.32799,-1.43994 3.816,-1.44 1.43999,6e-5 2.68799,0.48006 3.744,1.44 1.05599,0.96006 1.58399,2.28005 1.584,3.96"
         style="font-size:72px;font-weight:500;fill:#000000;-inkscape-font-specification:Ubuntu Medium"
         id="path43083" />
      <path
         d="m 443.38789,128.69733 c 1.67999,-0.47996 3.86399,-0.93596 6.552,-1.368 2.68798,-0.43196 5.66398,-0.64796 8.928,-0.648 3.07197,4e-5 5.63997,0.43204 7.704,1.296 2.06397,0.81604 3.69596,1.99204 4.896,3.528 1.24796,1.48804 2.11196,3.31203 2.592,5.472 0.52796,2.11203 0.79196,4.44003 0.792,6.984 l 0,21.168 -8.712,0 0,-19.8 c -3e-5,-2.01597 -0.14403,-3.71997 -0.432,-5.112 -0.24003,-1.43997 -0.67203,-2.59197 -1.296,-3.456 -0.57603,-0.91197 -1.39203,-1.55997 -2.448,-1.944 -1.00803,-0.43197 -2.25602,-0.64797 -3.744,-0.648 -1.10402,3e-5 -2.25602,0.072 -3.456,0.216 -1.20002,0.14403 -2.08802,0.26403 -2.664,0.36 l 0,30.384 -8.712,0 0,-36.432"
         style="font-size:72px;font-weight:500;fill:#000000;-inkscape-font-specification:Ubuntu Medium"
         id="path43085" />
      <path
         d="m 492.41539,145.32933 c -2e-5,3.69602 0.79198,6.40802 2.376,8.136 1.63198,1.68001 3.71998,2.52001 6.264,2.52 1.39197,1e-5 2.68797,-0.19199 3.888,-0.576 1.24797,-0.38399 2.25597,-0.83999 3.024,-1.368 l 0,-19.512 c -0.62403,-0.14397 -1.39203,-0.26397 -2.304,-0.36 -0.91203,-0.14397 -2.06403,-0.21597 -3.456,-0.216 -3.16802,3e-5 -5.59202,1.05603 -7.272,3.168 -1.68002,2.06403 -2.52002,4.80003 -2.52,8.208 m 24.264,15.984 c -4e-5,6 -1.53604,10.392 -4.608,13.176 -3.02403,2.78399 -7.68003,4.17599 -13.968,4.176 -2.30402,-1e-5 -4.56002,-0.19201 -6.768,-0.576 -2.16001,-0.38401 -4.12801,-0.88801 -5.904,-1.512 l 1.584,-7.416 c 1.48799,0.624 3.16799,1.128 5.04,1.512 1.91998,0.384 3.98398,0.576 6.192,0.576 3.50398,0 5.99997,-0.72 7.488,-2.16 1.48797,-1.44 2.23197,-3.576 2.232,-6.408 l 0,-1.44 c -0.86403,0.43201 -2.01603,0.86401 -3.456,1.296 -1.39203,0.43201 -3.00002,0.64801 -4.824,0.648 -2.40002,1e-5 -4.60802,-0.38399 -6.624,-1.152 -1.96801,-0.76799 -3.67201,-1.89599 -5.112,-3.384 -1.39201,-1.48799 -2.49601,-3.33599 -3.312,-5.544 -0.76801,-2.25598 -1.15201,-4.84798 -1.152,-7.776 -1e-5,-2.73597 0.40799,-5.25597 1.224,-7.56 0.86399,-2.30397 2.08799,-4.27196 3.672,-5.904 1.63199,-1.63196 3.59999,-2.90396 5.904,-3.816 2.30398,-0.91196 4.91998,-1.36796 7.848,-1.368 2.83197,4e-5 5.51997,0.21604 8.064,0.648 2.54396,0.43204 4.70396,0.88804 6.48,1.368 l 0,32.616"
         style="font-size:72px;font-weight:500;fill:#000000;-inkscape-font-specification:Ubuntu Medium"
         id="path43087" />
      <path
         d="m 579.70526,115.23333 0,7.848 -15.336,0 0,42.048 -9.144,0 0,-42.048 -15.336,0 0,-7.848 39.816,0"
         style="font-size:72px;font-weight:500;fill:#000000;-inkscape-font-specification:Ubuntu Medium"
         id="path43089" />
      <path
         d="m 616.24076,146.26533 c -4e-5,2.97602 -0.43204,5.68802 -1.296,8.136 -0.86404,2.44801 -2.08803,4.53601 -3.672,6.264 -1.58403,1.72801 -3.50403,3.072 -5.76,4.032 -2.20802,0.96 -4.65602,1.44 -7.344,1.44 -2.68802,0 -5.13601,-0.48 -7.344,-1.44 -2.20801,-0.96 -4.10401,-2.30399 -5.688,-4.032 -1.584,-1.72799 -2.832,-3.81599 -3.744,-6.264 -0.864,-2.44798 -1.296,-5.15998 -1.296,-8.136 0,-2.97597 0.432,-5.66397 1.296,-8.064 0.912,-2.44797 2.16,-4.53597 3.744,-6.264 1.63199,-1.72796 3.55199,-3.04796 5.76,-3.96 2.20799,-0.95996 4.63198,-1.43996 7.272,-1.44 2.63998,4e-5 5.06398,0.48004 7.272,1.44 2.25597,0.91204 4.17597,2.23204 5.76,3.96 1.58397,1.72803 2.80796,3.81603 3.672,6.264 0.91196,2.40003 1.36796,5.08803 1.368,8.064 m -8.928,0 c -3e-5,-3.74397 -0.81603,-6.69597 -2.448,-8.856 -1.58402,-2.20797 -3.81602,-3.31197 -6.696,-3.312 -2.88002,3e-5 -5.13601,1.10403 -6.768,3.312 -1.58401,2.16003 -2.37601,5.11203 -2.376,8.856 -10e-6,3.79202 0.79199,6.79202 2.376,9 1.63199,2.20801 3.88798,3.31201 6.768,3.312 2.87998,1e-5 5.11198,-1.10399 6.696,-3.312 1.63197,-2.20798 2.44797,-5.20798 2.448,-9"
         style="font-size:72px;font-weight:500;fill:#000000;-inkscape-font-specification:Ubuntu Medium"
         id="path43091" />
    </g>
    <g
       style="font-size:32px;font-style:normal;font-variant:normal;font-weight:normal;font-stretch:normal;line-height:125%;letter-spacing:0px;word-spacing:0px;fill:#000000;fill-opacity:1;stroke:none;filter:url(#filter4038);font-family:Ubuntu;-inkscape-font-specification:Ubuntu"
       id="text3039">
      <path
         d="m 408.22007,455.81946 c -3e-5,1.72804 -0.36003,3.43204 -1.08,5.112 -0.72003,1.63203 -1.65603,3.24003 -2.808,4.824 -1.10403,1.53603 -2.37602,3.04803 -3.816,4.536 -1.44002,1.44002 -2.88002,2.85602 -4.32,4.248 -0.76802,0.72002 -1.63202,1.58402 -2.592,2.592 -0.96002,1.00802 -1.87201,2.01602 -2.736,3.024 -0.86401,1.00801 -1.60801,1.99201 -2.232,2.952 -0.62401,0.91201 -0.96001,1.68001 -1.008,2.304 l 22.176,0 0,7.344 -31.752,0 c -0.048,-0.384 -0.072,-0.84 -0.072,-1.368 0,-0.576 0,-1.00799 0,-1.296 0,-2.30399 0.36,-4.41599 1.08,-6.336 0.768,-1.96799 1.752,-3.79198 2.952,-5.472 1.19999,-1.67998 2.54399,-3.26398 4.032,-4.752 1.48799,-1.48798 2.97599,-2.95198 4.464,-4.392 1.15199,-1.10397 2.25598,-2.18397 3.312,-3.24 1.05598,-1.05597 1.96798,-2.08797 2.736,-3.096 0.81598,-1.05597 1.46398,-2.11197 1.944,-3.168 0.47998,-1.10396 0.71998,-2.23196 0.72,-3.384 -2e-5,-2.49596 -0.72002,-4.27196 -2.16,-5.328 -1.44002,-1.05595 -3.19202,-1.58395 -5.256,-1.584 -1.34401,5e-5 -2.59201,0.19205 -3.744,0.576 -1.15201,0.38405 -2.18401,0.84004 -3.096,1.368 -0.86401,0.52804 -1.63201,1.08004 -2.304,1.656 -0.672,0.52804 -1.176,0.96004 -1.512,1.296 l -4.32,-6.12 c 2.016,-1.91995 4.368,-3.45595 7.056,-4.608 2.73599,-1.19995 5.66399,-1.79995 8.784,-1.8 5.32798,5e-5 9.23998,1.27205 11.736,3.816 2.54397,2.49605 3.81597,5.92804 3.816,10.296"
         style="font-size:72px;font-weight:500;fill:#000000;-inkscape-font-specification:Ubuntu Medium"
         id="path43094" />
    </g>
    <path
       inkscape:connector-curvature="0"
       style="fill:#060606;fill-opacity:1;stroke:none;filter:url(#filter3416)"
       d="m 549.14503,211.30346 0,67 c -8.31239,-7.70867 -18.91192,-12.34375 -30.46875,-12.34375 -26.67331,0 -48.3125,24.61839 -48.3125,54.96875 0,30.35035 21.63918,54.96876 48.3125,54.96875 11.55684,0 22.15634,-4.63508 30.46875,-12.34375 l 0,9.53125 30.46875,0 0,-161.78125 -30.46875,0 z m 47.46875,0 0,161.78125 30.5,0 0,-161.78125 -30.5,0 z m -427.6875,18.125 -71.906247,6.59375 -55.71875,34.15625 17,-0.28125 c -0.175346,0.32943 -0.344172,0.64615 -0.5625,1.03125 -0.233778,1.09261 -0.212186,2.20068 -0.21875,3.3125 0.0017,1.0823 0.330105,2.14589 0.46875,3.21875 0.119562,0.57729 0.122461,1.13436 0.0625,1.6875 0.187561,-0.2042 0.358246,-0.3888 0.5625,-0.625 -0.0183,-0.0172 -0.04447,-0.0118 -0.0625,-0.0312 0.05113,-0.0107 0.08112,0.005 0.125,0 0.02719,-0.0316 0.03502,-0.0616 0.0625,-0.0937 0.03833,-0.0449 0.05165,-0.001 0.09375,0.0625 0.211987,0.0113 0.316577,0.10449 0.3125,0.28125 0.238507,-0.0227 0.468827,-0.16579 0.625,-0.4375 -0.203083,0.35921 -0.228645,0.40185 -0.40625,0.71875 0.048,0.0432 0.09142,0.0664 0.15625,0.125 0.198915,0.19093 0.383319,0.37024 0.5625,0.5625 0.631431,-1.15861 1.077543,-2.30716 1.28125,-3.875 0.197486,-1.07564 0.222504,-2.13601 0.03125,-3.21875 -0.143321,-0.91345 -0.387677,-1.82404 -0.40625,-2.75 l 22.4375,-0.375 -3.1875,17.46875 4.46875,1.1875 c -1.694607,4.06272 -2.723381,8.57619 -3.25,13.4375 l 0.5,0 0,71.5 30.468747,0 0,-71.5 1.15625,0 c 0.95644,-1.84625 2.03196,-3.5141 3.21875,-4.96875 l 5.875,1.5625 0.0937,0.1875 0.0937,-0.125 0.53125,0.125 -0.1875,-0.5625 6.03125,-7.59375 c 5.67223,0.27757 10.75409,4.4593 14.25,10.96875 l 0,71.90625 30.5,0 0,-71.5 0.46875,0 c 3.6216,-6.97631 9.02909,-11.40625 15.0625,-11.40625 6.0334,0 11.44846,4.42994 15.0625,11.40625 l 1.0625,0 0,71.5 30.46875,0 0,-71.5 0.59375,0 c -2.1605,-19.94383 -12.76341,-34.16032 -43.1875,-34.5 -1.29772,-0.0145 -2.62932,-0.005 -4,0.0312 -11.61264,0 -22.22994,4.95478 -30.4375,13.15625 -4.17188,-4.16878 -8.98744,-7.51445 -14.21875,-9.78125 l 3.09375,-3.90625 -11.375,-13.9375 32.34375,-23.21875 z M 60.082533,279.70971 c -0.66381,1.21803 -1.505829,2.43597 -2.46875,4.09375 -0.468344,0.3964 -1.047456,0.35613 -1.5625,0.125 0.175551,0.14705 0.387652,0.26538 0.40625,0.28125 0.640353,0.61063 1.115373,1.09397 1.15625,2 0.03057,1.14328 -0.274414,2.24712 -0.4375,3.375 -0.258777,1.22301 -0.153452,2.41561 0.0625,3.625 0.19137,1.08268 0.250931,2.15339 0.28125,3.25 -0.06786,1.13937 -0.520338,2.17531 -0.84375,3.25 -0.56503,0.85473 -0.757702,1.84503 -0.875,2.84375 -0.219052,1.14238 0.134065,2.13924 0.53125,3.1875 0.519909,0.86356 0.903447,1.76851 1.53125,2.5625 0.596492,0.69208 1.099487,1.42432 1.5,2.25 0.470549,0.94057 0.237866,1.88424 0.125,2.875 -0.121455,1.12269 -0.136255,2.27812 -0.15625,3.40625 -0.01265,1.0758 0.303377,2.08982 0.4375,3.15625 -0.0014,1.09011 0.240259,2.13084 0.46875,3.1875 0.0059,0.0399 -0.006,0.085 0,0.125 0.419539,-0.41702 1.147452,-0.37876 1.6875,-0.375 0.260975,-0.048 0.352492,-0.0135 0.5625,-0.1875 0.10025,-0.0831 0.343035,-0.39584 0.28125,-0.28125 -1.072399,1.98904 -1.681568,3.09778 -2.1875,4.0625 0.03626,0.21785 0.08616,0.43645 0.125,0.65625 0.04097,0.2352 0.03329,0.48224 0.0625,0.71875 1.936414,-1.04459 2.807553,-4.11005 3.15625,-6.3125 0.02984,-1.0971 -0.0845,-2.20772 -0.3125,-3.28125 -0.231569,-1.04211 -0.324447,-2.09219 -0.40625,-3.15625 -0.157919,-1.03758 -0.450964,-2.0352 -0.375,-3.09375 0.0308,-1.1219 0.08328,-2.26002 0.21875,-3.375 0.110119,-1.07798 0.101914,-2.07793 -0.4375,-3.0625 -0.443503,-0.83426 -0.986824,-1.59077 -1.59375,-2.3125 -0.549968,-0.77629 -0.941359,-1.65601 -1.375,-2.5 -0.354096,-0.99644 -0.508219,-1.94679 -0.28125,-3 0.182197,-0.97819 0.566179,-1.87567 0.96875,-2.78125 0.35954,-1.0894 0.630839,-2.18464 0.625,-3.34375 -0.04484,-1.11592 -0.105355,-2.24417 -0.3125,-3.34375 -0.188895,-1.16544 -0.162869,-2.30407 0.0625,-3.46875 0.186081,-1.16245 0.481354,-2.34778 0.3125,-3.53125 -0.154668,-0.66968 -0.50035,-1.15593 -0.9375,-1.625 z m 0.6875,48.1875 c -0.324104,0.17484 -0.676369,0.26399 -1.0625,0.3125 -0.113373,0.22626 -0.151129,0.25633 -0.03125,0 -0.136461,0.0157 -0.261673,0.0335 -0.40625,0.0312 -0.346822,-0.0498 -0.682885,-0.0457 -0.9375,0.125 -0.13616,0.22855 -0.268026,0.46018 -0.40625,0.6875 -0.06458,0.10621 0.07632,-0.22938 0.125,-0.34375 0.06837,-0.16062 0.16991,-0.26909 0.28125,-0.34375 0.72108,-1.21037 1.416917,-2.43814 2.125,-3.65625 -0.04396,-0.46835 -0.149249,-0.94625 -0.21875,-1.40625 -0.05993,0.0596 -0.110687,0.13867 -0.15625,0.21875 -1.038425,1.82518 -2.021601,3.65876 -3.03125,5.5 -0.231313,1.02404 0.08306,2.02604 0.25,3.03125 0.164482,1.11082 0.198036,2.22299 0.21875,3.34375 -0.09416,1.14887 0.08695,2.22732 0.3125,3.34375 0.07397,1.03988 0.35072,2.02432 0.59375,3.03125 0.279943,0.91608 0.503511,1.8942 0.875,2.78125 0.108097,0.3787 0.444003,0.8306 0.3125,1.25 -0.0267,0.0852 -0.191406,0.12957 -0.1875,0.21875 0.01472,0.33611 0.253168,0.59265 0.375,0.90625 0.417703,1.09343 0.566447,2.27895 0.65625,3.4375 0.115354,1.21232 0.09479,2.36966 -0.125,3.5625 l 3.53125,-4.71875 c 0.172657,-1.22057 0.139029,-2.46106 0.03125,-3.6875 -0.125962,-1.19332 -0.329334,-2.37064 -0.75,-3.5 -0.218059,-0.78045 -0.05024,-1.63532 -0.53125,-2.375 -0.295961,-0.90337 -0.593969,-1.82515 -0.8125,-2.75 -0.255275,-0.99498 -0.41411,-1.98383 -0.5625,-3 -0.217328,-1.08937 -0.282707,-2.16927 -0.25,-3.28125 -0.02556,-0.90356 -0.10791,-1.82142 -0.21875,-2.71875 z m -0.3125,-3.1875 c 0.02676,0.28512 0.03765,0.55978 0.03125,0.84375 -0.0064,-0.40105 0.03221,-0.81599 0.1875,-1.21875 -0.07299,0.12487 -0.146059,0.24995 -0.21875,0.375 z m 0.03125,0.84375 c -0.0059,0.26367 -0.04431,0.52125 -0.09375,0.78125 -0.169461,0.67313 -0.479752,1.42992 -0.6875,1.875 0.110785,-0.22109 0.371203,-0.72685 0.875,-1.6875 -0.05497,-0.33029 -0.0885,-0.64053 -0.09375,-0.96875 z m -1.125,-46.53125 c -0.07957,-0.0715 -0.143821,-0.17898 -0.21875,-0.25 -0.03248,0.48703 -0.719561,1.43867 -1.46875,2.375 -0.493479,2.32752 -2.067614,4.5753 1.6875,-2.125 z m -1.6875,2.125 c 0.04162,-0.1963 0.105751,-0.40602 0.125,-0.59375 0.09479,-0.48114 0.198805,-0.93397 0.25,-1.40625 -3.127311,3.40486 -3.968619,2.61563 -2.5625,4.4375 0.153439,0.11726 0.322903,0.2268 0.5,0.3125 -0.183654,-0.15713 -0.336685,-0.33327 -0.3125,-0.375 0.06234,-0.10756 1.084853,-1.23125 2,-2.375 z m 1.46875,-2.375 c 5.39e-4,-0.008 -1.8e-4,-0.0234 0,-0.0312 -0.02149,0.002 -0.04078,3.9e-4 -0.0625,0 0.01626,0.0157 0.04733,0.0169 0.0625,0.0312 z m -0.0625,-0.0312 c -0.03219,-0.031 -0.05478,-0.0553 -0.09375,-0.0937 -0.04201,-0.0415 -0.114153,-0.12361 -0.15625,-0.1875 -0.04463,-0.002 -0.1004,0.0248 -0.15625,0.0312 -0.01601,0.0186 -0.04659,0.0129 -0.0625,0.0312 0.153739,0.14474 0.311541,0.21597 0.46875,0.21875 z m 238.593747,-13.375 c -30.33617,1e-5 -54.96875,25.12026 -54.96875,56.125 0,31.00475 24.63256,56.15625 54.96875,56.15625 30.33619,1e-5 54.9375,-25.1515 54.9375,-56.15625 0,-31.00474 -24.60133,-56.125 -54.9375,-56.125 z m 113.71875,0 c -30.33616,1e-5 -54.96875,25.12026 -54.96875,56.125 -1e-5,31.00475 24.63256,56.15625 54.96875,56.15625 30.3362,1e-5 54.9375,-25.1515 54.9375,-56.15625 10e-6,-31.00474 -24.60133,-56.125 -54.9375,-56.125 z m 280.21875,0 c -31.30684,1e-5 -56.75,25.77988 -56.75,57.59375 10e-6,31.81388 25.44315,57.625 56.75,57.625 24.5166,1e-5 45.40735,-15.82396 53.3125,-37.96875 l -31.65625,0 c -4.68372,9.44879 -12.62284,15.6875 -21.65625,15.6875 -12.08774,0 -22.30022,-11.15315 -25.28125,-26.25 l 37.5625,0 0,-1.75 43.9375,0 c 0.30181,-2.40763 0.46875,-4.85303 0.46875,-7.34375 -10e-6,-31.81387 -25.38067,-57.59375 -56.6875,-57.59375 z m -631.749997,4.5 c -0.332606,0.14062 -0.631342,0.31748 -0.875,0.59375 -0.100046,0.1686 -0.212042,0.33165 -0.3125,0.5 -0.07137,0.11961 0.1107,-0.2588 0.1875,-0.375 0.03417,-0.0517 0.08622,-0.081 0.125,-0.125 0.111875,-0.18852 0.232294,-0.37372 0.34375,-0.5625 l 0.53125,-0.0312 z m 465.468747,17.25 c 11.37468,0 20.94908,10.37013 23.8125,24.4375 l 0,17.53125 c -2.86343,14.06737 -12.43786,24.40625 -23.8125,24.40625 -13.63249,-10e-6 -24.6875,-14.87512 -24.6875,-33.1875 10e-6,-18.31237 11.05498,-33.1875 24.6875,-33.1875 z m 166.28125,0.53125 c 11.46608,1e-5 21.18431,9.99825 24.6875,23.90625 l -49.4375,0 c 3.51939,-13.90799 13.28392,-23.90625 24.75,-23.90625 z m -393.9375,1.125 c 12.71412,0 23.03125,14.65618 23.03125,32.71875 10e-6,18.06258 -10.31714,32.75 -23.03125,32.75 -12.71411,-10e-6 -23.0625,-14.68742 -23.0625,-32.75 -1e-5,-18.06256 10.34839,-32.71875 23.0625,-32.71875 z m 113.71875,0 c 12.71413,0 23.03125,14.65618 23.03125,32.71875 -1e-5,18.06258 -10.31714,32.75 -23.03125,32.75 -12.7141,-10e-6 -23.03125,-14.68742 -23.03125,-32.75 10e-6,-18.06256 10.31714,-32.71875 23.03125,-32.71875 z"
       id="path3414" />
    <path
       inkscape:connector-curvature="0"
       sodipodi:nodetypes="ccssscccccccccccsssccsssccssccsccsccccccccscccccsccccccscccccccssccccccsssccsssc"
       style="fill:#fb9c02;fill-opacity:1;stroke:none"
       d="m 542.66343,206.15328 0,67 c -8.3124,-7.70868 -18.91192,-12.34375 -30.46875,-12.34375 -26.67332,0 -48.3125,24.61839 -48.3125,54.96875 -1e-5,30.35035 21.63918,54.96876 48.3125,54.96875 11.55683,0 22.15634,-4.63508 30.46875,-12.34375 l 0,9.53125 30.46875,0 0,-161.78125 -30.46875,0 z m 47.46875,0 0,161.78125 30.5,0 0,-161.78125 -30.5,0 z m -298.9375,54.0625 c -30.33618,0 -54.96875,25.12026 -54.96875,56.125 1e-5,31.00475 24.63256,56.15625 54.96875,56.15625 30.33618,1e-5 54.9375,-25.1515 54.9375,-56.15625 -1e-5,-31.00474 -24.60133,-56.125 -54.9375,-56.125 z m 113.71875,0 c -30.33617,0 -54.96875,25.12026 -54.96875,56.125 -2e-5,31.00475 24.63256,56.15625 54.96875,56.15625 30.33619,1e-5 54.9375,-25.1515 54.9375,-56.15625 0,-31.00474 -24.60133,-56.125 -54.9375,-56.125 z m 280.21875,0 c -31.30685,0 -56.75,25.77988 -56.75,57.59375 0,31.81388 25.44315,57.625 56.75,57.625 24.51659,1e-5 45.40735,-15.82396 53.3125,-37.96875 l -31.65625,0 c -4.68373,9.44879 -12.62284,15.6875 -21.65625,15.6875 -12.08775,0 -22.30022,-11.15315 -25.28125,-26.25 l 80.9138,-0.5776 c 0.3018,-2.40763 1.05495,-6.02543 1.05495,-8.51615 -2e-5,-31.81387 -25.38067,-57.59375 -56.6875,-57.59375 z m -566.96875,1.71875 c -30.424089,0.33968 -41.027009,14.55616 -43.187499,34.5 l 0.5,0 0,71.5 30.468749,0 0,-71.5 1.15625,0 c 3.61404,-6.97631 9.02909,-11.40625 15.0625,-11.40625 5.91375,0 11.22498,4.26177 14.84375,11 l 0,71.90625 30.5,0 0,-71.5 0.46875,0 c 3.62161,-6.97631 9.02909,-11.40625 15.0625,-11.40625 6.03341,0 11.44846,4.42994 15.0625,11.40625 l 1.0625,0 0,71.5 30.46875,0 0,-71.5 0.59375,0 c -2.16049,-19.94384 -12.76341,-34.16032 -43.1875,-34.5 -1.29771,-0.0145 -2.62932,-0.005 -4,0.0312 -11.61263,0 -22.22994,4.95477 -30.4375,13.15625 -8.20756,-8.20148 -18.82488,-13.15625 -30.4375,-13.15625 -1.37068,-0.0366 -2.70229,-0.0457 -4,-0.0312 z m 400.6875,20.03125 c 11.37467,0 20.94908,10.37013 23.8125,24.4375 l 0,17.53125 c -2.86344,14.06737 -12.43786,24.40625 -23.8125,24.40625 -13.6325,-10e-6 -24.6875,-14.87512 -24.6875,-33.1875 0,-18.31238 11.05498,-33.1875 24.6875,-33.1875 z m 166.28125,0.53125 c 11.46607,0 21.18431,9.99825 24.6875,23.90625 l -49.4375,0 c 3.51938,-13.908 13.28392,-23.90625 24.75,-23.90625 z m -393.9375,1.125 c 12.71411,0 23.03125,14.65618 23.03125,32.71875 0,18.06258 -10.31714,32.75 -23.03125,32.75 -12.71412,-10e-6 -23.0625,-14.68742 -23.0625,-32.75 0,-18.06256 10.34839,-32.71875 23.0625,-32.71875 z m 113.71875,0 c 12.71412,0 23.03125,14.65618 23.03125,32.71875 -2e-5,18.06258 -10.31714,32.75 -23.03125,32.75 -12.71411,-10e-6 -23.03125,-14.68742 -23.03125,-32.75 0,-18.06256 10.31714,-32.71875 23.03125,-32.71875 z"
       id="path4152" />
    <g
       id="g4159"
       clip-path="url(#clipPathd)"
       style="opacity:0.6"
       transform="translate(23.656129,-231.08892)">
      <g
         id="g4161">
        <path
           inkscape:connector-curvature="0"
           sodipodi:nodetypes="ccssscccccccccccsssccsssccssccsccsccccccccscccccsccccccscccccccssccccccsssccsssc"
           transform="translate(-0.1900293,428.7894)"
           style="fill:none;stroke:#ffffff;stroke-width:10;stroke-opacity:1;filter:url(#filterK)"
           d="m 519.375,8.375 0,67 M 488.90625,63.03125 c -26.67332,-2e-6 -48.3125,24.61839 -48.3125,54.96875 m 0,0 c -10e-6,30.35035 21.63918,54.96876 48.3125,54.96875 M 519.375,160.625 l 0,9.53125 M 549.84375,8.375 l -30.46875,0 m 47.46875,0 0,161.78125 m 30.5,-161.78125 -30.5,0 m -298.9375,54.0625 c -30.33618,2e-6 -54.96875,25.12026 -54.96875,56.125 m 0,0 c 1e-5,31.00475 24.63256,56.15625 54.96875,56.15625 M 381.625,62.4375 c -30.33617,2e-6 -54.96875,25.12026 -54.96875,56.125 m 0,0 c -2e-5,31.00475 24.63256,56.15625 54.96875,56.15625 M 661.84375,62.4375 c -31.30685,2e-6 -56.75,25.77988 -56.75,57.59375 m 0,0 c 0,31.81388 25.44315,57.625 56.75,57.625 m 53.3125,-37.96875 -31.65625,0 m 0,0 c -4.68373,9.44879 -12.62284,15.6875 -21.65625,15.6875 M 94.875,64.15625 c -30.42409,0.33968 -41.02701,14.55616 -43.1875,34.5 m 0.5,0 0,71.5 M 98.875,87.25 c 5.91375,0 11.22498,4.261773 14.84375,11 m 0,0 0,71.90625 M 159.75,87.25 c 6.03341,10e-7 11.44846,4.42994 15.0625,11.40625 m 1.0625,0 0,71.5 m -12.125,-106 c -1.29771,-0.01449 -2.62932,-0.0054 -4,0.03125 m 0,0 c -11.61263,10e-7 -22.22994,4.954774 -30.4375,13.15625 m 366.25,6.84375 c 11.37467,-3e-6 20.94908,10.370131 23.8125,24.4375 m 0,0 0,17.53125 m 0,0 c -2.86344,14.06737 -12.43786,24.40625 -23.8125,24.40625 M 661.84375,84.71875 c 11.46607,2e-6 21.18431,9.99825 24.6875,23.90625 m 0,0 -49.4375,0 M 267.90625,85.84375 c 12.71411,-2e-6 23.03125,14.65618 23.03125,32.71875 m 0,0 c 0,18.06258 -10.31714,32.75 -23.03125,32.75 M 381.625,85.84375 c 12.71412,-2e-6 23.03125,14.65618 23.03125,32.71875 m 0,0 c -2e-5,18.06258 -10.31714,32.75 -23.03125,32.75"
           id="path4163" />
        <path
           inkscape:connector-curvature="0"
           sodipodi:nodetypes="ccssscccccccccccsssccsssccssccsccsccccccccscccccsccccccscccccccssccccccsssccsssc"
           transform="translate(-0.1900293,428.7894)"
           style="fill:none;stroke:#000000;stroke-width:10;stroke-opacity:1;filter:url(#filterK)"
           d="M 519.375,75.375 C 511.0626,67.666325 500.46308,63.031246 488.90625,63.03125 m 0,109.9375 c 11.55683,0 22.15634,-4.63508 30.46875,-12.34375 m 0,9.53125 30.46875,0 m 0,0 0,-161.78125 m 17,161.78125 30.5,0 m 0,0 0,-161.78125 m -329.4375,166.34375 c 30.33618,1e-5 54.9375,-25.1515 54.9375,-56.15625 m 0,0 c -10e-6,-31.004741 -24.60133,-56.125 -54.9375,-56.125 M 381.625,174.71875 c 30.33619,1e-5 54.9375,-25.1515 54.9375,-56.15625 m 0,0 c 0,-31.004741 -24.60133,-56.125 -54.9375,-56.125 m 280.21875,115.21875 c 24.51659,1e-5 45.40735,-15.82396 53.3125,-37.96875 m -53.3125,15.6875 c -12.08775,0 -22.30022,-11.15315 -25.28125,-26.25 m 0,0 80.9138,-0.5776 m 0,0 c 0.3018,-2.40763 1.05495,-6.02543 1.05495,-8.51615 m 0,0 C 718.53123,88.217379 693.15058,62.4375 661.84375,62.4375 M 51.6875,98.65625 l 0.5,0 m 0,71.5 30.46875,0 m 0,0 0,-71.5 m 0,0 1.15625,0 m 0,0 C 87.42654,91.67994 92.84159,87.25 98.875,87.25 m 14.84375,82.90625 30.5,0 m 0,0 0,-71.5 m 0,0 0.46875,0 m 0,0 C 148.30911,91.679939 153.71659,87.25 159.75,87.25 m 15.0625,11.40625 1.0625,0 m 0,71.5 30.46875,0 m 0,0 0,-71.5 m 0,0 0.59375,0 m 0,0 c -2.16049,-19.943838 -12.76341,-34.160324 -43.1875,-34.5 m -34.4375,13.1875 C 121.10494,69.142273 110.48762,64.1875 98.875,64.1875 m 0,0 c -1.37068,-0.03664 -2.70229,-0.04574 -4,-0.03125 M 495.5625,150.5625 C 481.93,150.56249 470.875,135.68738 470.875,117.375 m 0,0 c 0,-18.312377 11.05498,-33.1875 24.6875,-33.1875 m 141.53125,24.4375 c 3.51938,-13.907998 13.28392,-23.90625 24.75,-23.90625 m -393.9375,66.59375 c -12.71412,-1e-5 -23.0625,-14.68742 -23.0625,-32.75 m 0,0 c 0,-18.06256 10.34839,-32.71875 23.0625,-32.71875 M 381.625,151.3125 c -12.71411,-1e-5 -23.03125,-14.68742 -23.03125,-32.75 m 0,0 c 0,-18.06256 10.31714,-32.71875 23.03125,-32.71875"
           id="path4165" />
      </g>
    </g>
    <path
       inkscape:connector-curvature="0"
       style="fill:url(#linearGradient4217);fill-opacity:1;fill-rule:evenodd;stroke:none"
       d="m 117.37632,295.35387 25.16804,-31.75966 -13.18326,-16.17946 -24.5688,19.17565 12.58402,28.76347 z"
       id="path3424" />
    <path
       inkscape:connector-curvature="0"
       style="fill:url(#linearGradient4214);fill-opacity:1;fill-rule:evenodd;stroke:none"
       d="m 78.425785,264.19344 -3.595434,19.77489 43.145209,11.38554 -10.7863,-31.75966 -28.763475,0.59923 z"
       id="path3422"
       sodipodi:nodetypes="ccccc" />
    <path
       inkscape:connector-curvature="0"
       style="fill:url(#radialGradient4211);fill-opacity:1;fill-rule:evenodd;stroke:none"
       d="m 35.879814,267.18964 72.507926,-1.19848 55.12998,-39.54978 -71.908677,6.59163 -55.729229,34.15663 z"
       id="path3420" />
    <path
       inkscape:connector-curvature="0"
       style="fill:#000000;fill-opacity:1;stroke:none"
       id="path3428"
       d="m 90.555448,250.33243 c -1.902095,0.96165 -3.813246,1.93563 -5.561402,3.16025 -0.270515,0.18445 -0.549283,0.35734 -0.811546,0.55335 -0.875685,0.65445 -0.385022,0.39743 -1.228842,0.98201 -0.4986,0.34542 -1.052533,0.55855 -1.569152,0.87162 -1.027223,0.61171 -2.147053,1.02629 -3.229672,1.52387 -1.206876,0.3873 -2.312289,0.99186 -3.454004,1.5287 -1.119016,0.50739 -2.250703,0.90051 -3.462649,1.11125 -1.098705,0.38133 -2.232399,0.64061 -3.31876,1.05731 -1.256822,0.45937 -2.545904,0.83162 -3.7956,1.30897 -1.279001,0.39837 -2.399316,1.15534 -3.583169,1.76253 -1.038686,0.47031 -2.175774,0.74983 -3.176786,1.29745 -0.810478,0.40204 -1.693352,0.6954 -2.456872,1.18321 -0.515195,0.2811 -1.111495,0.37859 -1.456646,0.90079 -0.0768,0.11619 -0.256316,0.49429 -0.184947,0.37468 0.926296,-1.55236 1.833566,-3.11598 2.75035,-4.67397 -0.418134,1.00899 -0.409042,2.12295 -0.431439,3.19754 -0.06352,1.06588 0.244649,2.0973 0.408411,3.14103 0.191255,1.08273 0.176075,2.14637 -0.02141,3.22202 -0.417861,3.21607 -1.89671,4.74337 -3.775581,7.97808 -0.651174,0.55113 -1.511035,0.24859 -2.124797,-0.22042 -1.508172,-1.95409 -0.467057,-0.85226 3.24861,-5.20322 0.07666,-0.0898 0.164712,0.16918 0.248728,0.25211 0.214546,0.21177 0.300965,0.28442 0.53809,0.49875 0.684208,0.65673 1.299361,1.26569 1.517426,2.20986 0.168854,1.18346 -0.137197,2.3546 -0.323277,3.51706 -0.225369,1.16468 -0.249716,2.30872 -0.06082,3.47417 0.207146,1.09957 0.280828,2.21564 0.325671,3.33156 0.0058,1.15911 -0.292866,2.26613 -0.652405,3.35553 -0.402571,0.90558 -0.767443,1.79386 -0.949639,2.77206 -0.226968,1.05321 -0.07877,2.01815 0.275331,3.01459 0.43364,0.84399 0.839966,1.70693 1.389935,2.48322 0.606927,0.72173 1.138353,1.47037 1.581857,2.30463 0.539416,0.98457 0.532166,1.99866 0.422048,3.07664 -0.135468,1.11498 -0.185344,2.23696 -0.216144,3.35886 -0.07596,1.05855 0.220889,2.08604 0.378809,3.12362 0.08181,1.06406 0.187705,2.10652 0.419275,3.14863 0.227999,1.07353 0.347051,2.17112 0.317208,3.26822 -0.429166,2.71071 -1.654455,6.71894 -4.676253,6.67213 -0.498485,-0.0716 -0.996962,-0.0799 -1.221675,0.44801 -0.04868,0.11438 -0.171108,0.46359 -0.106525,0.35738 0.945377,-1.55476 1.836552,-3.14183 2.754828,-4.71275 -0.366201,0.94977 -0.148996,1.88746 0.0207,2.84769 0.196401,1.12755 0.243763,2.27227 0.276065,3.41398 -0.03271,1.11198 0.03016,2.19548 0.247488,3.28485 0.148389,1.01617 0.310675,2.01545 0.565951,3.01043 0.21853,0.92484 0.514097,1.83394 0.810059,2.73731 0.481008,0.73968 0.313995,1.61495 0.532055,2.3954 0.420664,1.12937 0.628329,2.30989 0.754292,3.50321 0.107781,1.22644 0.150907,2.45212 -0.02175,3.67269 l -3.554461,4.7301 c 0.219791,-1.19284 0.257624,-2.37203 0.142271,-3.58435 -0.0898,-1.15855 -0.232482,-2.31849 -0.650184,-3.41192 -0.121833,-0.3136 -0.376854,-0.59413 -0.391576,-0.93024 -0.0039,-0.0892 0.152968,-0.11336 0.179671,-0.19852 0.131503,-0.4194 -0.195892,-0.87426 -0.303988,-1.25296 -0.371489,-0.88705 -0.584514,-1.86266 -0.864456,-2.77874 -0.24303,-1.00693 -0.513305,-1.98759 -0.587271,-3.02747 -0.225555,-1.11642 -0.420246,-2.20409 -0.326084,-3.35296 -0.02071,-1.12076 -0.04645,-2.24512 -0.210929,-3.35594 -0.166945,-1.00521 -0.494938,-1.98984 -0.263624,-3.01388 1.00965,-1.84125 1.990524,-3.69858 3.02895,-5.52376 0.364501,-0.64066 1.236533,-0.57738 1.853731,-0.57308 0.260975,-0.048 0.358304,-0.0301 0.568312,-0.20413 0.100248,-0.0831 0.328054,-0.40033 0.266269,-0.28574 -5.108196,9.47445 -2.823006,5.74538 -2.356702,3.89315 0.197777,-1.03999 -0.0099,-2.11965 -0.163565,-3.15659 -0.22849,-1.05666 -0.456374,-2.08776 -0.454926,-3.17787 -0.134124,-1.06643 -0.464699,-2.10915 -0.452051,-3.18495 0.02,-1.12813 0.04798,-2.25767 0.169433,-3.38036 0.112866,-0.99076 0.330522,-1.94102 -0.140026,-2.88159 -0.400513,-0.82568 -0.903321,-1.54939 -1.499812,-2.24147 -0.627803,-0.79399 -1.009378,-1.72394 -1.529286,-2.5875 -0.397184,-1.04826 -0.737423,-2.04364 -0.518372,-3.18602 0.117297,-0.99872 0.310766,-1.97245 0.875797,-2.82718 0.323412,-1.07469 0.749861,-2.10151 0.81772,-3.24087 -0.03032,-1.09662 -0.07359,-2.19645 -0.264956,-3.27913 -0.215951,-1.20939 -0.340035,-2.37773 -0.08126,-3.60074 0.163087,-1.12788 0.47475,-2.2425 0.444186,-3.38578 -0.04088,-0.90603 -0.52366,-1.37317 -1.164012,-1.9838 -0.04048,-0.0345 -0.807103,-0.62192 -0.757172,-0.70807 0.14058,-0.24255 5.136806,-5.50558 2.868687,-5.02854 0.422781,0.45582 0.925102,0.29703 1.209308,-0.19743 -4.859026,8.59449 -2.218785,4.79424 -1.960508,2.27537 0.205809,-1.04468 0.403607,-2.03972 0.181964,-3.10988 -0.138645,-1.07287 -0.477497,-2.11824 -0.479156,-3.20053 0.0066,-1.11183 -0.0042,-2.23683 0.229601,-3.32944 2.744245,-4.84054 1.778972,-5.04099 5.004276,-6.67336 0.826477,-0.39421 1.648499,-0.79492 2.486805,-1.16355 1.046566,-0.43341 2.118037,-0.80905 3.1457,-1.28532 1.187916,-0.64005 2.358382,-1.33483 3.657015,-1.73184 1.263908,-0.43733 2.533916,-0.85684 3.793906,-1.30552 1.1214,-0.38683 2.259828,-0.72866 3.407863,-1.02679 1.160359,-0.24738 2.251188,-0.67482 3.324727,-1.17784 1.131077,-0.55949 2.284206,-1.05497 3.461732,-1.50824 1.085172,-0.47885 2.163039,-0.96754 3.188694,-1.56718 1.263216,-0.67147 2.361766,-1.55276 3.539945,-2.36009 1.821723,-1.17715 3.746518,-2.18446 5.6619,-3.19963 l -2.445517,5.40528 z" />
  </g>
</svg>
