<?xml version="1.0" encoding="UTF-8" standalone="no"?>
<!-- Created with Inkscape (http://www.inkscape.org/) -->

<svg
   xmlns:dc="http://purl.org/dc/elements/1.1/"
   xmlns:cc="http://creativecommons.org/ns#"
   xmlns:rdf="http://www.w3.org/1999/02/22-rdf-syntax-ns#"
   xmlns:svg="http://www.w3.org/2000/svg"
   xmlns="http://www.w3.org/2000/svg"
   xmlns:sodipodi="http://sodipodi.sourceforge.net/DTD/sodipodi-0.dtd"
   xmlns:inkscape="http://www.inkscape.org/namespaces/inkscape"
   width="800px"
   height="600px"
   id="svg35948"
   version="1.1"
   inkscape:version="0.48.2 r9819"
   sodipodi:docname="slide16.svg">
  <defs
     id="defs35950">
    <filter
       id="filter35983"
       inkscape:label="Drop shadow"
       width="1.5"
       height="1.5"
       x="-.25"
       y="-.25">
      <feGaussianBlur
         id="feGaussianBlur35985"
         in="SourceAlpha"
         stdDeviation="2.2"
         result="blur" />
      <feColorMatrix
         id="feColorMatrix35987"
         result="bluralpha"
         type="matrix"
         values="1 0 0 0 0 0 1 0 0 0 0 0 1 0 0 0 0 0 0.5 0 " />
      <feOffset
         id="feOffset35989"
         in="bluralpha"
         dx="3.4"
         dy="4"
         result="offsetBlur" />
      <feMerge
         id="feMerge35991">
        <feMergeNode
           id="feMergeNode35993"
           in="offsetBlur" />
        <feMergeNode
           id="feMergeNode35995"
           in="SourceGraphic" />
      </feMerge>
    </filter>
    <filter
       id="filter36438"
       inkscape:label="Drop shadow"
       width="1.5"
       height="1.5"
       x="-.25"
       y="-.25">
      <feGaussianBlur
         id="feGaussianBlur36440"
         in="SourceAlpha"
         stdDeviation="2.2"
         result="blur" />
      <feColorMatrix
         id="feColorMatrix36442"
         result="bluralpha"
         type="matrix"
         values="1 0 0 0 0 0 1 0 0 0 0 0 1 0 0 0 0 0 0.5 0 " />
      <feOffset
         id="feOffset36444"
         in="bluralpha"
         dx="3.4"
         dy="4"
         result="offsetBlur" />
      <feMerge
         id="feMerge36446">
        <feMergeNode
           id="feMergeNode36448"
           in="offsetBlur" />
        <feMergeNode
           id="feMergeNode36450"
           in="SourceGraphic" />
      </feMerge>
    </filter>
    <filter
       id="filter37173"
       inkscape:label="Drop shadow"
       width="1.5"
       height="1.5"
       x="-.25"
       y="-.25">
      <feGaussianBlur
         id="feGaussianBlur37175"
         in="SourceAlpha"
         stdDeviation="2.2"
         result="blur" />
      <feColorMatrix
         id="feColorMatrix37177"
         result="bluralpha"
         type="matrix"
         values="1 0 0 0 0 0 1 0 0 0 0 0 1 0 0 0 0 0 0.5 0 " />
      <feOffset
         id="feOffset37179"
         in="bluralpha"
         dx="3.4"
         dy="4"
         result="offsetBlur" />
      <feMerge
         id="feMerge37181">
        <feMergeNode
           id="feMergeNode37183"
           in="offsetBlur" />
        <feMergeNode
           id="feMergeNode37185"
           in="SourceGraphic" />
      </feMerge>
    </filter>
    <filter
       id="filter37573"
       inkscape:label="Drop shadow"
       width="1.5"
       height="1.5"
       x="-.25"
       y="-.25">
      <feGaussianBlur
         id="feGaussianBlur37575"
         in="SourceAlpha"
         stdDeviation="2.2"
         result="blur" />
      <feColorMatrix
         id="feColorMatrix37577"
         result="bluralpha"
         type="matrix"
         values="1 0 0 0 0 0 1 0 0 0 0 0 1 0 0 0 0 0 0.5 0 " />
      <feOffset
         id="feOffset37579"
         in="bluralpha"
         dx="3.4"
         dy="4"
         result="offsetBlur" />
      <feMerge
         id="feMerge37581">
        <feMergeNode
           id="feMergeNode37583"
           in="offsetBlur" />
        <feMergeNode
           id="feMergeNode37585"
           in="SourceGraphic" />
      </feMerge>
    </filter>
    <filter
       id="filter39185"
       inkscape:label="Drop shadow"
       width="1.5"
       height="1.5"
       x="-.25"
       y="-.25">
      <feGaussianBlur
         id="feGaussianBlur39187"
         in="SourceAlpha"
         stdDeviation="2.2"
         result="blur" />
      <feColorMatrix
         id="feColorMatrix39189"
         result="bluralpha"
         type="matrix"
         values="1 0 0 0 0 0 1 0 0 0 0 0 1 0 0 0 0 0 0.5 0 " />
      <feOffset
         id="feOffset39191"
         in="bluralpha"
         dx="3.4"
         dy="4"
         result="offsetBlur" />
      <feMerge
         id="feMerge39193">
        <feMergeNode
           id="feMergeNode39195"
           in="offsetBlur" />
        <feMergeNode
           id="feMergeNode39197"
           in="SourceGraphic" />
      </feMerge>
    </filter>
  </defs>
  <sodipodi:namedview
     id="base"
     pagecolor="#ef9302"
     bordercolor="#666666"
     borderopacity="1.0"
     inkscape:pageopacity="1"
     inkscape:pageshadow="2"
     inkscape:zoom="0.84852814"
     inkscape:cx="420.08244"
     inkscape:cy="318.44054"
     inkscape:current-layer="layer1"
     inkscape:document-units="px"
     showgrid="false"
     inkscape:window-width="1280"
     inkscape:window-height="1004"
     inkscape:window-x="1278"
     inkscape:window-y="-3"
     inkscape:window-maximized="1" />
  <metadata
     id="metadata35953">
    <rdf:RDF>
      <cc:Work
         rdf:about="">
        <dc:format>image/svg+xml</dc:format>
        <dc:type
           rdf:resource="http://purl.org/dc/dcmitype/StillImage" />
        <dc:title />
      </cc:Work>
    </rdf:RDF>
  </metadata>
  <g
     id="layer1"
     inkscape:label="Layer 1"
     inkscape:groupmode="layer">
    <g
       style="font-size:18px;font-style:normal;font-variant:normal;font-weight:normal;font-stretch:normal;line-height:125%;letter-spacing:0px;word-spacing:0px;fill:#000000;fill-opacity:1;stroke:none;filter:url(#filter37573);font-family:Ubuntu;-inkscape-font-specification:Ubuntu"
       id="text37557">
      <path
         d="m 253.80106,314.48573 c -2.01604,0 -4.22404,-0.048 -6.624,-0.144 -2.30403,-0.096 -4.65603,-0.24 -7.056,-0.432 -2.30402,-0.192 -4.60802,-0.432 -6.912,-0.72 -2.30402,-0.28799 -4.41601,-0.67199 -6.336,-1.152 l 0,-96.768 c 1.91999,-0.4799 4.03198,-0.8639 6.336,-1.152 2.30398,-0.2879 4.60798,-0.5279 6.912,-0.72 2.39997,-0.19189 4.75197,-0.33589 7.056,-0.432 2.30396,-0.0959 4.46396,-0.14389 6.48,-0.144 5.75995,1.1e-4 11.13595,0.4321 16.128,1.296 5.08794,0.8641 9.45593,2.3521 13.104,4.464 3.74393,2.0161 6.67192,4.70409 8.784,8.064 2.11192,3.36009 3.16792,7.48808 3.168,12.384 -8e-5,5.47207 -1.29608,9.98407 -3.888,13.536 -2.59207,3.45606 -6.04807,6.04806 -10.368,7.776 5.85593,1.72806 10.51192,4.46405 13.968,8.208 3.45592,3.74405 5.18391,9.02404 5.184,15.84 -9e-5,9.98402 -3.69608,17.52002 -11.088,22.608 -7.29607,4.99201 -18.91206,7.488 -34.848,7.488 m -13.104,-47.376 0,35.136 c 1.05597,0.096 2.30397,0.19202 3.744,0.288 1.24797,0.096 2.68797,0.19202 4.32,0.288 1.72796,2e-5 3.69596,2e-5 5.904,0 4.12796,2e-5 8.01595,-0.23998 11.664,-0.72 3.74394,-0.57598 7.00794,-1.53598 9.792,-2.88 2.78394,-1.34398 4.99193,-3.21598 6.624,-5.616 1.72793,-2.39997 2.59193,-5.42397 2.592,-9.072 -7e-5,-3.26396 -0.62407,-5.99996 -1.872,-8.208 -1.24807,-2.30396 -3.07207,-4.12795 -5.472,-5.472 -2.30406,-1.34395 -5.08806,-2.30395 -8.352,-2.88 -3.26405,-0.57595 -6.91205,-0.86395 -10.944,-0.864 l -18,0 m 0,-11.232 14.688,0 c 3.45596,6e-5 6.71995,-0.23994 9.792,-0.72 3.07195,-0.47994 5.71194,-1.34394 7.92,-2.592 2.30394,-1.24793 4.07994,-2.87993 5.328,-4.896 1.34393,-2.01593 2.01593,-4.55992 2.016,-7.632 -7e-5,-2.87992 -0.67207,-5.27992 -2.016,-7.2 -1.34406,-2.01591 -3.21606,-3.59991 -5.616,-4.752 -2.30406,-1.24791 -5.04005,-2.15991 -8.208,-2.736 -3.16805,-0.57591 -6.52804,-0.86391 -10.08,-0.864 -3.55204,9e-5 -6.33603,0.0481 -8.352,0.144 -2.01603,0.0961 -3.84003,0.24009 -5.472,0.432 l 0,30.816"
         style="font-size:144px"
         id="path6515" />
      <path
         d="m 346.18831,237.15773 c 1.15196,8e-5 2.44796,0.0961 3.888,0.288 1.53595,0.0961 3.02395,0.28808 4.464,0.576 1.43995,0.19208 2.73595,0.43208 3.888,0.72 1.24795,0.19208 2.15995,0.38408 2.736,0.576 l -2.304,11.664 c -1.05605,-0.38393 -2.83205,-0.81593 -5.328,-1.296 -2.40004,-0.57593 -5.52004,-0.86393 -9.36,-0.864 -2.49604,7e-5 -4.99203,0.28807 -7.488,0.864 -2.40003,0.48007 -3.98403,0.81607 -4.752,1.008 l 0,62.928 -13.392,0 0,-71.712 c 3.16798,-1.15192 7.10398,-2.20792 11.808,-3.168 4.70397,-1.05592 9.98397,-1.58392 15.84,-1.584"
         style="font-size:144px"
         id="path6517" />
      <path
         d="m 370.05181,276.32573 c -10e-6,-6.62395 0.95999,-12.38395 2.88,-17.28 1.91999,-4.99194 4.46398,-9.11993 7.632,-12.384 3.16798,-3.26393 6.81597,-5.71192 10.944,-7.344 4.12797,-1.63192 8.35196,-2.44792 12.672,-2.448 10.07995,8e-5 17.80794,3.16808 23.184,9.504 5.37593,6.24007 8.06393,15.79206 8.064,28.656 -7e-5,0.57604 -7e-5,1.34404 0,2.304 -7e-5,0.86404 -0.0481,1.68004 -0.144,2.448 l -51.264,0 c 0.57598,7.77603 2.83198,13.68002 6.768,17.712 3.93597,4.03202 10.07996,6.04801 18.432,6.048 4.70395,1e-5 8.63994,-0.38398 11.808,-1.152 3.26394,-0.86398 5.71194,-1.67998 7.344,-2.448 l 1.872,11.232 c -1.63207,0.86401 -4.51206,1.77601 -8.64,2.736 -4.03206,0.96 -8.64005,1.44 -13.824,1.44 -6.52804,0 -12.19203,-0.96 -16.992,-2.88 -4.70402,-2.01599 -8.59202,-4.75199 -11.664,-8.208 -3.07201,-3.45598 -5.37601,-7.53598 -6.912,-12.24 -1.44001,-4.79997 -2.16001,-10.03196 -2.16,-15.696 m 51.408,-7.344 c 0.0959,-6.04794 -1.44006,-10.99194 -4.608,-14.832 -3.07205,-3.93593 -7.34405,-5.90393 -12.816,-5.904 -3.07204,7e-5 -5.80804,0.62407 -8.208,1.872 -2.30403,1.15207 -4.27203,2.68807 -5.904,4.608 -1.63203,1.92006 -2.92802,4.12806 -3.888,6.624 -0.86402,2.49605 -1.44002,5.04005 -1.728,7.632 l 37.152,0"
         style="font-size:144px"
         id="path6519" />
      <path
         d="m 480.00931,303.97373 c 3.16796,1e-5 5.95196,-0.048 8.352,-0.144 2.49595,-0.19199 4.55995,-0.47999 6.192,-0.864 l 0,-22.32 c -0.96005,-0.47996 -2.54405,-0.86396 -4.752,-1.152 -2.11205,-0.38396 -4.70404,-0.57596 -7.776,-0.576 -2.01604,4e-5 -4.17604,0.14404 -6.48,0.432 -2.20803,0.28804 -4.27203,0.91204 -6.192,1.872 -1.82402,0.86404 -3.36002,2.11203 -4.608,3.744 -1.24802,1.53603 -1.87202,3.60003 -1.872,6.192 -2e-5,4.80002 1.53598,8.16002 4.608,10.08 3.07197,1.82402 7.24797,2.73601 12.528,2.736 m -1.152,-67.104 c 5.37596,8e-5 9.88795,0.72008 13.536,2.16 3.74395,1.34408 6.71994,3.31208 8.928,5.904 2.30394,2.49607 3.93594,5.52007 4.896,9.072 0.95994,3.45606 1.43993,7.29606 1.44,11.52 l 0,46.8 c -1.15206,0.19201 -2.78406,0.48001 -4.896,0.864 -2.01606,0.288 -4.32006,0.576 -6.912,0.864 -2.59205,0.288 -5.42405,0.528 -8.496,0.72 -2.97604,0.288 -5.95204,0.432 -8.928,0.432 -4.22403,0 -8.11203,-0.432 -11.664,-1.296 -3.55202,-0.86399 -6.62402,-2.20799 -9.216,-4.032 -2.59201,-1.91999 -4.60801,-4.41599 -6.048,-7.488 -1.44001,-3.07198 -2.16001,-6.76798 -2.16,-11.088 -10e-6,-4.12797 0.81599,-7.67997 2.448,-10.656 1.72799,-2.97596 4.03199,-5.37596 6.912,-7.2 2.87998,-1.82395 6.23998,-3.16795 10.08,-4.032 3.83997,-0.86395 7.87197,-1.29595 12.096,-1.296 1.34396,5e-5 2.73596,0.096 4.176,0.288 1.43996,0.096 2.78395,0.28805 4.032,0.576 1.34395,0.19205 2.49595,0.38405 3.456,0.576 0.95995,0.19205 1.63195,0.33605 2.016,0.432 l 0,-3.744 c -5e-5,-2.20795 -0.24005,-4.36794 -0.72,-6.48 -0.48005,-2.20794 -1.34405,-4.12794 -2.592,-5.76 -1.24805,-1.72793 -2.97605,-3.07193 -5.184,-4.032 -2.11204,-1.05593 -4.89604,-1.58393 -8.352,-1.584 -4.41603,7e-5 -8.30403,0.33607 -11.664,1.008 -3.26402,0.57607 -5.71202,1.20007 -7.344,1.872 l -1.584,-11.088 c 1.72798,-0.76792 4.60798,-1.48792 8.64,-2.16 4.03197,-0.76792 8.39997,-1.15192 13.104,-1.152"
         style="font-size:144px"
         id="path6521" />
      <path
         d="m 556.83106,272.43773 c 2.87996,2.20804 5.90395,4.94404 9.072,8.208 3.26395,3.26403 6.43195,6.81603 9.504,10.656 3.16794,3.74402 6.14394,7.58402 8.928,11.52 2.78393,3.84001 5.13593,7.44001 7.056,10.8 l -15.696,0 c -2.01606,-3.35999 -4.36805,-6.76799 -7.056,-10.224 -2.59205,-3.55198 -5.32805,-6.91198 -8.208,-10.08 -2.88004,-3.26397 -5.80804,-6.23997 -8.784,-8.928 -2.97603,-2.68796 -5.80803,-4.94396 -8.496,-6.768 l 0,36 -13.392,0 0,-109.44 13.392,-2.304 0,68.256 c 2.30397,-2.30395 4.84797,-4.84795 7.632,-7.632 2.78396,-2.78394 5.51996,-5.61594 8.208,-8.496 2.68796,-2.87993 5.23195,-5.61593 7.632,-8.208 2.39995,-2.68792 4.46395,-5.03992 6.192,-7.056 l 15.696,0 c -2.20807,2.40008 -4.60807,5.04007 -7.2,7.92 -2.59206,2.88007 -5.28006,5.80807 -8.064,8.784 -2.78405,2.88006 -5.61605,5.80806 -8.496,8.784 -2.78404,2.88005 -5.42404,5.61605 -7.92,8.208"
         style="font-size:144px"
         id="path6523" />
    </g>
    <text
       xml:space="preserve"
       style="font-size:18px;font-style:normal;font-variant:normal;font-weight:normal;font-stretch:normal;line-height:125%;letter-spacing:0px;word-spacing:0px;fill:#000000;fill-opacity:1;stroke:none;font-family:Ubuntu;-inkscape-font-specification:Ubuntu"
       x="75.424721"
       y="242.91109"
       id="text37587"
       sodipodi:linespacing="125%"><tspan
         sodipodi:role="line"
         id="tspan37589" /></text>
    <text
       xml:space="preserve"
       style="font-size:18px;font-style:normal;font-variant:normal;font-weight:normal;font-stretch:normal;line-height:125%;letter-spacing:0px;word-spacing:0px;fill:#000000;fill-opacity:1;stroke:none;font-family:Ubuntu;-inkscape-font-specification:Ubuntu"
       x="108.42304"
       y="239.37553"
       id="text39168"
       sodipodi:linespacing="125%"><tspan
         sodipodi:role="line"
         x="108.42304"
         y="239.37553"
         id="tspan39174" /></text>
    <g
       style="font-size:18px;font-style:normal;font-variant:normal;font-weight:normal;font-stretch:normal;line-height:125%;letter-spacing:0px;word-spacing:0px;fill:#000000;fill-opacity:1;stroke:none;font-family:Ubuntu;-inkscape-font-specification:Ubuntu"
       id="text40496">
      <path
         d="m 310.66946,362.45125 c 0,1.53601 0.222,2.958 0.666,4.266 0.444,1.308 1.098,2.52 1.962,3.636 l -1.188,0.81 c -0.936,-1.14 -1.692,-2.448 -2.268,-3.924 -0.564,-1.488 -0.846,-3.08399 -0.846,-4.788 0,-1.70399 0.282,-3.29399 0.846,-4.77 0.576,-1.48799 1.332,-2.80199 2.268,-3.942 l 1.188,0.81 c -0.864,1.11601 -1.518,2.32801 -1.962,3.636 -0.444,1.30801 -0.666,2.73001 -0.666,4.266"
         style=""
         id="path6526" />
      <path
         d="m 317.55699,366.59125 c 1.824,0 2.736,-0.624 2.736,-1.872 0,-0.38399 -0.084,-0.70799 -0.252,-0.972 -0.156,-0.27599 -0.372,-0.50999 -0.648,-0.702 -0.276,-0.20399 -0.594,-0.37799 -0.954,-0.522 -0.348,-0.14399 -0.72,-0.28799 -1.116,-0.432 -0.456,-0.15599 -0.888,-0.32999 -1.296,-0.522 -0.408,-0.20399 -0.762,-0.43799 -1.062,-0.702 -0.3,-0.27599 -0.54,-0.59999 -0.72,-0.972 -0.168,-0.37199 -0.252,-0.82199 -0.252,-1.35 0,-1.09199 0.372,-1.94399 1.116,-2.556 0.744,-0.61199 1.77,-0.91799 3.078,-0.918 0.756,10e-6 1.44,0.084 2.052,0.252 0.62399,0.15601 1.07999,0.33001 1.368,0.522 l -0.558,1.422 c -0.25201,-0.15599 -0.63,-0.30599 -1.134,-0.45 -0.492,-0.15599 -1.068,-0.23399 -1.728,-0.234 -0.336,10e-6 -0.648,0.036 -0.936,0.108 -0.288,0.072 -0.54,0.18001 -0.756,0.324 -0.216,0.14401 -0.39,0.33001 -0.522,0.558 -0.12,0.21601 -0.18,0.47401 -0.18,0.774 0,0.33601 0.066,0.61801 0.198,0.846 0.132,0.22801 0.318,0.43201 0.558,0.612 0.24,0.16801 0.516,0.32401 0.828,0.468 0.324,0.14401 0.678,0.28801 1.062,0.432 0.54,0.21601 1.032,0.43201 1.476,0.648 0.456,0.21601 0.84599,0.47401 1.17,0.774 0.33599,0.30001 0.59399,0.66001 0.774,1.08 0.17999,0.40801 0.26999,0.90601 0.27,1.494 -10e-6,1.092 -0.40201,1.932 -1.206,2.52 -0.792,0.588 -1.914,0.882 -3.366,0.882 -0.492,0 -0.948,-0.036 -1.368,-0.108 -0.408,-0.06 -0.774,-0.132 -1.098,-0.216 -0.324,-0.096 -0.606,-0.192 -0.846,-0.288 -0.228,-0.108 -0.408,-0.198 -0.54,-0.27 l 0.522,-1.44 c 0.276,0.156 0.696,0.33 1.26,0.522 0.564,0.192 1.254,0.288 2.07,0.288"
         style=""
         id="path6528" />
      <path
         d="m 323.59149,363.17125 c 0,-0.82799 0.12,-1.54799 0.36,-2.16 0.24,-0.62399 0.558,-1.13999 0.954,-1.548 0.396,-0.40799 0.852,-0.71399 1.368,-0.918 0.516,-0.20399 1.044,-0.30599 1.584,-0.306 1.26,10e-6 2.226,0.39601 2.898,1.188 0.67199,0.78001 1.00799,1.97401 1.008,3.582 -10e-6,0.072 -10e-6,0.16801 0,0.288 -10e-6,0.10801 -0.006,0.21001 -0.018,0.306 l -6.408,0 c 0.072,0.97201 0.354,1.71 0.846,2.214 0.492,0.504 1.26,0.756 2.304,0.756 0.588,0 1.08,-0.048 1.476,-0.144 0.40799,-0.108 0.71399,-0.21 0.918,-0.306 l 0.234,1.404 c -0.20401,0.108 -0.56401,0.222 -1.08,0.342 -0.504,0.12 -1.08,0.18 -1.728,0.18 -0.816,0 -1.524,-0.12 -2.124,-0.36 -0.588,-0.252 -1.074,-0.594 -1.458,-1.026 -0.384,-0.432 -0.672,-0.942 -0.864,-1.53 -0.18,-0.59999 -0.27,-1.25399 -0.27,-1.962 m 6.426,-0.918 c 0.012,-0.75599 -0.18,-1.37399 -0.576,-1.854 -0.384,-0.49199 -0.918,-0.73799 -1.602,-0.738 -0.384,1e-5 -0.726,0.078 -1.026,0.234 -0.288,0.14401 -0.534,0.33601 -0.738,0.576 -0.204,0.24001 -0.366,0.51601 -0.486,0.828 -0.108,0.31201 -0.18,0.63001 -0.216,0.954 l 4.644,0"
         style=""
         id="path6530" />
      <path
         d="m 333.64618,363.17125 c 0,-0.82799 0.12,-1.54799 0.36,-2.16 0.24,-0.62399 0.558,-1.13999 0.954,-1.548 0.396,-0.40799 0.852,-0.71399 1.368,-0.918 0.516,-0.20399 1.044,-0.30599 1.584,-0.306 1.25999,10e-6 2.22599,0.39601 2.898,1.188 0.67199,0.78001 1.00799,1.97401 1.008,3.582 -10e-6,0.072 -10e-6,0.16801 0,0.288 -10e-6,0.10801 -0.006,0.21001 -0.018,0.306 l -6.408,0 c 0.072,0.97201 0.354,1.71 0.846,2.214 0.492,0.504 1.26,0.756 2.304,0.756 0.58799,0 1.07999,-0.048 1.476,-0.144 0.40799,-0.108 0.71399,-0.21 0.918,-0.306 l 0.234,1.404 c -0.20401,0.108 -0.56401,0.222 -1.08,0.342 -0.50401,0.12 -1.08001,0.18 -1.728,0.18 -0.816,0 -1.524,-0.12 -2.124,-0.36 -0.588,-0.252 -1.074,-0.594 -1.458,-1.026 -0.384,-0.432 -0.672,-0.942 -0.864,-1.53 -0.18,-0.59999 -0.27,-1.25399 -0.27,-1.962 m 6.426,-0.918 c 0.012,-0.75599 -0.18001,-1.37399 -0.576,-1.854 -0.38401,-0.49199 -0.91801,-0.73799 -1.602,-0.738 -0.384,1e-5 -0.726,0.078 -1.026,0.234 -0.288,0.14401 -0.534,0.33601 -0.738,0.576 -0.204,0.24001 -0.366,0.51601 -0.486,0.828 -0.108,0.31201 -0.18,0.63001 -0.216,0.954 l 4.644,0"
         style=""
         id="path6532" />
      <path
         d="m 347.2733,369.57925 c 0.132,0.06 0.3,0.114 0.504,0.162 0.216,0.06 0.426,0.09 0.63,0.09 0.66,0 1.176,-0.15 1.548,-0.45 0.372,-0.288 0.708,-0.762 1.008,-1.422 -0.756,-1.44 -1.464,-2.964 -2.124,-4.572 -0.648,-1.61999 -1.188,-3.25799 -1.62,-4.914 l 1.8,0 c 0.132,0.54001 0.288,1.12201 0.468,1.746 0.192,0.62401 0.402,1.26601 0.63,1.926 0.228,0.66001 0.474,1.32001 0.738,1.98 0.264,0.66001 0.54,1.296 0.828,1.908 0.456,-1.25999 0.852,-2.50799 1.188,-3.744 0.336,-1.23599 0.654,-2.50799 0.954,-3.816 l 1.728,0 c -0.432,1.76401 -0.912,3.46201 -1.44,5.094 -0.528,1.62 -1.098,3.138 -1.71,4.554 -0.24,0.54 -0.492,1.002 -0.756,1.386 -0.252,0.396 -0.534,0.72 -0.846,0.972 -0.312,0.252 -0.666,0.438 -1.062,0.558 -0.384,0.12 -0.822,0.18 -1.314,0.18 -0.132,0 -0.27,-0.012 -0.414,-0.036 -0.144,-0.012 -0.288,-0.036 -0.432,-0.072 -0.132,-0.024 -0.258,-0.054 -0.378,-0.09 -0.108,-0.036 -0.186,-0.066 -0.234,-0.09 l 0.306,-1.35"
         style=""
         id="path6534" />
      <path
         d="m 365.56299,363.15325 c -1e-5,0.74401 -0.10801,1.41601 -0.324,2.016 -0.21601,0.6 -0.52201,1.116 -0.918,1.548 -0.38401,0.432 -0.84601,0.768 -1.386,1.008 -0.54,0.228 -1.128,0.342 -1.764,0.342 -0.636,0 -1.224,-0.114 -1.764,-0.342 -0.54,-0.24 -1.008,-0.576 -1.404,-1.008 -0.384,-0.432 -0.684,-0.948 -0.9,-1.548 -0.216,-0.59999 -0.324,-1.27199 -0.324,-2.016 0,-0.73199 0.108,-1.39799 0.324,-1.998 0.216,-0.61199 0.516,-1.13399 0.9,-1.566 0.396,-0.43199 0.864,-0.76199 1.404,-0.99 0.54,-0.23999 1.128,-0.35999 1.764,-0.36 0.636,10e-6 1.224,0.12001 1.764,0.36 0.53999,0.22801 1.00199,0.55801 1.386,0.99 0.39599,0.43201 0.70199,0.95401 0.918,1.566 0.21599,0.60001 0.32399,1.26601 0.324,1.998 m -1.746,0 c -10e-6,-1.05599 -0.24001,-1.88999 -0.72,-2.502 -0.468,-0.62399 -1.11,-0.93599 -1.926,-0.936 -0.816,10e-6 -1.464,0.31201 -1.944,0.936 -0.468,0.61201 -0.702,1.44601 -0.702,2.502 0,1.05601 0.234,1.896 0.702,2.52 0.48,0.612 1.128,0.918 1.944,0.918 0.816,0 1.458,-0.306 1.926,-0.918 0.47999,-0.624 0.71999,-1.46399 0.72,-2.52"
         style=""
         id="path6536" />
      <path
         d="m 375.37018,367.56325 c -0.38401,0.096 -0.89401,0.198 -1.53,0.306 -0.62401,0.108 -1.35001,0.162 -2.178,0.162 -0.72,0 -1.326,-0.102 -1.818,-0.306 -0.492,-0.216 -0.888,-0.516 -1.188,-0.9 -0.3,-0.384 -0.516,-0.834 -0.648,-1.35 -0.132,-0.528 -0.198,-1.10999 -0.198,-1.746 l 0,-5.256 1.674,0 0,4.896 c 0,1.14001 0.18,1.956 0.54,2.448 0.36,0.492 0.966,0.738 1.818,0.738 0.17999,0 0.36599,-0.006 0.558,-0.018 0.19199,-0.012 0.37199,-0.024 0.54,-0.036 0.16799,-0.024 0.31799,-0.042 0.45,-0.054 0.14399,-0.024 0.24599,-0.048 0.306,-0.072 l 0,-7.902 1.674,0 0,9.09"
         style=""
         id="path6538" />
      <path
         d="m 384.07655,367.83325 -1.674,0 0,-9.36 1.674,0 0,9.36 m -0.846,-11.052 c -0.3,10e-6 -0.558,-0.096 -0.774,-0.288 -0.204,-0.20399 -0.306,-0.47399 -0.306,-0.81 0,-0.33599 0.102,-0.59999 0.306,-0.792 0.216,-0.20398 0.474,-0.30598 0.774,-0.306 0.3,2e-5 0.552,0.10202 0.756,0.306 0.216,0.19201 0.324,0.45601 0.324,0.792 0,0.33601 -0.108,0.60601 -0.324,0.81 -0.204,0.19201 -0.456,0.28801 -0.756,0.288"
         style=""
         id="path6540" />
      <path
         d="m 386.97287,358.74325 c 0.384,-0.096 0.894,-0.19799 1.53,-0.306 0.63599,-0.10799 1.36799,-0.16199 2.196,-0.162 0.74399,10e-6 1.36199,0.10801 1.854,0.324 0.49199,0.20401 0.88199,0.49801 1.17,0.882 0.29999,0.37201 0.50999,0.82201 0.63,1.35 0.11999,0.52801 0.17999,1.11001 0.18,1.746 l 0,5.256 -1.674,0 0,-4.896 c -1e-5,-0.57599 -0.042,-1.06799 -0.126,-1.476 -0.072,-0.40799 -0.19801,-0.73799 -0.378,-0.99 -0.18001,-0.25199 -0.42001,-0.43199 -0.72,-0.54 -0.30001,-0.11999 -0.67201,-0.17999 -1.116,-0.18 -0.18001,10e-6 -0.36601,0.006 -0.558,0.018 -0.19201,0.012 -0.37801,0.03 -0.558,0.054 -0.16801,0.012 -0.32401,0.03 -0.468,0.054 -0.13201,0.024 -0.22801,0.042 -0.288,0.054 l 0,7.902 -1.674,0 0,-9.09"
         style=""
         id="path6542" />
      <path
         d="m 403.59924,360.16525 c 1.812,0.072 3.138,0.46801 3.978,1.188 0.85199,0.72001 1.27799,1.69801 1.278,2.934 -10e-6,0.552 -0.096,1.062 -0.288,1.53 -0.18001,0.468 -0.46201,0.87 -0.846,1.206 -0.372,0.336 -0.846,0.6 -1.422,0.792 -0.576,0.192 -1.26,0.288 -2.052,0.288 -0.312,0 -0.63,-0.024 -0.954,-0.072 -0.324,-0.048 -0.624,-0.108 -0.9,-0.18 -0.276,-0.072 -0.522,-0.144 -0.738,-0.216 -0.216,-0.072 -0.372,-0.132 -0.468,-0.18 l 0.324,-1.458 c 0.204,0.096 0.534,0.222 0.99,0.378 0.468,0.156 1.038,0.234 1.71,0.234 0.54,0 0.99,-0.06 1.35,-0.18 0.372,-0.12 0.672,-0.282 0.9,-0.486 0.228,-0.204 0.39,-0.438 0.486,-0.702 0.108,-0.276 0.162,-0.56399 0.162,-0.864 0,-0.45599 -0.078,-0.85799 -0.234,-1.206 -0.156,-0.35999 -0.432,-0.65999 -0.828,-0.9 -0.396,-0.23999 -0.924,-0.41999 -1.584,-0.54 -0.66,-0.13199 -1.494,-0.19799 -2.502,-0.198 0.072,-0.58799 0.126,-1.13999 0.162,-1.656 0.048,-0.51599 0.09,-1.01999 0.126,-1.512 0.036,-0.49199 0.066,-0.97799 0.09,-1.458 0.024,-0.49199 0.048,-1.00799 0.072,-1.548 l 6.012,0 0,1.422 -4.554,0 c -0.012,0.18001 -0.03,0.42601 -0.054,0.738 -0.024,0.30001 -0.048,0.61801 -0.072,0.954 -0.024,0.32401 -0.048,0.64201 -0.072,0.954 -0.024,0.31201 -0.048,0.55801 -0.072,0.738"
         style=""
         id="path6544" />
      <path
         d="m 415.76584,358.74325 c 0.38399,-0.096 0.88799,-0.19799 1.512,-0.306 0.63599,-0.10799 1.36799,-0.16199 2.196,-0.162 0.59999,10e-6 1.10399,0.084 1.512,0.252 0.40799,0.15601 0.74999,0.39001 1.026,0.702 0.084,-0.06 0.21599,-0.14399 0.396,-0.252 0.17999,-0.10799 0.40199,-0.20999 0.666,-0.306 0.26399,-0.10799 0.55799,-0.19799 0.882,-0.27 0.32399,-0.084 0.67199,-0.12599 1.044,-0.126 0.71998,10e-6 1.30798,0.10801 1.764,0.324 0.45598,0.20401 0.80998,0.49801 1.062,0.882 0.26398,0.38401 0.43798,0.84001 0.522,1.368 0.096,0.52801 0.14398,1.10401 0.144,1.728 l 0,5.256 -1.674,0 0,-4.896 c -2e-5,-0.55199 -0.03,-1.02599 -0.09,-1.422 -0.048,-0.39599 -0.15002,-0.72599 -0.306,-0.99 -0.14402,-0.26399 -0.34802,-0.45599 -0.612,-0.576 -0.25202,-0.13199 -0.58201,-0.19799 -0.99,-0.198 -0.56401,10e-6 -1.03201,0.078 -1.404,0.234 -0.36001,0.14401 -0.60601,0.27601 -0.738,0.396 0.096,0.31201 0.16799,0.65401 0.216,1.026 0.048,0.37201 0.072,0.76201 0.072,1.17 l 0,5.256 -1.674,0 0,-4.896 c -10e-6,-0.55199 -0.03,-1.02599 -0.09,-1.422 -0.06,-0.39599 -0.16801,-0.72599 -0.324,-0.99 -0.14401,-0.26399 -0.34801,-0.45599 -0.612,-0.576 -0.25201,-0.13199 -0.57601,-0.19799 -0.972,-0.198 -0.16801,10e-6 -0.34801,0.006 -0.54,0.018 -0.19201,0.012 -0.37801,0.03 -0.558,0.054 -0.16801,0.012 -0.32401,0.03 -0.468,0.054 -0.14401,0.024 -0.24001,0.042 -0.288,0.054 l 0,7.902 -1.674,0 0,-9.09"
         style=""
         id="path6546" />
      <path
         d="m 432.94374,367.83325 -1.674,0 0,-9.36 1.674,0 0,9.36 m -0.846,-11.052 c -0.3,10e-6 -0.558,-0.096 -0.774,-0.288 -0.204,-0.20399 -0.306,-0.47399 -0.306,-0.81 0,-0.33599 0.102,-0.59999 0.306,-0.792 0.216,-0.20398 0.474,-0.30598 0.774,-0.306 0.3,2e-5 0.552,0.10202 0.756,0.306 0.216,0.19201 0.324,0.45601 0.324,0.792 0,0.33601 -0.108,0.60601 -0.324,0.81 -0.204,0.19201 -0.456,0.28801 -0.756,0.288"
         style=""
         id="path6548" />
      <path
         d="m 435.84005,358.74325 c 0.384,-0.096 0.894,-0.19799 1.53,-0.306 0.636,-0.10799 1.368,-0.16199 2.196,-0.162 0.744,10e-6 1.362,0.10801 1.854,0.324 0.492,0.20401 0.882,0.49801 1.17,0.882 0.3,0.37201 0.51,0.82201 0.63,1.35 0.12,0.52801 0.18,1.11001 0.18,1.746 l 0,5.256 -1.674,0 0,-4.896 c 0,-0.57599 -0.042,-1.06799 -0.126,-1.476 -0.072,-0.40799 -0.198,-0.73799 -0.378,-0.99 -0.18,-0.25199 -0.42,-0.43199 -0.72,-0.54 -0.3,-0.11999 -0.672,-0.17999 -1.116,-0.18 -0.18,10e-6 -0.366,0.006 -0.558,0.018 -0.192,0.012 -0.378,0.03 -0.558,0.054 -0.168,0.012 -0.324,0.03 -0.468,0.054 -0.132,0.024 -0.228,0.042 -0.288,0.054 l 0,7.902 -1.674,0 0,-9.09"
         style=""
         id="path6550" />
      <path
         d="m 453.62799,367.56325 c -0.38401,0.096 -0.89401,0.198 -1.53,0.306 -0.624,0.108 -1.35,0.162 -2.178,0.162 -0.72,0 -1.326,-0.102 -1.818,-0.306 -0.492,-0.216 -0.888,-0.516 -1.188,-0.9 -0.3,-0.384 -0.516,-0.834 -0.648,-1.35 -0.132,-0.528 -0.198,-1.10999 -0.198,-1.746 l 0,-5.256 1.674,0 0,4.896 c 0,1.14001 0.18,1.956 0.54,2.448 0.36,0.492 0.966,0.738 1.818,0.738 0.18,0 0.366,-0.006 0.558,-0.018 0.192,-0.012 0.372,-0.024 0.54,-0.036 0.168,-0.024 0.318,-0.042 0.45,-0.054 0.144,-0.024 0.246,-0.048 0.306,-0.072 l 0,-7.902 1.674,0 0,9.09"
         style=""
         id="path6552" />
      <path
         d="m 458.07793,358.47325 3.546,0 0,1.404 -3.546,0 0,4.32 c 0,0.46801 0.036,0.858 0.108,1.17 0.072,0.3 0.18,0.54 0.324,0.72 0.144,0.168 0.324,0.288 0.54,0.36 0.216,0.072 0.468,0.108 0.756,0.108 0.50399,0 0.90599,-0.054 1.206,-0.162 0.31199,-0.12 0.52799,-0.204 0.648,-0.252 l 0.324,1.386 c -0.16801,0.084 -0.46201,0.186 -0.882,0.306 -0.42001,0.132 -0.90001,0.198 -1.44,0.198 -0.636,0 -1.164,-0.078 -1.584,-0.234 -0.408,-0.168 -0.738,-0.414 -0.99,-0.738 -0.252,-0.324 -0.432,-0.72 -0.54,-1.188 -0.096,-0.48 -0.144,-1.032 -0.144,-1.656 l 0,-8.352 1.674,-0.288 0,2.898"
         style=""
         id="path6554" />
      <path
         d="m 463.05634,363.17125 c 0,-0.82799 0.12,-1.54799 0.36,-2.16 0.23999,-0.62399 0.55799,-1.13999 0.954,-1.548 0.39599,-0.40799 0.85199,-0.71399 1.368,-0.918 0.51599,-0.20399 1.04399,-0.30599 1.584,-0.306 1.25999,10e-6 2.22599,0.39601 2.898,1.188 0.67199,0.78001 1.00799,1.97401 1.008,3.582 -10e-6,0.072 -10e-6,0.16801 0,0.288 -10e-6,0.10801 -0.006,0.21001 -0.018,0.306 l -6.408,0 c 0.072,0.97201 0.35399,1.71 0.846,2.214 0.49199,0.504 1.25999,0.756 2.304,0.756 0.58799,0 1.07999,-0.048 1.476,-0.144 0.40799,-0.108 0.71399,-0.21 0.918,-0.306 l 0.234,1.404 c -0.20401,0.108 -0.56401,0.222 -1.08,0.342 -0.50401,0.12 -1.08001,0.18 -1.728,0.18 -0.81601,0 -1.52401,-0.12 -2.124,-0.36 -0.58801,-0.252 -1.07401,-0.594 -1.458,-1.026 -0.38401,-0.432 -0.67201,-0.942 -0.864,-1.53 -0.18,-0.59999 -0.27,-1.25399 -0.27,-1.962 m 6.426,-0.918 c 0.012,-0.75599 -0.18001,-1.37399 -0.576,-1.854 -0.38401,-0.49199 -0.91801,-0.73799 -1.602,-0.738 -0.38401,1e-5 -0.72601,0.078 -1.026,0.234 -0.28801,0.14401 -0.53401,0.33601 -0.738,0.576 -0.20401,0.24001 -0.36601,0.51601 -0.486,0.828 -0.10801,0.31201 -0.18001,0.63001 -0.216,0.954 l 4.644,0"
         style=""
         id="path6556" />
      <path
         d="m 475.81102,366.62725 c 0.684,0 1.188,-0.09 1.512,-0.27 0.336,-0.18 0.504,-0.468 0.504,-0.864 0,-0.408 -0.162,-0.73199 -0.486,-0.972 -0.324,-0.23999 -0.858,-0.50999 -1.602,-0.81 -0.36,-0.14399 -0.708,-0.28799 -1.044,-0.432 -0.324,-0.15599 -0.606,-0.33599 -0.846,-0.54 -0.24,-0.20399 -0.432,-0.44999 -0.576,-0.738 -0.144,-0.28799 -0.216,-0.64199 -0.216,-1.062 0,-0.82799 0.306,-1.48199 0.918,-1.962 0.612,-0.49199 1.446,-0.73799 2.502,-0.738 0.264,10e-6 0.528,0.018 0.792,0.054 0.264,0.024 0.51,0.06 0.738,0.108 0.228,0.036 0.426,0.078 0.594,0.126 0.18,0.048 0.318,0.09 0.414,0.126 l -0.306,1.44 c -0.18,-0.096 -0.462,-0.19199 -0.846,-0.288 -0.384,-0.10799 -0.846,-0.16199 -1.386,-0.162 -0.468,10e-6 -0.876,0.096 -1.224,0.288 -0.348,0.18001 -0.522,0.46801 -0.522,0.864 0,0.20401 0.036,0.38401 0.108,0.54 0.084,0.15601 0.204,0.30001 0.36,0.432 0.168,0.12001 0.372,0.23401 0.612,0.342 0.24,0.10801 0.528,0.22201 0.864,0.342 0.444,0.16801 0.84,0.33601 1.188,0.504 0.348,0.15601 0.642,0.34201 0.882,0.558 0.252,0.21601 0.444,0.48001 0.576,0.792 0.132,0.30001 0.198,0.672 0.198,1.116 0,0.864 -0.324,1.518 -0.972,1.962 -0.636,0.444 -1.548,0.666 -2.736,0.666 -0.828,0 -1.476,-0.072 -1.944,-0.216 -0.468,-0.132 -0.786,-0.234 -0.954,-0.306 l 0.306,-1.44 c 0.192,0.072 0.498,0.18 0.918,0.324 0.42,0.144 0.978,0.216 1.674,0.216"
         style=""
         id="path6558" />
      <path
         d="m 482.96265,362.45125 c 0,-1.53599 -0.222,-2.95799 -0.666,-4.266 -0.444,-1.30799 -1.098,-2.51999 -1.962,-3.636 l 1.188,-0.81 c 0.936,1.14001 1.686,2.45401 2.25,3.942 0.57599,1.47601 0.86399,3.06601 0.864,4.77 -10e-6,1.70401 -0.28801,3.3 -0.864,4.788 -0.564,1.476 -1.314,2.784 -2.25,3.924 l -1.188,-0.81 c 0.864,-1.116 1.518,-2.328 1.962,-3.636 0.444,-1.308 0.666,-2.72999 0.666,-4.266"
         style=""
         id="path6560" />
    </g>
  </g>
</svg>
