<?xml version="1.0" encoding="UTF-8" standalone="no"?>
<!-- Created with Inkscape (http://www.inkscape.org/) -->

<svg
   xmlns:dc="http://purl.org/dc/elements/1.1/"
   xmlns:cc="http://creativecommons.org/ns#"
   xmlns:rdf="http://www.w3.org/1999/02/22-rdf-syntax-ns#"
   xmlns:svg="http://www.w3.org/2000/svg"
   xmlns="http://www.w3.org/2000/svg"
   xmlns:sodipodi="http://sodipodi.sourceforge.net/DTD/sodipodi-0.dtd"
   xmlns:inkscape="http://www.inkscape.org/namespaces/inkscape"
   width="800px"
   height="600px"
   id="svg35948"
   version="1.1"
   inkscape:version="0.48.2 r9819"
   sodipodi:docname="slide17.svg">
  <defs
     id="defs35950">
    <filter
       id="filter35983"
       inkscape:label="Drop shadow"
       width="1.5"
       height="1.5"
       x="-.25"
       y="-.25">
      <feGaussianBlur
         id="feGaussianBlur35985"
         in="SourceAlpha"
         stdDeviation="2.2"
         result="blur" />
      <feColorMatrix
         id="feColorMatrix35987"
         result="bluralpha"
         type="matrix"
         values="1 0 0 0 0 0 1 0 0 0 0 0 1 0 0 0 0 0 0.5 0 " />
      <feOffset
         id="feOffset35989"
         in="bluralpha"
         dx="3.4"
         dy="4"
         result="offsetBlur" />
      <feMerge
         id="feMerge35991">
        <feMergeNode
           id="feMergeNode35993"
           in="offsetBlur" />
        <feMergeNode
           id="feMergeNode35995"
           in="SourceGraphic" />
      </feMerge>
    </filter>
    <filter
       id="filter36438"
       inkscape:label="Drop shadow"
       width="1.5"
       height="1.5"
       x="-.25"
       y="-.25">
      <feGaussianBlur
         id="feGaussianBlur36440"
         in="SourceAlpha"
         stdDeviation="2.2"
         result="blur" />
      <feColorMatrix
         id="feColorMatrix36442"
         result="bluralpha"
         type="matrix"
         values="1 0 0 0 0 0 1 0 0 0 0 0 1 0 0 0 0 0 0.5 0 " />
      <feOffset
         id="feOffset36444"
         in="bluralpha"
         dx="3.4"
         dy="4"
         result="offsetBlur" />
      <feMerge
         id="feMerge36446">
        <feMergeNode
           id="feMergeNode36448"
           in="offsetBlur" />
        <feMergeNode
           id="feMergeNode36450"
           in="SourceGraphic" />
      </feMerge>
    </filter>
    <filter
       id="filter37173"
       inkscape:label="Drop shadow"
       width="1.5"
       height="1.5"
       x="-.25"
       y="-.25">
      <feGaussianBlur
         id="feGaussianBlur37175"
         in="SourceAlpha"
         stdDeviation="2.2"
         result="blur" />
      <feColorMatrix
         id="feColorMatrix37177"
         result="bluralpha"
         type="matrix"
         values="1 0 0 0 0 0 1 0 0 0 0 0 1 0 0 0 0 0 0.5 0 " />
      <feOffset
         id="feOffset37179"
         in="bluralpha"
         dx="3.4"
         dy="4"
         result="offsetBlur" />
      <feMerge
         id="feMerge37181">
        <feMergeNode
           id="feMergeNode37183"
           in="offsetBlur" />
        <feMergeNode
           id="feMergeNode37185"
           in="SourceGraphic" />
      </feMerge>
    </filter>
    <filter
       id="filter37573"
       inkscape:label="Drop shadow"
       width="1.5"
       height="1.5"
       x="-.25"
       y="-.25">
      <feGaussianBlur
         id="feGaussianBlur37575"
         in="SourceAlpha"
         stdDeviation="2.2"
         result="blur" />
      <feColorMatrix
         id="feColorMatrix37577"
         result="bluralpha"
         type="matrix"
         values="1 0 0 0 0 0 1 0 0 0 0 0 1 0 0 0 0 0 0.5 0 " />
      <feOffset
         id="feOffset37579"
         in="bluralpha"
         dx="3.4"
         dy="4"
         result="offsetBlur" />
      <feMerge
         id="feMerge37581">
        <feMergeNode
           id="feMergeNode37583"
           in="offsetBlur" />
        <feMergeNode
           id="feMergeNode37585"
           in="SourceGraphic" />
      </feMerge>
    </filter>
    <filter
       id="filter39185"
       inkscape:label="Drop shadow"
       width="1.5"
       height="1.5"
       x="-.25"
       y="-.25">
      <feGaussianBlur
         id="feGaussianBlur39187"
         in="SourceAlpha"
         stdDeviation="2.2"
         result="blur" />
      <feColorMatrix
         id="feColorMatrix39189"
         result="bluralpha"
         type="matrix"
         values="1 0 0 0 0 0 1 0 0 0 0 0 1 0 0 0 0 0 0.5 0 " />
      <feOffset
         id="feOffset39191"
         in="bluralpha"
         dx="3.4"
         dy="4"
         result="offsetBlur" />
      <feMerge
         id="feMerge39193">
        <feMergeNode
           id="feMergeNode39195"
           in="offsetBlur" />
        <feMergeNode
           id="feMergeNode39197"
           in="SourceGraphic" />
      </feMerge>
    </filter>
    <filter
       id="filter40847"
       inkscape:label="Drop shadow"
       width="1.5"
       height="1.5"
       x="-.25"
       y="-.25">
      <feGaussianBlur
         id="feGaussianBlur40849"
         in="SourceAlpha"
         stdDeviation="2.2"
         result="blur" />
      <feColorMatrix
         id="feColorMatrix40851"
         result="bluralpha"
         type="matrix"
         values="1 0 0 0 0 0 1 0 0 0 0 0 1 0 0 0 0 0 0.5 0 " />
      <feOffset
         id="feOffset40853"
         in="bluralpha"
         dx="3.4"
         dy="4"
         result="offsetBlur" />
      <feMerge
         id="feMerge40855">
        <feMergeNode
           id="feMergeNode40857"
           in="offsetBlur" />
        <feMergeNode
           id="feMergeNode40859"
           in="SourceGraphic" />
      </feMerge>
    </filter>
  </defs>
  <sodipodi:namedview
     id="base"
     pagecolor="#ef9302"
     bordercolor="#666666"
     borderopacity="1.0"
     inkscape:pageopacity="1"
     inkscape:pageshadow="2"
     inkscape:zoom="0.84852814"
     inkscape:cx="420.08244"
     inkscape:cy="318.44054"
     inkscape:current-layer="layer1"
     inkscape:document-units="px"
     showgrid="false"
     inkscape:window-width="1280"
     inkscape:window-height="1004"
     inkscape:window-x="1278"
     inkscape:window-y="-3"
     inkscape:window-maximized="1" />
  <metadata
     id="metadata35953">
    <rdf:RDF>
      <cc:Work
         rdf:about="">
        <dc:format>image/svg+xml</dc:format>
        <dc:type
           rdf:resource="http://purl.org/dc/dcmitype/StillImage" />
        <dc:title />
      </cc:Work>
    </rdf:RDF>
  </metadata>
  <g
     id="layer1"
     inkscape:label="Layer 1"
     inkscape:groupmode="layer">
    <g
       style="font-size:72px;font-style:normal;font-variant:normal;font-weight:normal;font-stretch:normal;line-height:125%;letter-spacing:0px;word-spacing:0px;fill:#000000;fill-opacity:1;stroke:none;filter:url(#filter37573);font-family:Ubuntu;-inkscape-font-specification:Ubuntu"
       id="text37557">
      <path
         d="m 99.63208,198.9076 0,6.048 -15.696,0 0,43.848 -6.984,0 0,-43.848 -15.696,0 0,-6.048 38.376,0"
         style=""
         id="path6618" />
      <path
         d="m 106.50471,248.8036 0,-54.72 6.696,-1.152 0,19.152 c 1.24798,-0.47996 2.56798,-0.83996 3.96,-1.08 1.43998,-0.28796 2.85598,-0.43196 4.248,-0.432 2.97597,4e-5 5.44797,0.43204 7.416,1.296 1.96797,0.81604 3.52796,1.99204 4.68,3.528 1.19996,1.48804 2.03996,3.28803 2.52,5.4 0.47996,2.11203 0.71996,4.44003 0.72,6.984 l 0,21.024 -6.696,0 0,-19.584 c -3e-5,-2.30397 -0.16803,-4.27197 -0.504,-5.904 -0.28803,-1.63197 -0.79203,-2.95197 -1.512,-3.96 -0.72003,-1.00797 -1.68003,-1.72796 -2.88,-2.16 -1.20003,-0.47996 -2.68803,-0.71996 -4.464,-0.72 -0.72002,4e-5 -1.46402,0.048 -2.232,0.144 -0.76802,0.096 -1.51202,0.21604 -2.232,0.36 -0.67202,0.096 -1.29602,0.21604 -1.872,0.36 -0.52802,0.14404 -0.91202,0.26404 -1.152,0.36 l 0,31.104 -6.696,0"
         style=""
         id="path6620" />
      <path
         d="m 145.47921,230.1556 c -1e-5,-3.31197 0.47999,-6.19197 1.44,-8.64 0.95999,-2.49597 2.23199,-4.55996 3.816,-6.192 1.58398,-1.63196 3.40798,-2.85596 5.472,-3.672 2.06398,-0.81596 4.17598,-1.22396 6.336,-1.224 5.03997,4e-5 8.90397,1.58404 11.592,4.752 2.68796,3.12003 4.03196,7.89603 4.032,14.328 -4e-5,0.28802 -4e-5,0.67202 0,1.152 -4e-5,0.43202 -0.024,0.84002 -0.072,1.224 l -25.632,0 c 0.28798,3.88802 1.41598,6.84001 3.384,8.856 1.96798,2.01601 5.03998,3.02401 9.216,3.024 2.35197,1e-5 4.31997,-0.19199 5.904,-0.576 1.63196,-0.43199 2.85596,-0.83999 3.672,-1.224 l 0.936,5.616 c -0.81604,0.432 -2.25604,0.888 -4.32,1.368 -2.01603,0.48 -4.32003,0.72 -6.912,0.72 -3.26402,0 -6.09602,-0.48 -8.496,-1.44 -2.35202,-1.00799 -4.29601,-2.37599 -5.832,-4.104 -1.53601,-1.72799 -2.68801,-3.76799 -3.456,-6.12 -0.72001,-2.39998 -1.08001,-5.01598 -1.08,-7.848 m 25.704,-3.672 c 0.048,-3.02397 -0.72003,-5.49597 -2.304,-7.416 -1.53603,-1.96796 -3.67203,-2.95196 -6.408,-2.952 -1.53602,4e-5 -2.90402,0.31204 -4.104,0.936 -1.15202,0.57604 -2.13602,1.34403 -2.952,2.304 -0.81602,0.96003 -1.46402,2.06403 -1.944,3.312 -0.43202,1.24803 -0.72002,2.52003 -0.864,3.816 l 18.576,0"
         style=""
         id="path6622" />
      <path
         d="m 223.38771,249.8836 c -3.26403,0 -6.09602,-0.504 -8.496,-1.512 -2.40002,-1.00799 -4.36802,-2.37599 -5.904,-4.104 -1.53601,-1.77599 -2.68801,-3.86399 -3.456,-6.264 -0.72001,-2.39998 -1.08001,-4.99198 -1.08,-7.776 l 0,-31.32 6.984,0 0,30.528 c -2e-5,4.99202 1.10398,8.61601 3.312,10.872 2.20798,2.25601 5.08797,3.38401 8.64,3.384 1.77597,1e-5 3.38397,-0.26399 4.824,-0.792 1.48796,-0.57599 2.75996,-1.43999 3.816,-2.592 1.05596,-1.15199 1.87196,-2.61598 2.448,-4.392 0.57596,-1.82398 0.86396,-3.98398 0.864,-6.48 l 0,-30.528 6.984,0 0,31.32 c -5e-5,2.78402 -0.38405,5.37602 -1.152,7.776 -0.72005,2.40001 -1.87205,4.48801 -3.456,6.264 -1.53604,1.72801 -3.50404,3.09601 -5.904,4.104 -2.35204,1.008 -5.16003,1.512 -8.424,1.512"
         style=""
         id="path6624" />
      <path
         d="m 279.87171,230.1556 c -4e-5,-4.36797 -1.08004,-7.72797 -3.24,-10.08 -2.16003,-2.35196 -5.04003,-3.52796 -8.64,-3.528 -2.01602,4e-5 -3.60002,0.072 -4.752,0.216 -1.10402,0.14404 -1.99202,0.31204 -2.664,0.504 l 0,23.616 c 0.81598,0.67201 1.99198,1.32001 3.528,1.944 1.53598,0.62401 3.21598,0.93601 5.04,0.936 1.91997,1e-5 3.55197,-0.33599 4.896,-1.008 1.39197,-0.71999 2.51997,-1.67999 3.384,-2.88 0.86397,-1.24799 1.48796,-2.68798 1.872,-4.32 0.38396,-1.67998 0.57596,-3.47998 0.576,-5.4 m 6.984,0 c -4e-5,2.83202 -0.38404,5.44802 -1.152,7.848 -0.72004,2.40001 -1.80004,4.46401 -3.24,6.192 -1.44004,1.72801 -3.21604,3.07201 -5.328,4.032 -2.06403,0.96 -4.44003,1.44 -7.128,1.44 -2.16002,0 -4.08002,-0.288 -5.76,-0.864 -1.63202,-0.576 -2.85602,-1.12799 -3.672,-1.656 l 0,14.976 -6.696,0 0,-49.608 c 1.58399,-0.38396 3.55199,-0.79196 5.904,-1.224 2.39998,-0.47996 5.15998,-0.71996 8.28,-0.72 2.87997,4e-5 5.47197,0.45604 7.776,1.368 2.30397,0.91204 4.27196,2.20804 5.904,3.888 1.63196,1.68004 2.87996,3.74403 3.744,6.192 0.91196,2.40003 1.36796,5.11203 1.368,8.136"
         style=""
         id="path6626" />
      <path
         d="m 319.82046,245.0596 c -0.57603,0.38401 -1.70403,0.88801 -3.384,1.512 -1.63203,0.57601 -3.55203,0.86401 -5.76,0.864 -2.25602,1e-5 -4.39202,-0.35999 -6.408,-1.08 -1.96802,-0.71999 -3.69601,-1.82399 -5.184,-3.312 -1.48801,-1.53599 -2.66401,-3.43199 -3.528,-5.688 -0.86401,-2.25598 -1.29601,-4.94398 -1.296,-8.064 -1e-5,-2.73597 0.40799,-5.23197 1.224,-7.488 0.81599,-2.30397 1.99199,-4.27196 3.528,-5.904 1.58399,-1.67996 3.50398,-2.97596 5.76,-3.888 2.25598,-0.95996 4.79998,-1.43996 7.632,-1.44 3.11997,4e-5 5.83197,0.24004 8.136,0.72 2.35196,0.43204 4.31996,0.84004 5.904,1.224 l 0,33.408 c -4e-5,5.76 -1.48804,9.936 -4.464,12.528 -2.97603,2.59199 -7.48803,3.88799 -13.536,3.888 -2.35202,-1e-5 -4.58402,-0.19201 -6.696,-0.576 -2.06401,-0.38401 -3.86401,-0.84001 -5.4,-1.368 l 1.224,-5.832 c 1.34399,0.528 2.97599,0.984 4.896,1.368 1.96798,0.432 4.00798,0.648 6.12,0.648 3.98397,0 6.83997,-0.792 8.568,-2.376 1.77597,-1.584 2.66397,-4.104 2.664,-7.56 l 0,-1.584 m -0.072,-27.792 c -0.67203,-0.19196 -1.58403,-0.35996 -2.736,-0.504 -1.10403,-0.19196 -2.61603,-0.28796 -4.536,-0.288 -3.60002,4e-5 -6.38402,1.17604 -8.352,3.528 -1.92002,2.35203 -2.88002,5.47203 -2.88,9.36 -2e-5,2.16002 0.26398,4.00802 0.792,5.544 0.57598,1.53602 1.31998,2.80802 2.232,3.816 0.95998,1.00801 2.03998,1.75201 3.24,2.232 1.24798,0.48001 2.51998,0.72001 3.816,0.72 1.77597,1e-5 3.40797,-0.23999 4.896,-0.72 1.48797,-0.52799 2.66397,-1.12799 3.528,-1.8 l 0,-21.888"
         style=""
         id="path6628" />
      <path
         d="m 351.79746,210.5716 c 0.57598,4e-5 1.22397,0.048 1.944,0.144 0.76797,0.048 1.51197,0.14404 2.232,0.288 0.71997,0.096 1.36797,0.21604 1.944,0.36 0.62397,0.096 1.07997,0.19204 1.368,0.288 l -1.152,5.832 c -0.52803,-0.19196 -1.41603,-0.40796 -2.664,-0.648 -1.20003,-0.28796 -2.76003,-0.43196 -4.68,-0.432 -1.24802,4e-5 -2.49602,0.14404 -3.744,0.432 -1.20002,0.24004 -1.99202,0.40804 -2.376,0.504 l 0,31.464 -6.696,0 0,-35.856 c 1.58399,-0.57596 3.55199,-1.10396 5.904,-1.584 2.35198,-0.52796 4.99198,-0.79196 7.92,-0.792"
         style=""
         id="path6630" />
      <path
         d="m 378.48921,243.9796 c 1.58398,1e-5 2.97597,-0.024 4.176,-0.072 1.24797,-0.096 2.27997,-0.23999 3.096,-0.432 l 0,-11.16 c -0.48003,-0.23998 -1.27203,-0.43198 -2.376,-0.576 -1.05603,-0.19198 -2.35203,-0.28798 -3.888,-0.288 -1.00802,2e-5 -2.08802,0.072 -3.24,0.216 -1.10402,0.14402 -2.13602,0.45602 -3.096,0.936 -0.91202,0.43202 -1.68002,1.05602 -2.304,1.872 -0.62401,0.76802 -0.93601,1.80002 -0.936,3.096 -10e-6,2.40001 0.76798,4.08001 2.304,5.04 1.53598,0.91201 3.62398,1.36801 6.264,1.368 m -0.576,-33.552 c 2.68797,4e-5 4.94397,0.36004 6.768,1.08 1.87197,0.67204 3.35997,1.65604 4.464,2.952 1.15196,1.24804 1.96796,2.76004 2.448,4.536 0.47996,1.72803 0.71996,3.64803 0.72,5.76 l 0,23.4 c -0.57604,0.096 -1.39204,0.24 -2.448,0.432 -1.00803,0.144 -2.16003,0.288 -3.456,0.432 -1.29603,0.144 -2.71203,0.264 -4.248,0.36 -1.48803,0.144 -2.97602,0.216 -4.464,0.216 -2.11202,0 -4.05602,-0.216 -5.832,-0.648 -1.77601,-0.432 -3.31201,-1.10399 -4.608,-2.016 -1.29601,-0.95999 -2.30401,-2.20799 -3.024,-3.744 -0.72001,-1.53599 -1.08001,-3.38399 -1.08,-5.544 -10e-6,-2.06398 0.40799,-3.83998 1.224,-5.328 0.86399,-1.48798 2.01599,-2.68798 3.456,-3.6 1.43999,-0.91197 3.11998,-1.58397 5.04,-2.016 1.91998,-0.43197 3.93598,-0.64797 6.048,-0.648 0.67198,3e-5 1.36797,0.048 2.088,0.144 0.71997,0.048 1.39197,0.14403 2.016,0.288 0.67197,0.096 1.24797,0.19203 1.728,0.288 0.47997,0.096 0.81597,0.16803 1.008,0.216 l 0,-1.872 c -3e-5,-1.10397 -0.12003,-2.18397 -0.36,-3.24 -0.24003,-1.10397 -0.67203,-2.06397 -1.296,-2.88 -0.62403,-0.86397 -1.48803,-1.53596 -2.592,-2.016 -1.05603,-0.52796 -2.44802,-0.79196 -4.176,-0.792 -2.20802,4e-5 -4.15202,0.16804 -5.832,0.504 -1.63201,0.28804 -2.85601,0.60004 -3.672,0.936 l -0.792,-5.544 c 0.86399,-0.38396 2.30399,-0.74396 4.32,-1.08 2.01598,-0.38396 4.19998,-0.57596 6.552,-0.576"
         style=""
         id="path6632" />
      <path
         d="m 427.55608,219.2836 c -0.81603,-0.67197 -1.99203,-1.31997 -3.528,-1.944 -1.53602,-0.62396 -3.21602,-0.93596 -5.04,-0.936 -1.92002,4e-5 -3.57602,0.36004 -4.968,1.08 -1.34401,0.67203 -2.44801,1.63203 -3.312,2.88 -0.86401,1.20003 -1.48801,2.64003 -1.872,4.32 -0.38401,1.68003 -0.57601,3.48002 -0.576,5.4 -1e-5,4.36802 1.07999,7.75202 3.24,10.152 2.15998,2.35201 5.03998,3.52801 8.64,3.528 1.82398,1e-5 3.33597,-0.072 4.536,-0.216 1.24797,-0.19199 2.20797,-0.38399 2.88,-0.576 l 0,-23.688 m 0,-25.2 6.696,-1.152 0,54.792 c -1.53603,0.432 -3.50403,0.864 -5.904,1.296 -2.40003,0.432 -5.16003,0.648 -8.28,0.648 -2.88002,0 -5.47202,-0.456 -7.776,-1.368 -2.30401,-0.91199 -4.27201,-2.20799 -5.904,-3.888 -1.63201,-1.67999 -2.90401,-3.71999 -3.816,-6.12 -0.864,-2.44798 -1.296,-5.18398 -1.296,-8.208 0,-2.87997 0.36,-5.51997 1.08,-7.92 0.76799,-2.39997 1.87199,-4.46396 3.312,-6.192 1.43999,-1.72796 3.19199,-3.07196 5.256,-4.032 2.11198,-0.95996 4.51198,-1.43996 7.2,-1.44 2.15998,4e-5 4.05598,0.28804 5.688,0.864 1.67997,0.57604 2.92797,1.12804 3.744,1.656 l 0,-18.936"
         style=""
         id="path6634" />
      <path
         d="m 443.74483,230.1556 c 0,-3.31197 0.48,-6.19197 1.44,-8.64 0.95999,-2.49597 2.23199,-4.55996 3.816,-6.192 1.58399,-1.63196 3.40799,-2.85596 5.472,-3.672 2.06398,-0.81596 4.17598,-1.22396 6.336,-1.224 5.03997,4e-5 8.90397,1.58404 11.592,4.752 2.68797,3.12003 4.03196,7.89603 4.032,14.328 -4e-5,0.28802 -4e-5,0.67202 0,1.152 -4e-5,0.43202 -0.024,0.84002 -0.072,1.224 l -25.632,0 c 0.28799,3.88802 1.41599,6.84001 3.384,8.856 1.96798,2.01601 5.03998,3.02401 9.216,3.024 2.35197,1e-5 4.31997,-0.19199 5.904,-0.576 1.63197,-0.43199 2.85597,-0.83999 3.672,-1.224 l 0.936,5.616 c -0.81603,0.432 -2.25603,0.888 -4.32,1.368 -2.01603,0.48 -4.32002,0.72 -6.912,0.72 -3.26402,0 -6.09602,-0.48 -8.496,-1.44 -2.35201,-1.00799 -4.29601,-2.37599 -5.832,-4.104 -1.53601,-1.72799 -2.68801,-3.76799 -3.456,-6.12 -0.72,-2.39998 -1.08,-5.01598 -1.08,-7.848 m 25.704,-3.672 c 0.048,-3.02397 -0.72003,-5.49597 -2.304,-7.416 -1.53603,-1.96796 -3.67202,-2.95196 -6.408,-2.952 -1.53602,4e-5 -2.90402,0.31204 -4.104,0.936 -1.15202,0.57604 -2.13601,1.34403 -2.952,2.304 -0.81601,0.96003 -1.46401,2.06403 -1.944,3.312 -0.43201,1.24803 -0.72001,2.52003 -0.864,3.816 l 18.576,0"
         style=""
         id="path6636" />
      <path
         d="m 516.32533,198.4036 c 7.00797,5e-5 12.38397,1.34405 16.128,4.032 3.79196,2.64005 5.68796,6.60004 5.688,11.88 -4e-5,2.88004 -0.52804,5.35203 -1.584,7.416 -1.00804,2.01603 -2.49604,3.67203 -4.464,4.968 -1.92003,1.24802 -4.27203,2.16002 -7.056,2.736 -2.78403,0.57602 -5.92802,0.86402 -9.432,0.864 l -5.544,0 0,18.504 -6.984,0 0,-49.176 c 1.96799,-0.47995 4.15199,-0.79195 6.552,-0.936 2.44799,-0.19195 4.67998,-0.28795 6.696,-0.288 m 0.576,6.12 c -2.97602,5e-5 -5.25601,0.0721 -6.84,0.216 l 0,19.584 5.256,0 c 2.39998,3e-5 4.55998,-0.14397 6.48,-0.432 1.91997,-0.33597 3.52797,-0.86397 4.824,-1.584 1.34397,-0.76797 2.37597,-1.79997 3.096,-3.096 0.71997,-1.29596 1.07997,-2.95196 1.08,-4.968 -3e-5,-1.91996 -0.38403,-3.50396 -1.152,-4.752 -0.72003,-1.24796 -1.72803,-2.23195 -3.024,-2.952 -1.24803,-0.76795 -2.71203,-1.29595 -4.392,-1.584 -1.68002,-0.28795 -3.45602,-0.43195 -5.328,-0.432"
         style=""
         id="path6638" />
      <path
         d="m 560.20371,210.5716 c 0.57598,4e-5 1.22397,0.048 1.944,0.144 0.76797,0.048 1.51197,0.14404 2.232,0.288 0.71997,0.096 1.36797,0.21604 1.944,0.36 0.62397,0.096 1.07997,0.19204 1.368,0.288 l -1.152,5.832 c -0.52803,-0.19196 -1.41603,-0.40796 -2.664,-0.648 -1.20003,-0.28796 -2.76003,-0.43196 -4.68,-0.432 -1.24802,4e-5 -2.49602,0.14404 -3.744,0.432 -1.20002,0.24004 -1.99202,0.40804 -2.376,0.504 l 0,31.464 -6.696,0 0,-35.856 c 1.58399,-0.57596 3.55199,-1.10396 5.904,-1.584 2.35198,-0.52796 4.99198,-0.79196 7.92,-0.792"
         style=""
         id="path6640" />
      <path
         d="m 607.27146,230.0836 c -4e-5,2.97602 -0.43204,5.66402 -1.296,8.064 -0.86404,2.40001 -2.08804,4.46401 -3.672,6.192 -1.53604,1.72801 -3.38404,3.07201 -5.544,4.032 -2.16003,0.912 -4.51203,1.368 -7.056,1.368 -2.54402,0 -4.89602,-0.456 -7.056,-1.368 -2.16002,-0.95999 -4.03201,-2.30399 -5.616,-4.032 -1.53601,-1.72799 -2.73601,-3.79199 -3.6,-6.192 -0.86401,-2.39998 -1.29601,-5.08798 -1.296,-8.064 -10e-6,-2.92797 0.43199,-5.59197 1.296,-7.992 0.86399,-2.44797 2.06399,-4.53596 3.6,-6.264 1.58399,-1.72796 3.45598,-3.04796 5.616,-3.96 2.15998,-0.95996 4.51198,-1.43996 7.056,-1.44 2.54397,4e-5 4.89597,0.48004 7.056,1.44 2.15996,0.91204 4.00796,2.23204 5.544,3.96 1.58396,1.72804 2.80796,3.81603 3.672,6.264 0.86396,2.40003 1.29596,5.06403 1.296,7.992 m -6.984,0 c -4e-5,-4.22397 -0.96004,-7.55997 -2.88,-10.008 -1.87203,-2.49596 -4.44003,-3.74396 -7.704,-3.744 -3.26402,4e-5 -5.85602,1.24804 -7.776,3.744 -1.87202,2.44803 -2.80802,5.78403 -2.808,10.008 -2e-5,4.22402 0.93598,7.58402 2.808,10.08 1.91998,2.44801 4.51198,3.67201 7.776,3.672 3.26397,1e-5 5.83197,-1.22399 7.704,-3.672 1.91996,-2.49598 2.87996,-5.85598 2.88,-10.08"
         style=""
         id="path6642" />
      <path
         d="m 632.96421,249.6676 c -3.02402,0 -5.68802,-0.48 -7.992,-1.44 -2.25602,-0.95999 -4.17601,-2.30399 -5.76,-4.032 -1.53601,-1.72799 -2.68801,-3.76799 -3.456,-6.12 -0.76801,-2.39998 -1.15201,-5.03998 -1.152,-7.92 -10e-6,-2.87997 0.40799,-5.51997 1.224,-7.92 0.86399,-2.39997 2.06399,-4.46396 3.6,-6.192 1.53599,-1.77596 3.40798,-3.14396 5.616,-4.104 2.25598,-1.00796 4.75198,-1.51196 7.488,-1.512 1.67997,4e-5 3.35997,0.14404 5.04,0.432 1.67997,0.28804 3.28797,0.74404 4.824,1.368 l -1.512,5.688 c -1.00803,-0.47996 -2.18403,-0.86396 -3.528,-1.152 -1.29603,-0.28796 -2.68803,-0.43196 -4.176,-0.432 -3.74402,4e-5 -6.62402,1.17604 -8.64,3.528 -1.96802,2.35203 -2.95202,5.78403 -2.952,10.296 -2e-5,2.01602 0.21598,3.86402 0.648,5.544 0.47998,1.68002 1.19998,3.12001 2.16,4.32 1.00798,1.20001 2.27998,2.13601 3.816,2.808 1.53598,0.62401 3.40797,0.93601 5.616,0.936 1.77597,1e-5 3.38397,-0.16799 4.824,-0.504 1.43997,-0.33599 2.56796,-0.69599 3.384,-1.08 l 0.936,5.616 c -0.38404,0.24 -0.93604,0.48 -1.656,0.72 -0.72003,0.192 -1.53603,0.36 -2.448,0.504 -0.91203,0.192 -1.89603,0.336 -2.952,0.432 -1.00803,0.144 -1.99203,0.216 -2.952,0.216"
         style=""
         id="path6644" />
      <path
         d="m 648.07296,230.1556 c -10e-6,-3.31197 0.47999,-6.19197 1.44,-8.64 0.95999,-2.49597 2.23199,-4.55996 3.816,-6.192 1.58398,-1.63196 3.40798,-2.85596 5.472,-3.672 2.06398,-0.81596 4.17598,-1.22396 6.336,-1.224 5.03997,4e-5 8.90397,1.58404 11.592,4.752 2.68796,3.12003 4.03196,7.89603 4.032,14.328 -4e-5,0.28802 -4e-5,0.67202 0,1.152 -4e-5,0.43202 -0.024,0.84002 -0.072,1.224 l -25.632,0 c 0.28798,3.88802 1.41598,6.84001 3.384,8.856 1.96798,2.01601 5.03998,3.02401 9.216,3.024 2.35197,1e-5 4.31997,-0.19199 5.904,-0.576 1.63196,-0.43199 2.85596,-0.83999 3.672,-1.224 l 0.936,5.616 c -0.81604,0.432 -2.25604,0.888 -4.32,1.368 -2.01603,0.48 -4.32003,0.72 -6.912,0.72 -3.26402,0 -6.09602,-0.48 -8.496,-1.44 -2.35202,-1.00799 -4.29601,-2.37599 -5.832,-4.104 -1.53601,-1.72799 -2.68801,-3.76799 -3.456,-6.12 -0.72001,-2.39998 -1.08001,-5.01598 -1.08,-7.848 m 25.704,-3.672 c 0.048,-3.02397 -0.72003,-5.49597 -2.304,-7.416 -1.53603,-1.96796 -3.67203,-2.95196 -6.408,-2.952 -1.53602,4e-5 -2.90402,0.31204 -4.104,0.936 -1.15202,0.57604 -2.13602,1.34403 -2.952,2.304 -0.81602,0.96003 -1.46402,2.06403 -1.944,3.312 -0.43202,1.24803 -0.72002,2.52003 -0.864,3.816 l 18.576,0"
         style=""
         id="path6646" />
      <path
         d="m 699.09171,243.9796 c 2.73598,1e-5 4.75198,-0.35999 6.048,-1.08 1.34397,-0.71999 2.01597,-1.87199 2.016,-3.456 -3e-5,-1.63198 -0.64803,-2.92798 -1.944,-3.888 -1.29602,-0.95998 -3.43202,-2.03998 -6.408,-3.24 -1.44002,-0.57598 -2.83202,-1.15198 -4.176,-1.728 -1.29601,-0.62398 -2.42401,-1.34398 -3.384,-2.16 -0.96001,-0.81597 -1.72801,-1.79997 -2.304,-2.952 -0.57601,-1.15197 -0.86401,-2.56797 -0.864,-4.248 -10e-6,-3.31196 1.22399,-5.92796 3.672,-7.848 2.44799,-1.96796 5.78398,-2.95196 10.008,-2.952 1.05598,4e-5 2.11198,0.072 3.168,0.216 1.05597,0.096 2.03997,0.24004 2.952,0.432 0.91197,0.14404 1.70397,0.31204 2.376,0.504 0.71997,0.19204 1.27197,0.36004 1.656,0.504 l -1.224,5.76 c -0.72003,-0.38396 -1.84803,-0.76796 -3.384,-1.152 -1.53603,-0.43196 -3.38402,-0.64796 -5.544,-0.648 -1.87202,4e-5 -3.50402,0.38404 -4.896,1.152 -1.39202,0.72004 -2.08801,1.87203 -2.088,3.456 -10e-6,0.81603 0.14398,1.53603 0.432,2.16 0.33598,0.62403 0.81598,1.20003 1.44,1.728 0.67198,0.48003 1.48798,0.93603 2.448,1.368 0.95998,0.43203 2.11198,0.88803 3.456,1.368 1.77598,0.67202 3.35997,1.34402 4.752,2.016 1.39197,0.62402 2.56797,1.36802 3.528,2.232 1.00797,0.86402 1.77597,1.92002 2.304,3.168 0.52797,1.20002 0.79197,2.68802 0.792,4.464 -3e-5,3.45601 -1.29603,6.07201 -3.888,7.848 -2.54403,1.776 -6.19202,2.664 -10.944,2.664 -3.31202,0 -5.90401,-0.288 -7.776,-0.864 -1.87201,-0.528 -3.14401,-0.93599 -3.816,-1.224 l 1.224,-5.76 c 0.76799,0.28801 1.99199,0.72001 3.672,1.296 1.67999,0.57601 3.91198,0.86401 6.696,0.864"
         style=""
         id="path6648" />
      <path
         d="m 731.15421,243.9796 c 2.73598,1e-5 4.75198,-0.35999 6.048,-1.08 1.34397,-0.71999 2.01597,-1.87199 2.016,-3.456 -3e-5,-1.63198 -0.64803,-2.92798 -1.944,-3.888 -1.29602,-0.95998 -3.43202,-2.03998 -6.408,-3.24 -1.44002,-0.57598 -2.83202,-1.15198 -4.176,-1.728 -1.29601,-0.62398 -2.42401,-1.34398 -3.384,-2.16 -0.96001,-0.81597 -1.72801,-1.79997 -2.304,-2.952 -0.57601,-1.15197 -0.86401,-2.56797 -0.864,-4.248 -10e-6,-3.31196 1.22399,-5.92796 3.672,-7.848 2.44799,-1.96796 5.78398,-2.95196 10.008,-2.952 1.05598,4e-5 2.11198,0.072 3.168,0.216 1.05597,0.096 2.03997,0.24004 2.952,0.432 0.91197,0.14404 1.70397,0.31204 2.376,0.504 0.71997,0.19204 1.27197,0.36004 1.656,0.504 l -1.224,5.76 c -0.72003,-0.38396 -1.84803,-0.76796 -3.384,-1.152 -1.53603,-0.43196 -3.38402,-0.64796 -5.544,-0.648 -1.87202,4e-5 -3.50402,0.38404 -4.896,1.152 -1.39202,0.72004 -2.08801,1.87203 -2.088,3.456 -10e-6,0.81603 0.14398,1.53603 0.432,2.16 0.33598,0.62403 0.81598,1.20003 1.44,1.728 0.67198,0.48003 1.48798,0.93603 2.448,1.368 0.95998,0.43203 2.11198,0.88803 3.456,1.368 1.77598,0.67202 3.35997,1.34402 4.752,2.016 1.39197,0.62402 2.56797,1.36802 3.528,2.232 1.00797,0.86402 1.77597,1.92002 2.304,3.168 0.52797,1.20002 0.79197,2.68802 0.792,4.464 -3e-5,3.45601 -1.29603,6.07201 -3.888,7.848 -2.54403,1.776 -6.19202,2.664 -10.944,2.664 -3.31202,0 -5.90401,-0.288 -7.776,-0.864 -1.87201,-0.528 -3.14401,-0.93599 -3.816,-1.224 l 1.224,-5.76 c 0.76799,0.28801 1.99199,0.72001 3.672,1.296 1.67999,0.57601 3.91198,0.86401 6.696,0.864"
         style=""
         id="path6650" />
    </g>
    <text
       xml:space="preserve"
       style="font-size:18px;font-style:normal;font-variant:normal;font-weight:normal;font-stretch:normal;line-height:125%;letter-spacing:0px;word-spacing:0px;fill:#000000;fill-opacity:1;stroke:none;font-family:Ubuntu;-inkscape-font-specification:Ubuntu"
       x="75.424721"
       y="242.91109"
       id="text37587"
       sodipodi:linespacing="125%"><tspan
         sodipodi:role="line"
         id="tspan37589" /></text>
    <text
       xml:space="preserve"
       style="font-size:18px;font-style:normal;font-variant:normal;font-weight:normal;font-stretch:normal;line-height:125%;letter-spacing:0px;word-spacing:0px;fill:#000000;fill-opacity:1;stroke:none;font-family:Ubuntu;-inkscape-font-specification:Ubuntu"
       x="108.42304"
       y="239.37553"
       id="text39168"
       sodipodi:linespacing="125%"><tspan
         sodipodi:role="line"
         x="108.42304"
         y="239.37553"
         id="tspan39174" /></text>
    <g
       style="font-size:40px;font-style:normal;font-variant:normal;font-weight:normal;font-stretch:normal;line-height:125%;letter-spacing:0px;word-spacing:0px;fill:#000000;fill-opacity:1;stroke:none;filter:url(#filter40847);font-family:Ubuntu;-inkscape-font-specification:Ubuntu"
       id="text40843">
      <path
         d="m 295.99974,305.65643 c 3.89332,3e-5 6.87998,0.7467 8.96,2.24 2.10664,1.46669 3.15997,3.66669 3.16,6.6 -3e-5,1.60002 -0.29336,2.97335 -0.88,4.12 -0.56002,1.12002 -1.38669,2.04002 -2.48,2.76 -1.06669,0.69335 -2.37335,1.20001 -3.92,1.52 -1.54668,0.32001 -3.29335,0.48001 -5.24,0.48 l -3.08,0 0,10.28 -3.88,0 0,-27.32 c 1.09333,-0.26664 2.30666,-0.43997 3.64,-0.52 1.35999,-0.10664 2.59999,-0.15997 3.72,-0.16 m 0.32,3.4 c -1.65335,3e-5 -2.92001,0.04 -3.8,0.12 l 0,10.88 2.92,0 c 1.33332,2e-5 2.53332,-0.08 3.6,-0.24 1.06665,-0.18665 1.95998,-0.47998 2.68,-0.88 0.74665,-0.42665 1.31998,-0.99998 1.72,-1.72 0.39998,-0.71998 0.59998,-1.63998 0.6,-2.76 -2e-5,-1.06664 -0.21335,-1.94664 -0.64,-2.64 -0.40002,-0.69331 -0.96002,-1.23997 -1.68,-1.64 -0.69335,-0.42664 -1.50668,-0.71997 -2.44,-0.88 -0.93335,-0.15997 -1.92001,-0.23997 -2.96,-0.24"
         style=""
         id="path6653" />
      <path
         d="m 320.37661,312.41643 c 0.31999,2e-5 0.67999,0.0267 1.08,0.08 0.42666,0.0267 0.83999,0.08 1.24,0.16 0.39999,0.0534 0.75999,0.12002 1.08,0.2 0.34665,0.0534 0.59999,0.10669 0.76,0.16 l -0.64,3.24 c -0.29334,-0.10665 -0.78668,-0.22665 -1.48,-0.36 -0.66668,-0.15998 -1.53334,-0.23998 -2.6,-0.24 -0.69334,2e-5 -1.38667,0.08 -2.08,0.24 -0.66667,0.13335 -1.10667,0.22669 -1.32,0.28 l 0,17.48 -3.72,0 0,-19.92 c 0.88,-0.31998 1.97333,-0.61331 3.28,-0.88 1.30666,-0.29331 2.77333,-0.43998 4.4,-0.44"
         style=""
         id="path6655" />
      <path
         d="m 327.00536,323.29643 c 0,-1.83998 0.26667,-3.43998 0.8,-4.8 0.53333,-1.38665 1.24,-2.53331 2.12,-3.44 0.88,-0.90664 1.89333,-1.58664 3.04,-2.04 1.14666,-0.45331 2.31999,-0.67998 3.52,-0.68 2.79999,2e-5 4.94665,0.88002 6.44,2.64 1.49332,1.73335 2.23998,4.38668 2.24,7.96 -2e-5,0.16001 -2e-5,0.37335 0,0.64 -2e-5,0.24001 -0.0134,0.46668 -0.04,0.68 l -14.24,0 c 0.16,2.16001 0.78666,3.80001 1.88,4.92 1.09333,1.12001 2.79999,1.68001 5.12,1.68 1.30665,1e-5 2.39999,-0.10666 3.28,-0.32 0.90665,-0.23999 1.58665,-0.46666 2.04,-0.68 l 0.52,3.12 c -0.45335,0.24 -1.25335,0.49334 -2.4,0.76 -1.12001,0.26667 -2.40001,0.4 -3.84,0.4 -1.81334,0 -3.38667,-0.26666 -4.72,-0.8 -1.30667,-0.56 -2.38667,-1.32 -3.24,-2.28 -0.85333,-0.95999 -1.49333,-2.09333 -1.92,-3.4 -0.4,-1.33332 -0.6,-2.78665 -0.6,-4.36 m 14.28,-2.04 c 0.0266,-1.67998 -0.40001,-3.05331 -1.28,-4.12 -0.85334,-1.09331 -2.04001,-1.63998 -3.56,-1.64 -0.85334,2e-5 -1.61334,0.17335 -2.28,0.52 -0.64001,0.32002 -1.18667,0.74669 -1.64,1.28 -0.45334,0.53335 -0.81334,1.14668 -1.08,1.84 -0.24,0.69335 -0.4,1.40002 -0.48,2.12 l 10.32,0"
         style=""
         id="path6657" />
      <path
         d="m 364.94911,323.29643 c -2e-5,-2.42665 -0.60001,-4.29332 -1.8,-5.6 -1.20001,-1.30665 -2.80001,-1.95998 -4.8,-1.96 -1.12001,2e-5 -2.00001,0.04 -2.64,0.12 -0.61334,0.08 -1.10667,0.17335 -1.48,0.28 l 0,13.12 c 0.45333,0.37334 1.10666,0.73334 1.96,1.08 0.85333,0.34667 1.78666,0.52001 2.8,0.52 1.06666,1e-5 1.97332,-0.18666 2.72,-0.56 0.77332,-0.39999 1.39999,-0.93333 1.88,-1.6 0.47999,-0.69332 0.82665,-1.49332 1.04,-2.4 0.21332,-0.93332 0.31998,-1.93332 0.32,-3 m 3.88,0 c -2e-5,1.57335 -0.21335,3.02668 -0.64,4.36 -0.40002,1.33334 -1.00002,2.48001 -1.8,3.44 -0.80002,0.96 -1.78668,1.70667 -2.96,2.24 -1.14668,0.53334 -2.46668,0.8 -3.96,0.8 -1.20001,0 -2.26667,-0.16 -3.2,-0.48 -0.90667,-0.32 -1.58667,-0.62666 -2.04,-0.92 l 0,8.32 -3.72,0 0,-27.56 c 0.88,-0.21331 1.97333,-0.43998 3.28,-0.68 1.33333,-0.26664 2.86666,-0.39998 4.6,-0.4 1.59999,2e-5 3.03999,0.25336 4.32,0.76 1.27999,0.50669 2.37332,1.22669 3.28,2.16 0.90665,0.93335 1.59998,2.08002 2.08,3.44 0.50665,1.33335 0.75998,2.84002 0.76,4.52"
         style=""
         id="path6659" />
      <path
         d="m 381.14286,330.97643 c 0.87999,1e-5 1.65332,-0.0133 2.32,-0.04 0.69332,-0.0533 1.26666,-0.13333 1.72,-0.24 l 0,-6.2 c -0.26668,-0.13332 -0.70668,-0.23999 -1.32,-0.32 -0.58668,-0.10665 -1.30668,-0.15999 -2.16,-0.16 -0.56001,10e-6 -1.16001,0.04 -1.8,0.12 -0.61334,0.08 -1.18667,0.25335 -1.72,0.52 -0.50667,0.24001 -0.93334,0.58668 -1.28,1.04 -0.34667,0.42668 -0.52,1.00001 -0.52,1.72 0,1.33334 0.42666,2.26667 1.28,2.8 0.85333,0.50667 2.01333,0.76001 3.48,0.76 m -0.32,-18.64 c 1.49332,2e-5 2.74666,0.20002 3.76,0.6 1.03999,0.37336 1.86665,0.92002 2.48,1.64 0.63999,0.69335 1.09332,1.53335 1.36,2.52 0.26665,0.96002 0.39998,2.02668 0.4,3.2 l 0,13 c -0.32002,0.0533 -0.77335,0.13334 -1.36,0.24 -0.56001,0.08 -1.20001,0.16 -1.92,0.24 -0.72001,0.08 -1.50668,0.14667 -2.36,0.2 -0.82668,0.08 -1.65334,0.12 -2.48,0.12 -1.17334,0 -2.25334,-0.12 -3.24,-0.36 -0.98667,-0.24 -1.84,-0.61333 -2.56,-1.12 -0.72,-0.53333 -1.28,-1.22666 -1.68,-2.08 -0.4,-0.85333 -0.6,-1.87999 -0.6,-3.08 0,-1.14666 0.22667,-2.13332 0.68,-2.96 0.48,-0.82665 1.12,-1.49332 1.92,-2 0.8,-0.50665 1.73333,-0.87998 2.8,-1.12 1.06666,-0.23998 2.18666,-0.35998 3.36,-0.36 0.37333,2e-5 0.75999,0.0267 1.16,0.08 0.39999,0.0267 0.77332,0.08 1.12,0.16 0.37332,0.0533 0.69332,0.10668 0.96,0.16 0.26666,0.0534 0.45332,0.0933 0.56,0.12 l 0,-1.04 c -1e-5,-0.61332 -0.0667,-1.21332 -0.2,-1.8 -0.13334,-0.61331 -0.37334,-1.14665 -0.72,-1.6 -0.34668,-0.47998 -0.82668,-0.85331 -1.44,-1.12 -0.58668,-0.29331 -1.36001,-0.43998 -2.32,-0.44 -1.22667,2e-5 -2.30667,0.0933 -3.24,0.28 -0.90667,0.16002 -1.58667,0.33335 -2.04,0.52 l -0.44,-3.08 c 0.48,-0.21331 1.28,-0.41331 2.4,-0.6 1.12,-0.21331 2.33333,-0.31998 3.64,-0.32"
         style=""
         id="path6661" />
      <path
         d="m 402.64224,312.41643 c 0.31999,2e-5 0.67999,0.0267 1.08,0.08 0.42665,0.0267 0.83998,0.08 1.24,0.16 0.39998,0.0534 0.75998,0.12002 1.08,0.2 0.34665,0.0534 0.59998,0.10669 0.76,0.16 l -0.64,3.24 c -0.29335,-0.10665 -0.78668,-0.22665 -1.48,-0.36 -0.66668,-0.15998 -1.53335,-0.23998 -2.6,-0.24 -0.69335,2e-5 -1.38668,0.08 -2.08,0.24 -0.66668,0.13335 -1.10668,0.22669 -1.32,0.28 l 0,17.48 -3.72,0 0,-19.92 c 0.87999,-0.31998 1.97333,-0.61331 3.28,-0.88 1.30666,-0.29331 2.77332,-0.43998 4.4,-0.44"
         style=""
         id="path6663" />
      <path
         d="m 417.47099,330.97643 c 0.87999,1e-5 1.65332,-0.0133 2.32,-0.04 0.69332,-0.0533 1.26665,-0.13333 1.72,-0.24 l 0,-6.2 c -0.26668,-0.13332 -0.70668,-0.23999 -1.32,-0.32 -0.58668,-0.10665 -1.30668,-0.15999 -2.16,-0.16 -0.56001,10e-6 -1.16001,0.04 -1.8,0.12 -0.61334,0.08 -1.18668,0.25335 -1.72,0.52 -0.50668,0.24001 -0.93334,0.58668 -1.28,1.04 -0.34667,0.42668 -0.52001,1.00001 -0.52,1.72 -10e-6,1.33334 0.42666,2.26667 1.28,2.8 0.85332,0.50667 2.01332,0.76001 3.48,0.76 m -0.32,-18.64 c 1.49332,2e-5 2.74665,0.20002 3.76,0.6 1.03998,0.37336 1.86665,0.92002 2.48,1.64 0.63998,0.69335 1.09331,1.53335 1.36,2.52 0.26665,0.96002 0.39998,2.02668 0.4,3.2 l 0,13 c -0.32002,0.0533 -0.77335,0.13334 -1.36,0.24 -0.56002,0.08 -1.20002,0.16 -1.92,0.24 -0.72002,0.08 -1.50668,0.14667 -2.36,0.2 -0.82668,0.08 -1.65335,0.12 -2.48,0.12 -1.17334,0 -2.25334,-0.12 -3.24,-0.36 -0.98667,-0.24 -1.84001,-0.61333 -2.56,-1.12 -0.72001,-0.53333 -1.28001,-1.22666 -1.68,-2.08 -0.4,-0.85333 -0.6,-1.87999 -0.6,-3.08 0,-1.14666 0.22666,-2.13332 0.68,-2.96 0.47999,-0.82665 1.11999,-1.49332 1.92,-2 0.79999,-0.50665 1.73332,-0.87998 2.8,-1.12 1.06666,-0.23998 2.18665,-0.35998 3.36,-0.36 0.37332,2e-5 0.75999,0.0267 1.16,0.08 0.39999,0.0267 0.77332,0.08 1.12,0.16 0.37332,0.0533 0.69332,0.10668 0.96,0.16 0.26665,0.0534 0.45332,0.0933 0.56,0.12 l 0,-1.04 c -2e-5,-0.61332 -0.0667,-1.21332 -0.2,-1.8 -0.13335,-0.61331 -0.37335,-1.14665 -0.72,-1.6 -0.34668,-0.47998 -0.82668,-0.85331 -1.44,-1.12 -0.58668,-0.29331 -1.36001,-0.43998 -2.32,-0.44 -1.22668,2e-5 -2.30668,0.0933 -3.24,0.28 -0.90667,0.16002 -1.58667,0.33335 -2.04,0.52 l -0.44,-3.08 c 0.47999,-0.21331 1.27999,-0.41331 2.4,-0.6 1.11999,-0.21331 2.33332,-0.31998 3.64,-0.32"
         style=""
         id="path6665" />
      <path
         d="m 434.77036,312.85643 7.88,0 0,3.12 -7.88,0 0,9.6 c 0,1.04001 0.08,1.90668 0.24,2.6 0.16,0.66667 0.4,1.20001 0.72,1.6 0.31999,0.37334 0.71999,0.64001 1.2,0.8 0.47999,0.16001 1.03999,0.24001 1.68,0.24 1.11999,10e-6 2.01332,-0.11999 2.68,-0.36 0.69332,-0.26666 1.17332,-0.45333 1.44,-0.56 l 0.72,3.08 c -0.37335,0.18667 -1.02668,0.41334 -1.96,0.68 -0.93334,0.29334 -2.00001,0.44 -3.2,0.44 -1.41334,0 -2.58667,-0.17333 -3.52,-0.52 -0.90667,-0.37333 -1.64,-0.92 -2.2,-1.64 -0.56,-0.71999 -0.96,-1.59999 -1.2,-2.64 -0.21333,-1.06666 -0.32,-2.29332 -0.32,-3.68 l 0,-18.56 3.72,-0.64 0,6.44"
         style=""
         id="path6667" />
      <path
         d="m 451.10411,333.65643 -3.72,0 0,-20.8 3.72,0 0,20.8 m -1.88,-24.56 c -0.66667,3e-5 -1.24,-0.21331 -1.72,-0.64 -0.45333,-0.4533 -0.68,-1.0533 -0.68,-1.8 0,-0.74664 0.22667,-1.3333 0.68,-1.76 0.48,-0.4533 1.05333,-0.67997 1.72,-0.68 0.66666,3e-5 1.22666,0.2267 1.68,0.68 0.48,0.4267 0.72,1.01336 0.72,1.76 0,0.7467 -0.24,1.3467 -0.72,1.8 -0.45334,0.42669 -1.01334,0.64003 -1.68,0.64"
         style=""
         id="path6669" />
      <path
         d="m 475.90036,323.25643 c -2e-5,1.65335 -0.24002,3.14668 -0.72,4.48 -0.48002,1.33334 -1.16002,2.48001 -2.04,3.44 -0.85335,0.96 -1.88001,1.70667 -3.08,2.24 -1.20001,0.50667 -2.50668,0.76 -3.92,0.76 -1.41334,0 -2.72001,-0.25333 -3.92,-0.76 -1.2,-0.53333 -2.24,-1.28 -3.12,-2.24 -0.85333,-0.95999 -1.52,-2.10666 -2,-3.44 -0.48,-1.33332 -0.72,-2.82665 -0.72,-4.48 0,-1.62665 0.24,-3.10665 0.72,-4.44 0.48,-1.35998 1.14667,-2.51998 2,-3.48 0.88,-0.95998 1.92,-1.69331 3.12,-2.2 1.19999,-0.53331 2.50666,-0.79998 3.92,-0.8 1.41332,2e-5 2.71999,0.26669 3.92,0.8 1.19999,0.50669 2.22665,1.24002 3.08,2.2 0.87998,0.96002 1.55998,2.12002 2.04,3.48 0.47998,1.33335 0.71998,2.81335 0.72,4.44 m -3.88,0 c -2e-5,-2.34665 -0.53335,-4.19998 -1.6,-5.56 -1.04001,-1.38665 -2.46668,-2.07998 -4.28,-2.08 -1.81334,2e-5 -3.25334,0.69335 -4.32,2.08 -1.04,1.36002 -1.56,3.21335 -1.56,5.56 0,2.34668 0.52,4.21334 1.56,5.6 1.06666,1.36001 2.50666,2.04001 4.32,2.04 1.81332,10e-6 3.23999,-0.67999 4.28,-2.04 1.06665,-1.38666 1.59998,-3.25332 1.6,-5.6"
         style=""
         id="path6671" />
      <path
         d="m 481.13411,313.45643 c 0.85333,-0.21331 1.98666,-0.43998 3.4,-0.68 1.41333,-0.23998 3.03999,-0.35998 4.88,-0.36 1.65332,2e-5 3.02665,0.24002 4.12,0.72 1.09332,0.45336 1.95998,1.10669 2.6,1.96 0.66665,0.82669 1.13332,1.82669 1.4,3 0.26665,1.17335 0.39998,2.46668 0.4,3.88 l 0,11.68 -3.72,0 0,-10.88 c -1e-5,-1.27998 -0.0933,-2.37332 -0.28,-3.28 -0.16001,-0.90665 -0.44001,-1.63998 -0.84,-2.2 -0.40001,-0.55998 -0.93335,-0.95998 -1.6,-1.2 -0.66668,-0.26665 -1.49334,-0.39998 -2.48,-0.4 -0.40001,2e-5 -0.81334,0.0134 -1.24,0.04 -0.42667,0.0267 -0.84001,0.0667 -1.24,0.12 -0.37334,0.0267 -0.72001,0.0667 -1.04,0.12 -0.29334,0.0534 -0.50667,0.0933 -0.64,0.12 l 0,17.56 -3.72,0 0,-20.2"
         style=""
         id="path6673" />
    </g>
  </g>
</svg>
