<?xml version="1.0" encoding="UTF-8" standalone="no"?>
<!-- Created with Inkscape (http://www.inkscape.org/) -->

<svg
   xmlns:dc="http://purl.org/dc/elements/1.1/"
   xmlns:cc="http://creativecommons.org/ns#"
   xmlns:rdf="http://www.w3.org/1999/02/22-rdf-syntax-ns#"
   xmlns:svg="http://www.w3.org/2000/svg"
   xmlns="http://www.w3.org/2000/svg"
   xmlns:sodipodi="http://sodipodi.sourceforge.net/DTD/sodipodi-0.dtd"
   xmlns:inkscape="http://www.inkscape.org/namespaces/inkscape"
   width="800px"
   height="600px"
   id="svg34272"
   version="1.1"
   inkscape:version="0.48.2 r9819"
   sodipodi:docname="slide4.svg">
  <defs
     id="defs34274">
    <filter
       id="filter34286"
       inkscape:label="Drop shadow"
       width="1.5"
       height="1.5"
       x="-.25"
       y="-.25">
      <feGaussianBlur
         id="feGaussianBlur34288"
         in="SourceAlpha"
         stdDeviation="2.2"
         result="blur" />
      <feColorMatrix
         id="feColorMatrix34290"
         result="bluralpha"
         type="matrix"
         values="1 0 0 0 0 0 1 0 0 0 0 0 1 0 0 0 0 0 0.5 0 " />
      <feOffset
         id="feOffset34292"
         in="bluralpha"
         dx="3.4"
         dy="4"
         result="offsetBlur" />
      <feMerge
         id="feMerge34294">
        <feMergeNode
           id="feMergeNode34296"
           in="offsetBlur" />
        <feMergeNode
           id="feMergeNode34298"
           in="SourceGraphic" />
      </feMerge>
    </filter>
  </defs>
  <sodipodi:namedview
     id="base"
     pagecolor="#ef9302"
     bordercolor="#666666"
     borderopacity="1.0"
     inkscape:pageopacity="1"
     inkscape:pageshadow="2"
     inkscape:zoom="0.6"
     inkscape:cx="691.242"
     inkscape:cy="199.46338"
     inkscape:current-layer="layer1"
     inkscape:document-units="px"
     showgrid="false"
     inkscape:window-width="1280"
     inkscape:window-height="1004"
     inkscape:window-x="1278"
     inkscape:window-y="-3"
     inkscape:window-maximized="1" />
  <metadata
     id="metadata34277">
    <rdf:RDF>
      <cc:Work
         rdf:about="">
        <dc:format>image/svg+xml</dc:format>
        <dc:type
           rdf:resource="http://purl.org/dc/dcmitype/StillImage" />
        <dc:title />
      </cc:Work>
    </rdf:RDF>
  </metadata>
  <g
     id="layer1"
     inkscape:label="Layer 1"
     inkscape:groupmode="layer">
    <g
       style="font-size:16px;font-style:normal;font-variant:normal;font-weight:normal;font-stretch:normal;line-height:125%;letter-spacing:0px;word-spacing:0px;fill:#000000;fill-opacity:1;stroke:none;filter:url(#filter34286);font-family:Ubuntu;-inkscape-font-specification:Ubuntu"
       id="text34280">
      <path
         d="m 186.81333,155.32666 c -2.01603,6.43202 -4.05603,12.38402 -6.12,17.856 -2.06403,5.47201 -4.12802,10.8 -6.192,15.984 l -6.984,0 c -2.54401,-7.344 -4.80001,-15.09599 -6.768,-23.256 -1.92001,-8.15997 -3.72001,-17.03996 -5.4,-26.64 l 7.344,0 c 0.67199,3.74404 1.36799,7.48804 2.088,11.232 0.71999,3.74403 1.46399,7.39203 2.232,10.944 0.76798,3.50402 1.53598,6.86402 2.304,10.08 0.76798,3.21601 1.55998,6.19201 2.376,8.928 1.91998,-5.03999 3.95998,-10.55998 6.12,-16.56 2.15997,-6.04797 4.17597,-12.28797 6.048,-18.72 l 6.048,0 c 1.87196,6.43203 3.91196,12.67203 6.12,18.72 2.20795,6.00002 4.27195,11.52001 6.192,16.56 0.76795,-2.68799 1.53595,-5.63999 2.304,-8.856 0.76795,-3.21598 1.51195,-6.57598 2.232,-10.08 0.76794,-3.55197 1.51194,-7.19997 2.232,-10.944 0.71994,-3.79196 1.41594,-7.55996 2.088,-11.304 l 7.128,0 c -1.72806,9.60004 -3.57606,18.48003 -5.544,26.64 -1.92006,8.16001 -4.12806,15.912 -6.624,23.256 l -6.984,0 c -2.11205,-5.184 -4.17604,-10.51199 -6.192,-15.984 -2.01604,-5.47198 -4.03204,-11.42398 -6.048,-17.856"
         style="font-size:72px"
         id="path3003" />
      <path
         d="m 226.03083,189.16666 0,-54.72 6.696,-1.152 0,19.152 c 1.24798,-0.47997 2.56798,-0.83997 3.96,-1.08 1.43998,-0.28797 2.85598,-0.43197 4.248,-0.432 2.97597,3e-5 5.44797,0.43203 7.416,1.296 1.96797,0.81603 3.52797,1.99203 4.68,3.528 1.19996,1.48803 2.03996,3.28803 2.52,5.4 0.47996,2.11202 0.71996,4.44002 0.72,6.984 l 0,21.024 -6.696,0 0,-19.584 c -3e-5,-2.30398 -0.16803,-4.27198 -0.504,-5.904 -0.28803,-1.63198 -0.79203,-2.95198 -1.512,-3.96 -0.72003,-1.00797 -1.68003,-1.72797 -2.88,-2.16 -1.20002,-0.47997 -2.68802,-0.71997 -4.464,-0.72 -0.72002,3e-5 -1.46402,0.048 -2.232,0.144 -0.76802,0.096 -1.51202,0.21603 -2.232,0.36 -0.67202,0.096 -1.29602,0.21603 -1.872,0.36 -0.52801,0.14403 -0.91201,0.26403 -1.152,0.36 l 0,31.104 -6.696,0"
         style="font-size:72px"
         id="path3005" />
      <path
         d="m 279.76533,184.34266 c 1.58398,0 2.97598,-0.024 4.176,-0.072 1.24797,-0.096 2.27997,-0.24 3.096,-0.432 l 0,-11.16 c -0.48003,-0.23999 -1.27203,-0.43199 -2.376,-0.576 -1.05602,-0.19199 -2.35202,-0.28799 -3.888,-0.288 -1.00802,1e-5 -2.08802,0.072 -3.24,0.216 -1.10402,0.14401 -2.13602,0.45601 -3.096,0.936 -0.91201,0.43201 -1.68001,1.05601 -2.304,1.872 -0.62401,0.76801 -0.93601,1.80001 -0.936,3.096 -1e-5,2.40001 0.76799,4.08 2.304,5.04 1.53598,0.912 3.62398,1.368 6.264,1.368 m -0.576,-33.552 c 2.68798,3e-5 4.94398,0.36003 6.768,1.08 1.87197,0.67203 3.35997,1.65603 4.464,2.952 1.15197,1.24803 1.96797,2.76003 2.448,4.536 0.47997,1.72802 0.71997,3.64802 0.72,5.76 l 0,23.4 c -0.57603,0.096 -1.39203,0.24 -2.448,0.432 -1.00803,0.144 -2.16003,0.288 -3.456,0.432 -1.29603,0.144 -2.71203,0.264 -4.248,0.36 -1.48802,0.144 -2.97602,0.216 -4.464,0.216 -2.11202,0 -4.05602,-0.216 -5.832,-0.648 -1.77601,-0.432 -3.31201,-1.104 -4.608,-2.016 -1.29601,-0.96 -2.30401,-2.208 -3.024,-3.744 -0.72001,-1.536 -1.08,-3.38399 -1.08,-5.544 0,-2.06399 0.40799,-3.83999 1.224,-5.328 0.86399,-1.48799 2.01599,-2.68798 3.456,-3.6 1.43999,-0.91198 3.11999,-1.58398 5.04,-2.016 1.91998,-0.43198 3.93598,-0.64798 6.048,-0.648 0.67198,2e-5 1.36798,0.048 2.088,0.144 0.71998,0.048 1.39198,0.14402 2.016,0.288 0.67197,0.096 1.24797,0.19202 1.728,0.288 0.47997,0.096 0.81597,0.16802 1.008,0.216 l 0,-1.872 c -3e-5,-1.10398 -0.12003,-2.18398 -0.36,-3.24 -0.24003,-1.10398 -0.67203,-2.06397 -1.296,-2.88 -0.62403,-0.86397 -1.48802,-1.53597 -2.592,-2.016 -1.05602,-0.52797 -2.44802,-0.79197 -4.176,-0.792 -2.20802,3e-5 -4.15201,0.16803 -5.832,0.504 -1.63201,0.28803 -2.85601,0.60003 -3.672,0.936 l -0.792,-5.544 c 0.86399,-0.38397 2.30399,-0.74397 4.32,-1.08 2.01598,-0.38397 4.19998,-0.57597 6.552,-0.576"
         style="font-size:72px"
         id="path3007" />
      <path
         d="m 310.9042,151.72666 14.184,0 0,5.616 -14.184,0 0,17.28 c -10e-6,1.87201 0.14399,3.43201 0.432,4.68 0.28799,1.20001 0.71999,2.16 1.296,2.88 0.57599,0.672 1.29599,1.152 2.16,1.44 0.86399,0.288 1.87199,0.432 3.024,0.432 2.01598,0 3.62398,-0.216 4.824,-0.648 1.24798,-0.48 2.11198,-0.816 2.592,-1.008 l 1.296,5.544 c -0.67202,0.336 -1.84802,0.744 -3.528,1.224 -1.68002,0.528 -3.60002,0.792 -5.76,0.792 -2.54401,0 -4.65601,-0.312 -6.336,-0.936 -1.63201,-0.672 -2.95201,-1.656 -3.96,-2.952 -1.008,-1.296 -1.728,-2.88 -2.16,-4.752 -0.384,-1.91999 -0.576,-4.12799 -0.576,-6.624 l 0,-33.408 6.696,-1.152 0,11.592"
         style="font-size:72px"
         id="path3009" />
      <path
         d="m 356.4667,151.72666 14.184,0 0,5.616 -14.184,0 0,17.28 c -10e-6,1.87201 0.14399,3.43201 0.432,4.68 0.28799,1.20001 0.71999,2.16 1.296,2.88 0.57599,0.672 1.29599,1.152 2.16,1.44 0.86399,0.288 1.87199,0.432 3.024,0.432 2.01598,0 3.62398,-0.216 4.824,-0.648 1.24798,-0.48 2.11198,-0.816 2.592,-1.008 l 1.296,5.544 c -0.67202,0.336 -1.84802,0.744 -3.528,1.224 -1.68002,0.528 -3.60002,0.792 -5.76,0.792 -2.54401,0 -4.65601,-0.312 -6.336,-0.936 -1.63201,-0.672 -2.95201,-1.656 -3.96,-2.952 -1.008,-1.296 -1.728,-2.88 -2.16,-4.752 -0.384,-1.91999 -0.576,-4.12799 -0.576,-6.624 l 0,-33.408 6.696,-1.152 0,11.592"
         style="font-size:72px"
         id="path3011" />
      <path
         d="m 411.23508,170.44666 c -4e-5,2.97601 -0.43204,5.66401 -1.296,8.064 -0.86404,2.4 -2.08804,4.464 -3.672,6.192 -1.53603,1.728 -3.38403,3.072 -5.544,4.032 -2.16003,0.912 -4.51203,1.368 -7.056,1.368 -2.54402,0 -4.89602,-0.456 -7.056,-1.368 -2.16001,-0.96 -4.03201,-2.304 -5.616,-4.032 -1.53601,-1.728 -2.73601,-3.792 -3.6,-6.192 -0.86401,-2.39999 -1.29601,-5.08799 -1.296,-8.064 -1e-5,-2.92798 0.43199,-5.59198 1.296,-7.992 0.86399,-2.44797 2.06399,-4.53597 3.6,-6.264 1.58399,-1.72797 3.45599,-3.04797 5.616,-3.96 2.15998,-0.95997 4.51198,-1.43997 7.056,-1.44 2.54397,3e-5 4.89597,0.48003 7.056,1.44 2.15997,0.91203 4.00797,2.23203 5.544,3.96 1.58396,1.72803 2.80796,3.81603 3.672,6.264 0.86396,2.40002 1.29596,5.06402 1.296,7.992 m -6.984,0 c -3e-5,-4.22398 -0.96003,-7.55998 -2.88,-10.008 -1.87203,-2.49597 -4.44003,-3.74397 -7.704,-3.744 -3.26402,3e-5 -5.85602,1.24803 -7.776,3.744 -1.87201,2.44802 -2.80801,5.78402 -2.808,10.008 -10e-6,4.22401 0.93599,7.58401 2.808,10.08 1.91998,2.448 4.51198,3.672 7.776,3.672 3.26397,0 5.83197,-1.224 7.704,-3.672 1.91997,-2.49599 2.87997,-5.85599 2.88,-10.08"
         style="font-size:72px"
         id="path3013" />
      <path
         d="m 437.68158,189.16666 0,-49.896 30.456,0 0,5.976 -23.472,0 0,14.832 20.88,0 0,5.832 -20.88,0 0,17.28 25.272,0 0,5.976 -32.256,0"
         style="font-size:72px"
         id="path3015" />
      <path
         d="m 501.4072,189.16666 c -0.52802,-1.056 -1.17602,-2.232 -1.944,-3.528 -0.76802,-1.296 -1.60802,-2.616 -2.52,-3.96 -0.91202,-1.39199 -1.84802,-2.75999 -2.808,-4.104 -0.96002,-1.34399 -1.89602,-2.61599 -2.808,-3.816 -0.91201,1.20001 -1.84801,2.49601 -2.808,3.888 -0.96001,1.34401 -1.89601,2.71201 -2.808,4.104 -0.86401,1.344 -1.68001,2.664 -2.448,3.96 -0.76801,1.296 -1.41601,2.448 -1.944,3.456 l -6.912,0 c 1.68,-3.264 3.672,-6.576 5.976,-9.936 2.35199,-3.40799 4.67999,-6.64799 6.984,-9.72 l -12.384,-17.784 7.56,0 8.928,13.104 9,-13.104 7.128,0 -12.096,17.352 c 2.30398,3.12001 4.65598,6.43201 7.056,9.936 2.44797,3.456 4.51197,6.84 6.192,10.152 l -7.344,0"
         style="font-size:72px"
         id="path3017" />
      <path
         d="m 541.85095,170.51866 c -3e-5,-4.36798 -1.08003,-7.72798 -3.24,-10.08 -2.16002,-2.35197 -5.04002,-3.52797 -8.64,-3.528 -2.01601,3e-5 -3.60001,0.072 -4.752,0.216 -1.10401,0.14403 -1.99201,0.31203 -2.664,0.504 l 0,23.616 c 0.81599,0.672 1.99199,1.32 3.528,1.944 1.53599,0.624 3.21598,0.936 5.04,0.936 1.91998,0 3.55198,-0.336 4.896,-1.008 1.39198,-0.72 2.51997,-1.68 3.384,-2.88 0.86397,-1.24799 1.48797,-2.68799 1.872,-4.32 0.38397,-1.67999 0.57597,-3.47999 0.576,-5.4 m 6.984,0 c -4e-5,2.83201 -0.38404,5.44801 -1.152,7.848 -0.72003,2.4 -1.80003,4.464 -3.24,6.192 -1.44003,1.728 -3.21603,3.072 -5.328,4.032 -2.06402,0.96 -4.44002,1.44 -7.128,1.44 -2.16002,0 -4.08001,-0.288 -5.76,-0.864 -1.63201,-0.576 -2.85601,-1.128 -3.672,-1.656 l 0,14.976 -6.696,0 0,-49.608 c 1.584,-0.38397 3.55199,-0.79197 5.904,-1.224 2.39999,-0.47997 5.15999,-0.71997 8.28,-0.72 2.87998,3e-5 5.47198,0.45603 7.776,1.368 2.30397,0.91203 4.27197,2.20803 5.904,3.888 1.63197,1.68003 2.87997,3.74403 3.744,6.192 0.91196,2.40002 1.36796,5.11202 1.368,8.136"
         style="font-size:72px"
         id="path3019" />
      <path
         d="m 556.2397,170.51866 c 0,-3.31198 0.48,-6.19198 1.44,-8.64 0.96,-2.49597 2.232,-4.55997 3.816,-6.192 1.58399,-1.63197 3.40799,-2.85597 5.472,-3.672 2.06399,-0.81597 4.17598,-1.22397 6.336,-1.224 5.03998,3e-5 8.90397,1.58403 11.592,4.752 2.68797,3.12003 4.03197,7.89602 4.032,14.328 -3e-5,0.28802 -3e-5,0.67202 0,1.152 -3e-5,0.43201 -0.024,0.84001 -0.072,1.224 l -25.632,0 c 0.28799,3.88801 1.41599,6.84001 3.384,8.856 1.96799,2.016 5.03998,3.024 9.216,3.024 2.35198,0 4.31998,-0.192 5.904,-0.576 1.63197,-0.432 2.85597,-0.84 3.672,-1.224 l 0.936,5.616 c -0.81603,0.432 -2.25603,0.888 -4.32,1.368 -2.01602,0.48 -4.32002,0.72 -6.912,0.72 -3.26402,0 -6.09601,-0.48 -8.496,-1.44 -2.35201,-1.008 -4.29601,-2.376 -5.832,-4.104 -1.536,-1.728 -2.688,-3.768 -3.456,-6.12 -0.72,-2.39999 -1.08,-5.01599 -1.08,-7.848 m 25.704,-3.672 c 0.048,-3.02398 -0.72003,-5.49598 -2.304,-7.416 -1.53602,-1.96797 -3.67202,-2.95197 -6.408,-2.952 -1.53602,3e-5 -2.90401,0.31203 -4.104,0.936 -1.15201,0.57603 -2.13601,1.34403 -2.952,2.304 -0.81601,0.96002 -1.46401,2.06402 -1.944,3.312 -0.43201,1.24802 -0.72001,2.52002 -0.864,3.816 l 18.576,0"
         style="font-size:72px"
         id="path3021" />
      <path
         d="m 614.81845,190.03066 c -3.02402,0 -5.68801,-0.48 -7.992,-1.44 -2.25601,-0.96 -4.17601,-2.304 -5.76,-4.032 -1.536,-1.728 -2.688,-3.768 -3.456,-6.12 -0.768,-2.39999 -1.152,-5.03999 -1.152,-7.92 0,-2.87998 0.408,-5.51998 1.224,-7.92 0.864,-2.39997 2.064,-4.46397 3.6,-6.192 1.53599,-1.77597 3.40799,-3.14397 5.616,-4.104 2.25599,-1.00797 4.75198,-1.51197 7.488,-1.512 1.67998,3e-5 3.35998,0.14403 5.04,0.432 1.67997,0.28803 3.28797,0.74403 4.824,1.368 l -1.512,5.688 c -1.00803,-0.47997 -2.18402,-0.86397 -3.528,-1.152 -1.29602,-0.28797 -2.68802,-0.43197 -4.176,-0.432 -3.74402,3e-5 -6.62401,1.17603 -8.64,3.528 -1.96801,2.35202 -2.95201,5.78402 -2.952,10.296 -10e-6,2.01601 0.21599,3.86401 0.648,5.544 0.47999,1.68001 1.19999,3.12001 2.16,4.32 1.00799,1.2 2.27999,2.136 3.816,2.808 1.53598,0.624 3.40798,0.936 5.616,0.936 1.77598,0 3.38398,-0.168 4.824,-0.504 1.43997,-0.336 2.56797,-0.696 3.384,-1.08 l 0.936,5.616 c -0.38403,0.24 -0.93603,0.48 -1.656,0.72 -0.72003,0.192 -1.53603,0.36 -2.448,0.504 -0.91202,0.192 -1.89602,0.336 -2.952,0.432 -1.00802,0.144 -1.99202,0.216 -2.952,0.216"
         style="font-size:72px"
         id="path3023" />
      <path
         d="m 638.2792,151.72666 14.184,0 0,5.616 -14.184,0 0,17.28 c -10e-6,1.87201 0.14399,3.43201 0.432,4.68 0.28799,1.20001 0.71999,2.16 1.296,2.88 0.57599,0.672 1.29599,1.152 2.16,1.44 0.86399,0.288 1.87199,0.432 3.024,0.432 2.01598,0 3.62398,-0.216 4.824,-0.648 1.24798,-0.48 2.11198,-0.816 2.592,-1.008 l 1.296,5.544 c -0.67202,0.336 -1.84802,0.744 -3.528,1.224 -1.68002,0.528 -3.60002,0.792 -5.76,0.792 -2.54401,0 -4.65601,-0.312 -6.336,-0.936 -1.63201,-0.672 -2.95201,-1.656 -3.96,-2.952 -1.008,-1.296 -1.728,-2.88 -2.16,-4.752 -0.384,-1.91999 -0.576,-4.12799 -0.576,-6.624 l 0,-33.408 6.696,-1.152 0,11.592"
         style="font-size:72px"
         id="path3025" />
      <path
         d="m 159.52533,279.16666 0,-49.896 30.096,0 0,5.976 -23.112,0 0,15.048 20.52,0 0,5.904 -20.52,0 0,22.968 -6.984,0"
         style="font-size:72px"
         id="path3027" />
      <path
         d="m 209.62045,240.93466 c 0.57598,3e-5 1.22398,0.048 1.944,0.144 0.76798,0.048 1.51198,0.14403 2.232,0.288 0.71998,0.096 1.36798,0.21603 1.944,0.36 0.62398,0.096 1.07998,0.19203 1.368,0.288 l -1.152,5.832 c -0.52802,-0.19197 -1.41602,-0.40797 -2.664,-0.648 -1.20002,-0.28797 -2.76002,-0.43197 -4.68,-0.432 -1.24801,3e-5 -2.49601,0.14403 -3.744,0.432 -1.20001,0.24003 -1.99201,0.40803 -2.376,0.504 l 0,31.464 -6.696,0 0,-35.856 c 1.584,-0.57597 3.55199,-1.10397 5.904,-1.584 2.35199,-0.52797 4.99199,-0.79197 7.92,-0.792"
         style="font-size:72px"
         id="path3029" />
      <path
         d="m 256.6882,260.44666 c -4e-5,2.97601 -0.43204,5.66401 -1.296,8.064 -0.86403,2.4 -2.08803,4.464 -3.672,6.192 -1.53603,1.728 -3.38403,3.072 -5.544,4.032 -2.16002,0.912 -4.51202,1.368 -7.056,1.368 -2.54402,0 -4.89601,-0.456 -7.056,-1.368 -2.16001,-0.96 -4.03201,-2.304 -5.616,-4.032 -1.536,-1.728 -2.736,-3.792 -3.6,-6.192 -0.864,-2.39999 -1.296,-5.08799 -1.296,-8.064 0,-2.92798 0.432,-5.59198 1.296,-7.992 0.864,-2.44797 2.064,-4.53597 3.6,-6.264 1.58399,-1.72797 3.45599,-3.04797 5.616,-3.96 2.15999,-0.95997 4.51198,-1.43997 7.056,-1.44 2.54398,3e-5 4.89598,0.48003 7.056,1.44 2.15997,0.91203 4.00797,2.23203 5.544,3.96 1.58397,1.72803 2.80797,3.81603 3.672,6.264 0.86396,2.40002 1.29596,5.06402 1.296,7.992 m -6.984,0 c -3e-5,-4.22398 -0.96003,-7.55998 -2.88,-10.008 -1.87202,-2.49597 -4.44002,-3.74397 -7.704,-3.744 -3.26401,3e-5 -5.85601,1.24803 -7.776,3.744 -1.87201,2.44802 -2.80801,5.78402 -2.808,10.008 -1e-5,4.22401 0.93599,7.58401 2.808,10.08 1.91999,2.448 4.51199,3.672 7.776,3.672 3.26398,0 5.83198,-1.224 7.704,-3.672 1.91997,-2.49599 2.87997,-5.85599 2.88,-10.08"
         style="font-size:72px"
         id="path3031" />
      <path
         d="m 266.10895,242.80666 c 1.536,-0.38397 3.55199,-0.79197 6.048,-1.224 2.54399,-0.43197 5.47199,-0.64797 8.784,-0.648 2.39998,3e-5 4.41598,0.33603 6.048,1.008 1.63197,0.62403 2.99997,1.56003 4.104,2.808 0.33597,-0.23997 0.86397,-0.57597 1.584,-1.008 0.71997,-0.43197 1.60797,-0.83997 2.664,-1.224 1.05597,-0.43197 2.23197,-0.79197 3.528,-1.08 1.29596,-0.33597 2.68796,-0.50397 4.176,-0.504 2.87996,3e-5 5.23196,0.43203 7.056,1.296 1.82395,0.81603 3.23995,1.99203 4.248,3.528 1.05595,1.53603 1.75195,3.36003 2.088,5.472 0.38395,2.11202 0.57595,4.41602 0.576,6.912 l 0,21.024 -6.696,0 0,-19.584 c -5e-5,-2.20798 -0.12005,-4.10398 -0.36,-5.688 -0.19205,-1.58398 -0.60005,-2.90398 -1.224,-3.96 -0.57604,-1.05597 -1.39204,-1.82397 -2.448,-2.304 -1.00804,-0.52797 -2.32804,-0.79197 -3.96,-0.792 -2.25604,3e-5 -4.12803,0.31203 -5.616,0.936 -1.44003,0.57603 -2.42403,1.10403 -2.952,1.584 0.38397,1.24803 0.67197,2.61602 0.864,4.104 0.19197,1.48802 0.28797,3.04802 0.288,4.68 l 0,21.024 -6.696,0 0,-19.584 c -2e-5,-2.20798 -0.12002,-4.10398 -0.36,-5.688 -0.24002,-1.58398 -0.67202,-2.90398 -1.296,-3.96 -0.57602,-1.05597 -1.39202,-1.82397 -2.448,-2.304 -1.00802,-0.52797 -2.30402,-0.79197 -3.888,-0.792 -0.67202,3e-5 -1.39202,0.024 -2.16,0.072 -0.76801,0.048 -1.51201,0.12003 -2.232,0.216 -0.67201,0.048 -1.29601,0.12003 -1.872,0.216 -0.57601,0.096 -0.96001,0.16803 -1.152,0.216 l 0,31.608 -6.696,0 0,-36.36"
         style="font-size:72px"
         id="path3033" />
      <path
         d="m 367.54233,272.25466 c -0.48003,-1.152 -1.12803,-2.61599 -1.944,-4.392 -0.76803,-1.77599 -1.60803,-3.69599 -2.52,-5.76 -0.91202,-2.06398 -1.89602,-4.17598 -2.952,-6.336 -1.00802,-2.20798 -1.96802,-4.27198 -2.88,-6.192 -0.91202,-1.96797 -1.77602,-3.71997 -2.592,-5.256 -0.76802,-1.53597 -1.39202,-2.71197 -1.872,-3.528 -0.52802,5.66403 -0.96001,11.80802 -1.296,18.432 -0.33601,6.57601 -0.62401,13.224 -0.864,19.944 l -6.84,0 c 0.19199,-4.32 0.40799,-8.66399 0.648,-13.032 0.23999,-4.41599 0.50399,-8.73598 0.792,-12.96 0.33599,-4.27197 0.67199,-8.42397 1.008,-12.456 0.38399,-4.03196 0.79199,-7.84796 1.224,-11.448 l 6.12,0 c 1.29598,2.11204 2.68798,4.60804 4.176,7.488 1.48798,2.88004 2.97598,5.90403 4.464,9.072 1.48797,3.12003 2.92797,6.26402 4.32,9.432 1.39197,3.12002 2.66397,5.97601 3.816,8.568 1.15197,-2.59199 2.42396,-5.44798 3.816,-8.568 1.39196,-3.16798 2.83196,-6.31197 4.32,-9.432 1.48796,-3.16797 2.97596,-6.19196 4.464,-9.072 1.48795,-2.87996 2.87995,-5.37596 4.176,-7.488 l 6.12,0 c 1.63194,16.08003 2.85594,32.71201 3.672,49.896 l -6.84,0 c -0.24005,-6.72 -0.52805,-13.36799 -0.864,-19.944 -0.33605,-6.62398 -0.76805,-12.76797 -1.296,-18.432 -0.48005,0.81603 -1.12805,1.99203 -1.944,3.528 -0.76805,1.53603 -1.60805,3.28803 -2.52,5.256 -0.91205,1.92002 -1.89604,3.98402 -2.952,6.192 -1.00804,2.16002 -1.96804,4.27202 -2.88,6.336 -0.91204,2.06401 -1.77604,3.98401 -2.592,5.76 -0.76804,1.77601 -1.39204,3.24 -1.872,4.392 l -5.616,0"
         style="font-size:72px"
         id="path3035" />
      <path
         d="m 440.48508,260.44666 c -4e-5,2.97601 -0.43204,5.66401 -1.296,8.064 -0.86404,2.4 -2.08804,4.464 -3.672,6.192 -1.53603,1.728 -3.38403,3.072 -5.544,4.032 -2.16003,0.912 -4.51203,1.368 -7.056,1.368 -2.54402,0 -4.89602,-0.456 -7.056,-1.368 -2.16001,-0.96 -4.03201,-2.304 -5.616,-4.032 -1.53601,-1.728 -2.73601,-3.792 -3.6,-6.192 -0.86401,-2.39999 -1.29601,-5.08799 -1.296,-8.064 -1e-5,-2.92798 0.43199,-5.59198 1.296,-7.992 0.86399,-2.44797 2.06399,-4.53597 3.6,-6.264 1.58399,-1.72797 3.45599,-3.04797 5.616,-3.96 2.15998,-0.95997 4.51198,-1.43997 7.056,-1.44 2.54397,3e-5 4.89597,0.48003 7.056,1.44 2.15997,0.91203 4.00797,2.23203 5.544,3.96 1.58396,1.72803 2.80796,3.81603 3.672,6.264 0.86396,2.40002 1.29596,5.06402 1.296,7.992 m -6.984,0 c -3e-5,-4.22398 -0.96003,-7.55998 -2.88,-10.008 -1.87203,-2.49597 -4.44003,-3.74397 -7.704,-3.744 -3.26402,3e-5 -5.85602,1.24803 -7.776,3.744 -1.87201,2.44802 -2.80801,5.78402 -2.808,10.008 -10e-6,4.22401 0.93599,7.58401 2.808,10.08 1.91998,2.448 4.51198,3.672 7.776,3.672 3.26397,0 5.83197,-1.224 7.704,-3.672 1.91997,-2.49599 2.87997,-5.85599 2.88,-10.08"
         style="font-size:72px"
         id="path3037" />
      <path
         d="m 482.95383,260.44666 c -4e-5,2.97601 -0.43204,5.66401 -1.296,8.064 -0.86404,2.4 -2.08804,4.464 -3.672,6.192 -1.53603,1.728 -3.38403,3.072 -5.544,4.032 -2.16003,0.912 -4.51203,1.368 -7.056,1.368 -2.54402,0 -4.89602,-0.456 -7.056,-1.368 -2.16001,-0.96 -4.03201,-2.304 -5.616,-4.032 -1.53601,-1.728 -2.73601,-3.792 -3.6,-6.192 -0.86401,-2.39999 -1.29601,-5.08799 -1.296,-8.064 -1e-5,-2.92798 0.43199,-5.59198 1.296,-7.992 0.86399,-2.44797 2.06399,-4.53597 3.6,-6.264 1.58399,-1.72797 3.45599,-3.04797 5.616,-3.96 2.15998,-0.95997 4.51198,-1.43997 7.056,-1.44 2.54397,3e-5 4.89597,0.48003 7.056,1.44 2.15997,0.91203 4.00797,2.23203 5.544,3.96 1.58396,1.72803 2.80796,3.81603 3.672,6.264 0.86396,2.40002 1.29596,5.06402 1.296,7.992 m -6.984,0 c -3e-5,-4.22398 -0.96003,-7.55998 -2.88,-10.008 -1.87203,-2.49597 -4.44003,-3.74397 -7.704,-3.744 -3.26402,3e-5 -5.85602,1.24803 -7.776,3.744 -1.87201,2.44802 -2.80801,5.78402 -2.808,10.008 -10e-6,4.22401 0.93599,7.58401 2.808,10.08 1.91998,2.448 4.51198,3.672 7.776,3.672 3.26397,0 5.83197,-1.224 7.704,-3.672 1.91997,-2.49599 2.87997,-5.85599 2.88,-10.08"
         style="font-size:72px"
         id="path3039" />
      <path
         d="m 516.56658,249.64666 c -0.81603,-0.67197 -1.99203,-1.31997 -3.528,-1.944 -1.53603,-0.62397 -3.21602,-0.93597 -5.04,-0.936 -1.92002,3e-5 -3.57602,0.36003 -4.968,1.08 -1.34402,0.67203 -2.44802,1.63203 -3.312,2.88 -0.86401,1.20002 -1.48801,2.64002 -1.872,4.32 -0.38401,1.68002 -0.57601,3.48002 -0.576,5.4 -10e-6,4.36801 1.07999,7.75201 3.24,10.152 2.15998,2.352 5.03998,3.528 8.64,3.528 1.82397,0 3.33597,-0.072 4.536,-0.216 1.24797,-0.192 2.20797,-0.384 2.88,-0.576 l 0,-23.688 m 0,-25.2 6.696,-1.152 0,54.792 c -1.53604,0.432 -3.50403,0.864 -5.904,1.296 -2.40003,0.432 -5.16003,0.648 -8.28,0.648 -2.88002,0 -5.47202,-0.456 -7.776,-1.368 -2.30401,-0.912 -4.27201,-2.208 -5.904,-3.888 -1.63201,-1.68 -2.90401,-3.72 -3.816,-6.12 -0.86401,-2.44799 -1.29601,-5.18399 -1.296,-8.208 -1e-5,-2.87998 0.35999,-5.51998 1.08,-7.92 0.76799,-2.39997 1.87199,-4.46397 3.312,-6.192 1.43999,-1.72797 3.19199,-3.07197 5.256,-4.032 2.11198,-0.95997 4.51198,-1.43997 7.2,-1.44 2.15998,3e-5 4.05597,0.28803 5.688,0.864 1.67997,0.57603 2.92797,1.12803 3.744,1.656 l 0,-18.936"
         style="font-size:72px"
         id="path3041" />
      <path
         d="m 546.07533,279.88666 c -4.12801,-0.096 -7.05601,-0.984 -8.784,-2.664 -1.72801,-1.68 -2.59201,-4.296 -2.592,-7.848 l 0,-44.928 6.696,-1.152 0,45 c -10e-6,1.10401 0.096,2.01601 0.288,2.736 0.19199,0.72 0.50399,1.296 0.936,1.728 0.43198,0.432 1.00798,0.768 1.728,1.008 0.71998,0.192 1.60798,0.36 2.664,0.504 l -0.936,5.616"
         style="font-size:72px"
         id="path3043" />
      <path
         d="m 552.44283,260.51866 c -10e-6,-3.31198 0.47999,-6.19198 1.44,-8.64 0.95999,-2.49597 2.23199,-4.55997 3.816,-6.192 1.58399,-1.63197 3.40799,-2.85597 5.472,-3.672 2.06398,-0.81597 4.17598,-1.22397 6.336,-1.224 5.03997,3e-5 8.90397,1.58403 11.592,4.752 2.68796,3.12003 4.03196,7.89602 4.032,14.328 -4e-5,0.28802 -4e-5,0.67202 0,1.152 -4e-5,0.43201 -0.024,0.84001 -0.072,1.224 l -25.632,0 c 0.28799,3.88801 1.41599,6.84001 3.384,8.856 1.96798,2.016 5.03998,3.024 9.216,3.024 2.35197,0 4.31997,-0.192 5.904,-0.576 1.63197,-0.432 2.85597,-0.84 3.672,-1.224 l 0.936,5.616 c -0.81603,0.432 -2.25603,0.888 -4.32,1.368 -2.01603,0.48 -4.32003,0.72 -6.912,0.72 -3.26402,0 -6.09602,-0.48 -8.496,-1.44 -2.35201,-1.008 -4.29601,-2.376 -5.832,-4.104 -1.53601,-1.728 -2.68801,-3.768 -3.456,-6.12 -0.72001,-2.39999 -1.08001,-5.01599 -1.08,-7.848 m 25.704,-3.672 c 0.048,-3.02398 -0.72003,-5.49598 -2.304,-7.416 -1.53603,-1.96797 -3.67203,-2.95197 -6.408,-2.952 -1.53602,3e-5 -2.90402,0.31203 -4.104,0.936 -1.15202,0.57603 -2.13602,1.34403 -2.952,2.304 -0.81601,0.96002 -1.46401,2.06402 -1.944,3.312 -0.43201,1.24802 -0.72001,2.52002 -0.864,3.816 l 18.576,0"
         style="font-size:72px"
         id="path3045" />
      <path
         d="m 639.20733,242.01466 c -4e-5,1.72803 -0.36004,3.40803 -1.08,5.04 -0.67203,1.58403 -1.58403,3.16803 -2.736,4.752 -1.15203,1.53602 -2.44803,3.07202 -3.888,4.608 -1.44003,1.48802 -2.88002,2.95202 -4.32,4.392 -0.81602,0.81601 -1.77602,1.77601 -2.88,2.88 -1.05602,1.10401 -2.06402,2.25601 -3.024,3.456 -0.96002,1.20001 -1.77602,2.35201 -2.448,3.456 -0.62401,1.104 -0.93601,2.064 -0.936,2.88 l 22.968,0 0,5.688 -30.24,0 c -0.048,-0.288 -0.072,-0.576 -0.072,-0.864 -10e-6,-0.288 -10e-6,-0.552 0,-0.792 -10e-6,-2.256 0.35999,-4.344 1.08,-6.264 0.76799,-1.96799 1.75199,-3.81599 2.952,-5.544 1.19999,-1.72799 2.54399,-3.35999 4.032,-4.896 1.48798,-1.53598 2.95198,-3.02398 4.392,-4.464 1.19998,-1.15198 2.32798,-2.27998 3.384,-3.384 1.10398,-1.15198 2.06398,-2.27998 2.88,-3.384 0.86397,-1.15197 1.53597,-2.32797 2.016,-3.528 0.52797,-1.19997 0.79197,-2.47197 0.792,-3.816 -3e-5,-1.43997 -0.24003,-2.66396 -0.72,-3.672 -0.43203,-1.00796 -1.03203,-1.84796 -1.8,-2.52 -0.76802,-0.67196 -1.68002,-1.15196 -2.736,-1.44 -1.00802,-0.33596 -2.08802,-0.50396 -3.24,-0.504 -1.39202,4e-5 -2.66402,0.19204 -3.816,0.576 -1.15201,0.38404 -2.18401,0.84004 -3.096,1.368 -0.91201,0.48004 -1.68001,1.00804 -2.304,1.584 -0.62401,0.52804 -1.10401,0.93604 -1.44,1.224 l -3.312,-4.752 c 0.43199,-0.47996 1.07999,-1.05596 1.944,-1.728 0.86399,-0.71996 1.89599,-1.39196 3.096,-2.016 1.19999,-0.62395 2.54399,-1.15195 4.032,-1.584 1.48798,-0.43195 3.09598,-0.64795 4.824,-0.648 5.23198,5e-5 9.14397,1.22405 11.736,3.672 2.63997,2.40004 3.95996,5.80804 3.96,10.224"
         style="font-size:72px"
         id="path3047" />
    </g>
    <g
       style="font-size:40px;font-style:normal;font-variant:normal;font-weight:normal;font-stretch:normal;line-height:125%;letter-spacing:0px;word-spacing:0px;fill:#000000;fill-opacity:1;stroke:none;font-family:Ubuntu;-inkscape-font-specification:Ubuntu"
       id="text34300">
      <path
         d="m 290.29334,351.66666 c -0.45335,-1.2 -0.88002,-2.37333 -1.28,-3.52 -0.40002,-1.17333 -0.81335,-2.36 -1.24,-3.56 l -12.56,0 -2.52,7.08 -4.04,0 c 1.06667,-2.93333 2.06667,-5.64 3,-8.12 0.93333,-2.50666 1.84,-4.87999 2.72,-7.12 0.90666,-2.23999 1.8,-4.37332 2.68,-6.4 0.87999,-2.05331 1.79999,-4.07998 2.76,-6.08 l 3.56,0 c 0.95999,2.00002 1.87999,4.02669 2.76,6.08 0.87998,2.02668 1.75998,4.16001 2.64,6.4 0.90665,2.24001 1.82665,4.61334 2.76,7.12 0.93331,2.48 1.93331,5.18667 3,8.12 l -4.24,0 m -3.64,-10.28 c -0.85335,-2.31999 -1.70668,-4.55999 -2.56,-6.72 -0.82668,-2.18665 -1.69334,-4.27998 -2.6,-6.28 -0.93334,2.00002 -1.82667,4.09335 -2.68,6.28 -0.82667,2.16001 -1.65334,4.40001 -2.48,6.72 l 10.32,0"
         style=""
         id="path3050" />
      <path
         d="m 306.35647,337.78666 c 0,-2.37332 0.34666,-4.46665 1.04,-6.28 0.71999,-1.81331 1.67999,-3.31998 2.88,-4.52 1.22666,-1.22664 2.63999,-2.14664 4.24,-2.76 1.62665,-0.61331 3.34665,-0.91998 5.16,-0.92 1.78665,2e-5 3.46665,0.30669 5.04,0.92 1.59998,0.61336 2.99997,1.53336 4.2,2.76 1.19997,1.20002 2.14664,2.70669 2.84,4.52 0.71997,1.81335 1.07997,3.90668 1.08,6.28 -3e-5,2.08001 -0.2667,3.93334 -0.8,5.56 -0.53336,1.62667 -1.28003,3.04 -2.24,4.24 -0.93336,1.17333 -2.04003,2.13333 -3.32,2.88 -1.25336,0.72 -2.60002,1.21333 -4.04,1.48 0.0267,0.61333 0.29331,1.14666 0.8,1.6 0.53331,0.47999 1.19998,0.87999 2,1.2 0.79998,0.31999 1.69331,0.58666 2.68,0.8 0.98664,0.21333 1.97331,0.37333 2.96,0.48 l -0.92,3.04 c -1.38669,-0.18668 -2.72002,-0.44001 -4,-0.76 -1.25336,-0.29334 -2.40002,-0.69334 -3.44,-1.2 -1.01335,-0.50668 -1.86668,-1.16001 -2.56,-1.96 -0.69335,-0.77334 -1.16002,-1.74667 -1.4,-2.92 -1.68001,-0.10667 -3.26668,-0.49334 -4.76,-1.16 -1.49334,-0.69334 -2.78668,-1.64 -3.88,-2.84 -1.09334,-1.22667 -1.96001,-2.70666 -2.6,-4.44 -0.64,-1.73333 -0.96,-3.73333 -0.96,-6 m 4.08,0 c -10e-6,1.68001 0.21333,3.21334 0.64,4.6 0.42666,1.36 1.02666,2.52 1.8,3.48 0.79999,0.96 1.75999,1.70667 2.88,2.24 1.14665,0.50667 2.42665,0.76 3.84,0.76 1.41331,0 2.67998,-0.25333 3.8,-0.76 1.11998,-0.53333 2.06664,-1.28 2.84,-2.24 0.79998,-0.96 1.41331,-2.12 1.84,-3.48 0.42664,-1.38666 0.63997,-2.91999 0.64,-4.6 -3e-5,-1.67999 -0.21336,-3.19999 -0.64,-4.56 -0.42669,-1.38665 -1.04002,-2.55998 -1.84,-3.52 -0.77336,-0.95998 -1.72002,-1.69331 -2.84,-2.2 -1.12002,-0.53331 -2.38669,-0.79998 -3.8,-0.8 -1.41335,2e-5 -2.69335,0.26669 -3.84,0.8 -1.12001,0.50669 -2.08001,1.24002 -2.88,2.2 -0.77334,0.96002 -1.37334,2.13335 -1.8,3.52 -0.42667,1.36001 -0.64001,2.88001 -0.64,4.56"
         style=""
         id="path3052" />
      <path
         d="m 354.89022,351.06666 c -0.85335,0.21333 -1.98669,0.44 -3.4,0.68 -1.38668,0.24 -3.00001,0.36 -4.84,0.36 -1.60001,0 -2.94668,-0.22667 -4.04,-0.68 -1.09334,-0.48 -1.97334,-1.14667 -2.64,-2 -0.66667,-0.85333 -1.14667,-1.85333 -1.44,-3 -0.29334,-1.17333 -0.44,-2.46666 -0.44,-3.88 l 0,-11.68 3.72,0 0,10.88 c -1e-5,2.53334 0.39999,4.34667 1.2,5.44 0.79999,1.09333 2.14666,1.64 4.04,1.64 0.39999,0 0.81332,-0.0133 1.24,-0.04 0.42665,-0.0267 0.82665,-0.0533 1.2,-0.08 0.37332,-0.0533 0.70665,-0.0933 1,-0.12 0.31998,-0.0533 0.54665,-0.10667 0.68,-0.16 l 0,-17.56 3.72,0 0,20.2"
         style=""
         id="path3054" />
      <path
         d="m 365.01897,351.66666 -3.72,0 0,-20.8 3.72,0 0,20.8 m -1.88,-24.56 c -0.66667,2e-5 -1.24001,-0.21331 -1.72,-0.64 -0.45334,-0.45331 -0.68,-1.05331 -0.68,-1.8 0,-0.74664 0.22666,-1.33331 0.68,-1.76 0.47999,-0.45331 1.05333,-0.67997 1.72,-0.68 0.66666,3e-5 1.22666,0.22669 1.68,0.68 0.47999,0.42669 0.71999,1.01336 0.72,1.76 -1e-5,0.74669 -0.24001,1.34669 -0.72,1.8 -0.45334,0.42669 -1.01334,0.64002 -1.68,0.64"
         style=""
         id="path3056" />
      <path
         d="m 380.49522,352.14666 c -1.68001,0 -3.16001,-0.26667 -4.44,-0.8 -1.25334,-0.53334 -2.32001,-1.28 -3.2,-2.24 -0.85334,-0.96 -1.49334,-2.09333 -1.92,-3.4 -0.42667,-1.33333 -0.64,-2.79999 -0.64,-4.4 0,-1.59999 0.22666,-3.06666 0.68,-4.4 0.48,-1.33332 1.14666,-2.47999 2,-3.44 0.85333,-0.98665 1.89333,-1.74665 3.12,-2.28 1.25332,-0.55998 2.63999,-0.83998 4.16,-0.84 0.93332,2e-5 1.86665,0.08 2.8,0.24 0.93332,0.16002 1.82665,0.41335 2.68,0.76 l -0.84,3.16 c -0.56002,-0.26665 -1.21335,-0.47999 -1.96,-0.64 -0.72002,-0.15999 -1.49335,-0.23999 -2.32,-0.24 -2.08001,10e-6 -3.68001,0.65335 -4.8,1.96 -1.09334,1.30668 -1.64001,3.21334 -1.64,5.72 -1e-5,1.12001 0.11999,2.14667 0.36,3.08 0.26666,0.93334 0.66666,1.73334 1.2,2.4 0.55999,0.66667 1.26666,1.18667 2.12,1.56 0.85332,0.34667 1.89332,0.52 3.12,0.52 0.98665,0 1.87998,-0.0933 2.68,-0.28 0.79998,-0.18667 1.42665,-0.38667 1.88,-0.6 l 0.52,3.12 c -0.21335,0.13333 -0.52002,0.26666 -0.92,0.4 -0.40002,0.10666 -0.85335,0.2 -1.36,0.28 -0.50668,0.10666 -1.05335,0.18666 -1.64,0.24 -0.56001,0.08 -1.10668,0.12 -1.64,0.12"
         style=""
         id="path3058" />
      <path
         d="m 397.56897,340.22666 c 0.79999,0.61334 1.63999,1.37334 2.52,2.28 0.90665,0.90667 1.78665,1.89334 2.64,2.96 0.87998,1.04 1.70665,2.10667 2.48,3.2 0.77331,1.06667 1.42665,2.06666 1.96,3 l -4.36,0 c -0.56002,-0.93334 -1.21335,-1.88 -1.96,-2.84 -0.72001,-0.98667 -1.48001,-1.92 -2.28,-2.8 -0.80001,-0.90666 -1.61334,-1.73333 -2.44,-2.48 -0.82668,-0.74666 -1.61334,-1.37333 -2.36,-1.88 l 0,10 -3.72,0 0,-30.4 3.72,-0.64 0,18.96 c 0.63999,-0.63999 1.34666,-1.34666 2.12,-2.12 0.77332,-0.77332 1.53332,-1.55999 2.28,-2.36 0.74665,-0.79999 1.45332,-1.55999 2.12,-2.28 0.66665,-0.74665 1.23998,-1.39998 1.72,-1.96 l 4.36,0 c -0.61335,0.66668 -1.28002,1.40002 -2,2.2 -0.72002,0.80001 -1.46668,1.61335 -2.24,2.44 -0.77335,0.80001 -1.56002,1.61334 -2.36,2.44 -0.77335,0.80001 -1.50668,1.56001 -2.2,2.28"
         style=""
         id="path3060" />
      <path
         d="m 438.88709,323.94666 0,3.36 -8.72,0 0,24.36 -3.88,0 0,-24.36 -8.72,0 0,-3.36 21.32,0"
         style=""
         id="path3062" />
      <path
         d="m 458.87772,341.26666 c -2e-5,1.65334 -0.24002,3.14667 -0.72,4.48 -0.48002,1.33333 -1.16002,2.48 -2.04,3.44 -0.85335,0.96 -1.88002,1.70666 -3.08,2.24 -1.20002,0.50666 -2.50668,0.76 -3.92,0.76 -1.41335,0 -2.72001,-0.25334 -3.92,-0.76 -1.20001,-0.53334 -2.24001,-1.28 -3.12,-2.24 -0.85334,-0.96 -1.52,-2.10667 -2,-3.44 -0.48,-1.33333 -0.72,-2.82666 -0.72,-4.48 0,-1.62666 0.24,-3.10666 0.72,-4.44 0.48,-1.35999 1.14666,-2.51999 2,-3.48 0.87999,-0.95998 1.91999,-1.69332 3.12,-2.2 1.19999,-0.53332 2.50665,-0.79998 3.92,-0.8 1.41332,2e-5 2.71998,0.26668 3.92,0.8 1.19998,0.50668 2.22665,1.24002 3.08,2.2 0.87998,0.96001 1.55998,2.12001 2.04,3.48 0.47998,1.33334 0.71998,2.81334 0.72,4.44 m -3.88,0 c -2e-5,-2.34666 -0.53335,-4.19999 -1.6,-5.56 -1.04002,-1.38665 -2.46668,-2.07999 -4.28,-2.08 -1.81334,10e-6 -3.25334,0.69335 -4.32,2.08 -1.04001,1.36001 -1.56001,3.21334 -1.56,5.56 -1e-5,2.34667 0.51999,4.21334 1.56,5.6 1.06666,1.36 2.50666,2.04 4.32,2.04 1.81332,0 3.23998,-0.68 4.28,-2.04 1.06665,-1.38666 1.59998,-3.25333 1.6,-5.6"
         style=""
         id="path3064" />
      <path
         d="m 480.67147,351.06666 c -0.85335,0.21333 -1.98669,0.44 -3.4,0.68 -1.38668,0.24 -3.00001,0.36 -4.84,0.36 -1.60001,0 -2.94668,-0.22667 -4.04,-0.68 -1.09334,-0.48 -1.97334,-1.14667 -2.64,-2 -0.66667,-0.85333 -1.14667,-1.85333 -1.44,-3 -0.29334,-1.17333 -0.44,-2.46666 -0.44,-3.88 l 0,-11.68 3.72,0 0,10.88 c -1e-5,2.53334 0.39999,4.34667 1.2,5.44 0.79999,1.09333 2.14666,1.64 4.04,1.64 0.39999,0 0.81332,-0.0133 1.24,-0.04 0.42665,-0.0267 0.82665,-0.0533 1.2,-0.08 0.37332,-0.0533 0.70665,-0.0933 1,-0.12 0.31998,-0.0533 0.54665,-0.10667 0.68,-0.16 l 0,-17.56 3.72,0 0,20.2"
         style=""
         id="path3066" />
      <path
         d="m 494.76022,330.42666 c 0.31999,2e-5 0.67999,0.0267 1.08,0.08 0.42665,0.0267 0.83999,0.08 1.24,0.16 0.39998,0.0534 0.75998,0.12002 1.08,0.2 0.34665,0.0533 0.59998,0.10668 0.76,0.16 l -0.64,3.24 c -0.29335,-0.10665 -0.78668,-0.22665 -1.48,-0.36 -0.66668,-0.15999 -1.53335,-0.23999 -2.6,-0.24 -0.69334,1e-5 -1.38668,0.08 -2.08,0.24 -0.66668,0.13335 -1.10668,0.22668 -1.32,0.28 l 0,17.48 -3.72,0 0,-19.92 c 0.87999,-0.31998 1.97333,-0.61332 3.28,-0.88 1.30666,-0.29332 2.77332,-0.43998 4.4,-0.44"
         style=""
         id="path3068" />
    </g>
  </g>
</svg>
